<svg width="84" height="84" viewBox="0 0 84 84" fill="none" xmlns="http://www.w3.org/2000/svg">
<path d="M7.1472 66.7086C7.48615 66.7086 7.7605 66.4342 7.7605 66.0953C7.7605 65.7563 7.48615 65.482 7.1472 65.482C6.57887 65.482 6.11644 65.0195 6.11644 64.4512C6.11644 63.8829 6.57887 63.4204 7.1472 63.4204C7.71553 63.4204 8.17796 63.8829 8.17796 64.4512C8.17796 64.7901 8.45232 65.0645 8.79127 65.0645C9.13022 65.0645 9.40457 64.7901 9.40457 64.4512C9.40457 63.2066 8.3918 62.1938 7.1472 62.1938C5.9026 62.1938 4.88983 63.2066 4.88983 64.4512C4.88983 65.6958 5.9026 66.7086 7.1472 66.7086Z" fill="#346EBA"/>
<path d="M73.2727 56.6761C73.0331 56.4365 72.6447 56.4369 72.4051 56.6761C71.9786 57.1025 71.7439 57.6692 71.7439 58.2723C71.7439 58.8754 71.9786 59.4421 72.4051 59.8685C72.845 60.3085 73.4232 60.5285 74.0009 60.5285C74.579 60.5285 75.1572 60.3085 75.5971 59.8685C76.0236 59.4425 76.2583 58.8754 76.2583 58.2723C76.2583 57.6692 76.0236 57.1025 75.5971 56.6761C75.3575 56.4369 74.9691 56.4369 74.7295 56.6761C74.4903 56.9157 74.4903 57.3041 74.7295 57.5437C74.9241 57.7383 75.0313 57.9967 75.0313 58.2723C75.0313 58.5479 74.9241 58.8067 74.7295 59.0009C74.3284 59.4029 73.6738 59.4033 73.2719 59.0009C73.0773 58.8063 72.9701 58.5475 72.9701 58.2719C72.9701 57.9963 73.0773 57.7379 73.2719 57.5433C73.5123 57.3041 73.5123 56.9157 73.2727 56.6761Z" fill="#346EBA"/>
<path d="M52.8327 82.0649C52.8327 81.1666 52.1016 80.4359 51.2037 80.4359C50.3059 80.4359 49.5748 81.167 49.5748 82.0649C49.5748 82.9628 50.3059 83.6938 51.2037 83.6938C52.1016 83.6938 52.8327 82.9632 52.8327 82.0649ZM51.2034 82.4672C50.9812 82.4672 50.8011 82.2871 50.8011 82.0649C50.8011 81.8427 50.9812 81.6625 51.2034 81.6625C51.4256 81.6625 51.6057 81.8427 51.6057 82.0649C51.6057 82.2871 51.4256 82.4672 51.2034 82.4672Z" fill="#346EBA"/>
<path d="M36.084 11.3598C36.9823 11.3598 37.713 10.6287 37.713 9.73087C37.713 8.83299 36.9819 8.10193 36.084 8.10193C35.1862 8.10193 34.4551 8.83258 34.4551 9.73087C34.4551 10.6292 35.1858 11.3598 36.084 11.3598ZM36.0837 9.32855C36.3059 9.32855 36.486 9.50868 36.486 9.73088C36.486 9.95308 36.3059 10.1332 36.0837 10.1332C35.8615 10.1332 35.6814 9.95308 35.6814 9.73088C35.6814 9.50868 35.8615 9.32855 36.0837 9.32855Z" fill="#346EBA"/>
<path d="M79.9845 15.8554H80.9261V16.797C80.9261 17.1359 81.2005 17.4103 81.5395 17.4103C81.8784 17.4103 82.1528 17.1359 82.1528 16.797V15.8554H83.0944C83.4333 15.8554 83.7077 15.581 83.7077 15.242C83.7077 14.9031 83.4333 14.6287 83.0944 14.6287H82.1528V13.6871C82.1528 13.3482 81.8784 13.0738 81.5395 13.0738C81.2005 13.0738 80.9261 13.3482 80.9261 13.6871V14.6287H79.9845C79.6456 14.6287 79.3712 14.9031 79.3712 15.242C79.3712 15.581 79.6456 15.8554 79.9845 15.8554Z" fill="#346EBA"/>
<path d="M1.32034 40.7428H2.26197V41.6844C2.26197 42.0234 2.53632 42.2977 2.87527 42.2977C3.21423 42.2977 3.48858 42.0234 3.48858 41.6844V40.7428H4.4302C4.76916 40.7428 5.04351 40.4685 5.04351 40.1295C5.04351 39.7906 4.76916 39.5162 4.4302 39.5162H3.48858V38.5746C3.48858 38.2356 3.21423 37.9613 2.87527 37.9613C2.53632 37.9613 2.26197 38.2356 2.26197 38.5746V39.5162H1.32034C0.981383 39.5162 0.707031 39.7906 0.707031 40.1295C0.707031 40.4685 0.981383 40.7428 1.32034 40.7428Z" fill="#346EBA"/>
<path d="M15.5252 3.47514H16.4668V4.41677C16.4668 4.75573 16.7411 5.03008 17.0801 5.03008C17.419 5.03008 17.6934 4.75573 17.6934 4.41677V3.47514H18.635C18.974 3.47514 19.2483 3.20079 19.2483 2.86184C19.2483 2.52289 18.974 2.24853 18.635 2.24853H17.6934V1.30691C17.6934 0.967955 17.419 0.693604 17.0801 0.693604C16.7411 0.693604 16.4668 0.967955 16.4668 1.30691V2.24853H15.5252C15.1862 2.24853 14.9118 2.52289 14.9118 2.86184C14.9118 3.20079 15.1866 3.47514 15.5252 3.47514Z" fill="#346EBA"/>
<path d="M17.8618 36.3696C18.9682 41.6325 19.905 46.6404 20.7317 51.0586C21.9133 57.3745 22.9335 62.8288 23.9986 66.6137C24.3805 67.972 25.3511 70.2257 27.5189 70.1075C28.5305 70.0519 29.6966 69.4762 30.8983 68.4405L30.9719 68.3681C31.5173 67.8951 32.0676 67.3133 32.6069 66.639C32.685 66.5413 32.7639 66.4391 32.8428 66.3365C32.9933 66.1427 33.1336 65.9513 33.2742 65.7604C33.3053 65.7187 33.3335 65.6798 33.3637 65.6389L33.3654 65.6369C33.5236 65.4231 33.6741 65.2162 33.8205 65.015L33.946 64.8421C34.1541 64.5526 34.3606 64.2672 34.5715 63.9818C34.9755 63.4347 35.4608 62.7916 35.9977 62.1734C36.1253 62.0282 36.25 61.8863 36.3788 61.7489C36.678 61.4235 36.9941 61.1091 37.3126 60.82C37.385 60.7513 37.4745 60.6712 37.5641 60.5959C38.1279 60.1028 38.7375 59.6633 39.4167 59.2618C39.5091 59.2037 39.6223 59.1404 39.7356 59.0766C39.9085 58.9805 40.0852 58.8905 40.2659 58.8018C38.4615 57.877 36.3984 57.0286 33.9991 56.2288C33.5706 56.0857 33.3392 55.6229 33.4819 55.1944C33.625 54.7659 34.0883 54.5357 34.5163 54.6771C37.6961 55.7373 40.3235 56.8838 42.5486 58.1832C43.9077 58.9723 45.1204 59.8195 46.2542 60.7722C48.007 62.2294 49.6045 63.947 51.4317 66.3389C52.9482 68.333 54.6486 69.6263 56.1712 70.0147C56.9145 69.3233 57.4551 68.2586 57.7004 66.8349C58.3464 63.106 58.1788 55.8568 59.7938 47.3073C47.0084 49.8137 31.316 41.4196 25.6327 33.9904C21.6793 28.8165 20.9323 22.6831 21.0595 18.2215C21.0476 18.2301 21.0339 18.2398 21.022 18.2484L20.9803 18.2803L20.9365 18.3143C20.8593 18.374 20.782 18.4341 20.7047 18.497C16.0575 22.3404 16.5935 30.3379 17.8618 36.3696Z" fill="#346EBA"/>
<path d="M58.117 75.8231C58.117 75.3717 57.7507 75.0053 57.2993 75.0053H31.5074C31.056 75.0053 30.6896 75.3717 30.6896 75.8231C30.6896 76.2745 31.056 76.6408 31.5074 76.6408H57.2993C57.7507 76.6408 58.117 76.2745 58.117 75.8231Z" fill="#0D2B53"/>
<path d="M24.2525 75.0053C23.8011 75.0053 23.4347 75.3717 23.4347 75.8231C23.4347 76.2745 23.8011 76.6408 24.2525 76.6408H25.6345C26.0859 76.6408 26.4522 76.2745 26.4522 75.8231C26.4522 75.3717 26.0859 75.0053 25.6345 75.0053H24.2525Z" fill="#0D2B53"/>
<path d="M44.4017 71.7765C44.8531 71.7765 45.2194 71.4101 45.2194 70.9587C45.2194 70.5073 44.8531 70.141 44.4017 70.141H43.5999C43.1485 70.141 42.7822 70.5073 42.7822 70.9587C42.7822 71.4101 43.1485 71.7765 43.5999 71.7765H44.4017Z" fill="#0D2B53"/>
<path d="M16.2625 36.706C17.3648 41.951 18.2999 46.9491 19.125 51.3591C20.1415 56.793 21.0393 61.5899 21.9568 65.2775H18.7235C18.2721 65.2775 17.9058 65.6438 17.9058 66.0952C17.9058 66.5466 18.2721 66.913 18.7235 66.913H22.3862C22.3992 66.96 22.4123 67.0095 22.4254 67.0561C22.784 68.3313 23.3135 69.3678 23.9787 70.1414H14.5772C14.1258 70.1414 13.7594 70.5077 13.7594 70.9591C13.7594 71.4105 14.1258 71.7769 14.5772 71.7769H39.3269C39.7783 71.7769 40.1446 71.4105 40.1446 70.9591C40.1446 70.5077 39.7783 70.1414 39.3269 70.1414H31.3948C31.6103 69.9766 31.8262 69.8029 32.0429 69.6131L32.1156 69.5412C32.7118 69.0154 33.3071 68.3828 33.8852 67.66C33.9703 67.5541 34.0549 67.4437 34.1379 67.3361C34.2463 67.1963 34.3501 67.0548 34.4548 66.913H37.729C38.1804 66.913 38.5468 66.5466 38.5468 66.0952C38.5468 65.6438 38.1804 65.2775 37.729 65.2775H35.6515C35.73 65.1699 35.8081 65.0604 35.8875 64.9532C36.2726 64.4319 36.7334 63.8207 37.2298 63.2495C37.3422 63.1215 37.4551 62.9931 37.5773 62.8627C37.8492 62.5671 38.1301 62.2874 38.4245 62.02C38.4871 61.9611 38.5529 61.9023 38.6298 61.8372C39.1282 61.4018 39.6581 61.0199 40.2661 60.6601C40.3535 60.6057 40.4447 60.5546 40.533 60.5051C40.7027 60.4111 40.8761 60.3203 41.0691 60.2279C41.1643 60.1801 41.2633 60.1327 41.372 60.084C41.5953 59.9814 41.8243 59.8873 42.054 59.7974C43.1977 60.4831 44.2346 61.2129 45.2048 62.0278C46.8624 63.4061 48.3817 65.0424 50.1305 67.3312C51.0054 68.4814 51.9389 69.423 52.8895 70.1422H51.2029C50.7515 70.1422 50.3852 70.5086 50.3852 70.96C50.3852 71.4113 50.7515 71.7777 51.2029 71.7777H57.0706C57.0796 71.7777 57.089 71.7789 57.098 71.7789C57.105 71.7789 57.1115 71.7777 57.1185 71.7777H68.1465C68.5979 71.7777 68.9642 71.4113 68.9642 70.96C68.9642 70.5086 68.5979 70.1422 68.1465 70.1422H60.5231C61.1794 69.3371 61.6434 68.2635 61.865 66.9755C61.8683 66.9559 61.8712 66.9338 61.8744 66.9138H65.5011C65.9525 66.9138 66.3189 66.5474 66.3189 66.096C66.3189 65.6446 65.9525 65.2783 65.5011 65.2783H62.0879C62.2093 64.0991 62.3009 62.7298 62.4002 61.2219C62.6685 57.1549 63.0029 52.0935 64.1514 46.4478C64.9038 42.7385 65.8826 39.3576 67.144 36.112C68.0594 33.7581 68.6232 31.4995 68.8518 29.3787L69.4177 29.2045L69.4201 29.2037C70.1888 28.9641 70.7044 28.2621 70.7028 27.457C70.7011 26.6413 70.1966 25.9593 69.4173 25.7201L68.8788 25.5541C68.6351 23.233 67.8999 21.1571 66.6652 19.4153C64.2671 16.0336 60.1502 14.264 55.0655 14.4369C49.6198 14.6181 45.0817 16.1636 42.135 17.4924C39.185 16.1624 34.6457 14.6164 29.2037 14.4361C25.8501 14.3269 22.9782 15.0241 20.6538 16.5152C20.5373 16.5913 20.4211 16.6677 20.3193 16.7413C20.2306 16.8031 20.1451 16.8648 20.0327 16.9466L19.9755 16.9907L20.4767 17.6363L19.9329 17.0234C19.8446 17.0917 19.7559 17.1604 19.6643 17.2361C15.4873 20.6906 14.3106 27.4239 16.2625 36.706ZM69.0677 27.4586C69.0681 27.5968 68.97 27.6295 68.9352 27.6402L68.3088 27.8336C68.1669 27.8798 68.0251 27.926 67.8811 27.9783C67.7483 28.0278 67.6174 28.0826 67.4874 28.1386C65.2362 29.1133 63.485 31.0522 62.7613 33.4016L62.5777 33.9965C62.5675 34.0296 62.536 34.1302 62.3966 34.1302C62.2596 34.1302 62.2289 34.0316 62.2187 33.9985L62.0343 33.4011C61.21 30.7333 59.1252 28.6484 56.4549 27.8229L55.8575 27.6402L55.7708 27.587C55.7152 27.5318 55.7123 27.4276 55.7491 27.3593C55.7671 27.3253 55.7909 27.3 55.8538 27.2812L56.4557 27.0972C56.7075 27.0199 56.9275 26.9406 57.1127 26.8617C59.1808 26.0321 60.831 24.4015 61.7146 22.3555C61.7702 22.2267 61.8331 22.1016 61.8826 21.9695C61.9345 21.8256 61.9832 21.6776 62.0347 21.5173L62.2187 20.9171C62.2285 20.8848 62.2588 20.7867 62.3962 20.7863C62.5356 20.7863 62.5675 20.8869 62.5769 20.9163L62.7613 21.5177C63.5807 24.1848 65.6659 26.2704 68.3395 27.0968L68.9368 27.2808C68.9691 27.2914 69.0673 27.3217 69.0677 27.4586ZM20.7047 18.497C20.782 18.4341 20.8593 18.374 20.9365 18.3143L20.9803 18.2803L21.022 18.2484C21.0339 18.2398 21.0476 18.2301 21.0595 18.2215C21.1245 18.1745 21.1891 18.1274 21.2651 18.0743C21.3575 18.0081 21.4545 17.9451 21.5444 17.8862C23.5785 16.5815 26.1368 15.969 29.151 16.0692C33.5983 16.2164 37.4167 17.3252 40.1881 18.4382C37.7635 19.7102 36.3864 20.7998 36.3177 20.8546C35.9652 21.1363 35.9084 21.6503 36.1897 22.0031C36.471 22.3552 36.9854 22.4136 37.3386 22.1323C37.3575 22.1172 39.2534 20.6195 42.4802 19.13C45.2752 17.8331 49.7372 16.2487 55.1212 16.07C59.7043 15.9126 63.2328 17.3992 65.3319 20.3595C66.2241 21.618 66.8125 23.0907 67.1101 24.7282C65.7936 23.87 64.7975 22.5751 64.3253 21.0386L64.1401 20.4339C63.9009 19.666 63.2009 19.1508 62.3971 19.1508H62.3934C61.5773 19.1521 60.8953 19.657 60.6557 20.4372L60.4754 21.0259C60.4333 21.1559 60.3912 21.286 60.3486 21.4041C59.6781 23.1962 58.2773 24.6322 56.4889 25.3497C56.3409 25.4127 56.1732 25.4728 55.977 25.5329L55.3772 25.7165C54.9086 25.8592 54.5271 26.1716 54.3051 26.5919C53.8885 27.3716 54.0946 28.3606 54.7847 28.8926L54.8301 28.9253C54.9295 28.9919 55.0186 29.0463 55.1155 29.0974C55.1834 29.1318 55.2578 29.1612 55.3347 29.189L55.3755 29.2029L55.9745 29.3861C58.126 30.0509 59.8073 31.7326 60.4717 33.8833L60.6557 34.4794C60.8953 35.2591 61.5773 35.7637 62.393 35.7653H62.3967C63.2005 35.7653 63.9009 35.2501 64.1405 34.4802L64.3245 33.8833C64.7914 32.3676 65.7899 31.0649 67.097 30.2022C66.8292 31.8876 66.3398 33.667 65.6202 35.5175C64.3245 38.8514 63.3199 42.3199 62.5492 46.1207C61.3786 51.874 61.0404 56.9967 60.7689 61.1128C60.6197 63.3693 60.4913 65.3184 60.2534 66.6963C59.9332 68.5567 59.0607 69.751 57.7969 70.0601C57.5716 70.1153 57.3373 70.1414 57.0957 70.141H57.0683C56.7788 70.1386 56.4783 70.0932 56.1712 70.0147C54.6486 69.6263 52.9472 68.3338 51.4307 66.3397C49.6034 63.9478 48.006 62.2302 46.2531 60.773C45.1193 59.8203 43.9066 58.9735 42.5475 58.184C40.3225 56.8846 37.6951 55.7381 34.5153 54.6779C34.0876 54.5365 33.624 54.7667 33.4809 55.1952C33.3382 55.6236 33.5696 56.0865 33.9981 56.2296C36.3977 57.0293 38.4609 57.8777 40.2648 58.8026C40.0845 58.8909 39.9079 58.9809 39.7345 59.0774C39.6213 59.1412 39.508 59.2049 39.4156 59.2626C38.7365 59.6641 38.1273 60.1036 37.563 60.5967C37.4735 60.672 37.3839 60.7521 37.3116 60.8208C36.9935 61.1099 36.6774 61.4243 36.3777 61.7497C36.2489 61.8871 36.1242 62.0286 35.9966 62.1742C35.4598 62.7924 34.9745 63.4351 34.5705 63.9826C34.3595 64.268 34.153 64.553 33.9449 64.8428L33.8194 65.0158C33.6734 65.217 33.523 65.4234 33.3643 65.6377L33.3627 65.6397C33.3324 65.6806 33.3042 65.7195 33.2731 65.7612C33.1329 65.9521 32.9923 66.1435 32.8418 66.3373C32.7633 66.4395 32.6844 66.5417 32.6059 66.6398C32.0666 67.3141 31.5166 67.8959 30.9708 68.3689L30.8972 68.4413C29.6959 69.477 28.5294 70.0527 27.5179 70.1083C25.3501 70.2268 24.3794 67.9727 23.9975 66.6145C22.9324 62.8296 21.9123 57.3752 20.7306 51.0594C19.9043 46.6412 18.9672 41.6333 17.8608 36.3704C16.5945 30.3379 16.0591 22.34 20.7047 18.497Z" fill="#0D2B53"/>
<path d="M6.85242 51.4654L7.26007 51.5914C8.6396 52.017 9.71738 53.0944 10.143 54.4739L10.2685 54.8819C10.464 55.5149 11.0401 55.9401 11.7024 55.9397C12.3648 55.9397 12.9405 55.5145 13.1355 54.8819L13.2615 54.4743C13.6871 53.0944 14.7645 52.017 16.1444 51.5914L16.5516 51.4654C17.1846 51.2704 17.6098 50.6943 17.6098 50.0323C17.6098 49.37 17.1846 48.7939 16.5516 48.5984L16.1444 48.4729C14.7645 48.0473 13.6871 46.9695 13.2615 45.59L13.1355 45.1823C12.9405 44.5498 12.3644 44.1246 11.7024 44.1246C11.0401 44.1246 10.464 44.5498 10.2689 45.1827L10.1434 45.5904C9.71778 46.9699 8.64001 48.0477 7.26089 48.4733L6.85283 48.5988C6.2199 48.7943 5.79508 49.3704 5.79508 50.0327C5.79468 50.6943 6.2199 51.2704 6.85242 51.4654ZM7.75398 50.0319C9.64133 49.4456 11.1161 47.9708 11.7024 46.0835C12.2888 47.9708 13.7631 49.4456 15.6509 50.0319C13.7631 50.6182 12.2883 52.093 11.7024 53.9804C11.1157 52.093 9.64092 50.6182 7.75398 50.0319Z" fill="#0D2B53"/>
<path d="M67.9158 40.4137L67.5086 40.5396C66.8757 40.7347 66.4504 41.3107 66.4504 41.9731C66.4504 42.6355 66.8757 43.2116 67.5082 43.4066L67.9158 43.5325C69.2958 43.9582 70.3731 45.0356 70.7988 46.4155L70.9247 46.8227C71.1197 47.4552 71.6958 47.8805 72.3578 47.8805C73.0202 47.8805 73.5963 47.4552 73.7913 46.8223L73.9168 46.4151C74.3424 45.0351 75.4202 43.9578 76.7998 43.5321L77.2074 43.4062C77.8403 43.2112 78.2652 42.6351 78.2652 41.9727C78.2652 41.3103 77.8399 40.7342 77.2074 40.5392L76.7994 40.4133C75.4198 39.9876 74.342 38.9103 73.9164 37.5307L73.7909 37.1227C73.5954 36.4898 73.0193 36.0645 72.357 36.0649C71.6946 36.0649 71.1189 36.4902 70.9239 37.1227L70.798 37.5303C70.3731 38.9107 69.2958 39.9881 67.9158 40.4137ZM68.4093 41.9731C70.2971 41.3868 71.7723 39.912 72.3582 38.0247C72.9445 39.9124 74.4197 41.3872 76.3071 41.9731C74.4197 42.559 72.9449 44.0338 72.3582 45.9216C71.7719 44.0338 70.2967 42.559 68.4093 41.9731Z" fill="#0D2B53"/>
<path d="M66.9282 27.9677C64.5199 27.2235 62.635 25.3386 61.8909 22.9304L61.7146 22.3555C60.831 24.4015 59.1808 26.0321 57.1127 26.8617C56.9275 26.9406 56.7075 27.0199 56.4557 27.0972L55.8538 27.2812C55.7909 27.3 55.7671 27.3253 55.7491 27.3593C55.7123 27.4276 55.7152 27.5318 55.7708 27.587L55.8575 27.6402L56.4549 27.8229C59.1252 28.6484 61.21 30.7333 62.0343 33.4011L62.2187 33.9985C62.2289 34.0316 62.2596 34.1302 62.3966 34.1302C62.536 34.1302 62.5675 34.0296 62.5777 33.9965L62.7613 33.4016C63.485 31.0522 65.2362 29.1133 67.4874 28.1386L66.9282 27.9677Z" fill="#346EBA"/>
</svg>
