<svg width="84" height="84" viewBox="0 0 84 84" fill="none" xmlns="http://www.w3.org/2000/svg">
<path d="M33.2881 32.6914L33.2725 32.7278C33.2713 32.7302 33.2701 32.7331 33.2693 32.7356L33.2267 32.8345C33.2137 32.8651 33.192 32.8889 33.1756 32.9171C32.9986 33.2389 32.7238 33.5095 32.3608 33.6649L32.324 33.7561L40.1293 51.9879L40.3599 51.7573C40.3386 51.6976 40.3202 51.6367 40.3063 51.5737C40.189 51.0541 40.3447 50.5181 40.7229 50.1399L47.4455 43.4172C43.4337 41.1636 40.081 38.2912 37.9946 35.5649C36.4208 33.505 35.4338 31.2706 34.8316 29.0799L33.3089 32.6354L33.2881 32.6914Z" fill="#346EBA"/>
<path d="M46.866 53.8875C49.1651 54.709 51.1166 55.5929 52.8028 56.577C53.0134 56.6993 53.217 56.8224 53.421 56.9495C54.2183 57.4397 54.9542 57.9582 55.6673 58.531C55.7879 58.6275 55.9098 58.7289 56.032 58.8307L56.0431 58.8397L56.0856 58.8749C56.2859 59.0421 56.4826 59.2097 56.6707 59.3811C56.8449 59.5352 57.0199 59.7012 57.1949 59.8676C57.2729 59.938 57.3629 60.0275 57.4528 60.117C57.5775 60.2377 57.7068 60.3665 57.8356 60.4998L57.9051 60.5733C58.076 60.7451 58.2395 60.9168 58.4026 61.0926L58.4582 61.1588L58.502 61.2014L58.6705 61.3899C58.7772 61.5097 58.8847 61.6299 58.9906 61.7521C59.1738 61.9651 59.3549 62.1757 59.5319 62.3944C59.6526 62.5379 59.7814 62.697 59.911 62.8577L60.0549 63.036C60.2356 63.2641 60.4102 63.4881 60.5848 63.7171C61.4737 64.8828 62.4435 65.7909 63.39 66.3449C63.4383 66.3731 63.4857 66.3952 63.5335 66.4218C63.9314 65.8547 64.2253 65.1191 64.3836 64.2135C64.9478 60.963 64.8006 54.6378 66.2071 47.1801C62.266 47.9532 58.2068 47.5345 54.3851 46.3885L46.9768 53.7968C46.9417 53.8311 46.9024 53.8569 46.866 53.8875Z" fill="#346EBA"/>
<path d="M36.1431 55.9735L33.8648 50.6517C34.2905 52.9267 34.6924 55.0708 35.0833 57.0337L36.1431 55.9735Z" fill="#346EBA"/>
<path d="M39.6348 66.9643C40.0555 66.941 40.5093 66.8098 40.9836 66.5784C40.5985 66.1339 40.2754 65.6281 40.0363 65.0692L39.1658 63.0359L37.1967 65.005C37.1603 65.0414 37.121 65.0737 37.0846 65.1093C37.5471 66.0828 38.3325 67.0383 39.6348 66.9643Z" fill="#346EBA"/>
<path d="M45.2572 55.0622C45.0626 54.9972 44.9118 54.8647 44.8153 54.7012L42.3461 57.1703L42.5648 57.6814C42.7366 57.5866 42.9144 57.4995 43.098 57.421C44.5683 56.7913 46.2532 56.7966 47.7203 57.4365C48.1753 57.6348 48.5911 57.8903 48.9714 58.186C49.2854 57.9517 49.6117 57.7272 49.9641 57.5187C50.0426 57.4688 50.1436 57.412 50.245 57.3559C50.3379 57.304 50.436 57.2566 50.5312 57.2076C49.0053 56.4389 47.2652 55.7319 45.2572 55.0622Z" fill="#346EBA"/>
<path d="M63.6696 18.4006C58.9263 18.5597 54.9709 19.8983 52.3909 21.0562C49.8081 19.8966 45.8531 18.5584 41.116 18.401L41.0886 18.4006C40.6495 18.4006 40.2864 18.7494 40.2717 19.1914C40.2565 19.6428 40.6106 20.0205 41.062 20.0357C44.8158 20.16 48.0537 21.0721 50.4431 22.0105C48.4429 23.0805 47.3107 23.9792 47.2527 24.0258C46.9006 24.308 46.8438 24.8219 47.1255 25.1743C47.4072 25.5272 47.922 25.5852 48.2745 25.3023C48.2908 25.2896 49.9344 23.9886 52.736 22.695C55.1651 21.5681 59.0436 20.1923 63.7243 20.0353C67.6789 19.895 70.7315 21.1813 72.5408 23.7331C74.7654 26.8711 74.8505 31.5322 72.78 36.8594C71.6617 39.739 70.7585 42.8575 70.0953 46.1264C69.0744 51.146 68.7792 55.6158 68.5416 59.2073C68.4112 61.176 68.2988 62.8769 68.0915 64.0757C67.8592 65.4323 67.2684 66.3944 66.4286 66.7844C65.6391 67.1524 64.6154 67.0187 63.5335 66.4218C63.4857 66.3952 63.4383 66.3731 63.39 66.3449C62.4435 65.7909 61.4737 64.8828 60.5848 63.7171C60.4102 63.4881 60.2356 63.2641 60.0549 63.036L59.911 62.8577C59.7814 62.697 59.6526 62.5379 59.5319 62.3944C59.3549 62.1757 59.1738 61.9651 58.9906 61.7521C58.8847 61.6299 58.7772 61.5097 58.6705 61.3899L58.502 61.2014L58.4582 61.1588L58.4026 61.0926C58.2395 60.9168 58.076 60.7451 57.9051 60.5733L57.8356 60.4998C57.7068 60.3665 57.5775 60.2377 57.4528 60.117C57.3629 60.0275 57.2729 59.938 57.1949 59.8676C57.0199 59.7012 56.8449 59.5352 56.6707 59.3811C56.4826 59.2097 56.2859 59.0421 56.0856 58.8749L56.0431 58.8397L56.032 58.8307C55.9098 58.7289 55.7879 58.6275 55.6673 58.531C54.9542 57.9582 54.2183 57.4397 53.421 56.9495C53.217 56.8224 53.0134 56.6993 52.8028 56.577C51.1166 55.5929 49.1651 54.709 46.866 53.8875C46.9024 53.8569 46.9419 53.8315 46.9759 53.7975L69.9518 30.822C71.3178 29.4556 71.3178 27.233 69.9518 25.8665C68.5854 24.4997 66.3624 24.5005 64.9963 25.8665L47.4455 43.4172L40.7229 50.1399C40.3447 50.5181 40.189 51.0541 40.3063 51.5737C40.3202 51.6367 40.3386 51.6976 40.3599 51.7573L40.1293 51.9879L32.324 33.7561L32.3608 33.6649C32.7238 33.5095 32.9986 33.2389 33.1756 32.9171C33.192 32.8889 33.2137 32.8651 33.2267 32.8345L33.2693 32.7356C33.2701 32.7331 33.2713 32.7302 33.2725 32.7278L33.2881 32.6914L33.3089 32.6354L34.8316 29.0799L38.693 20.0618C39.3448 18.5417 39.3656 16.8596 38.7511 15.3247C38.1366 13.7902 36.9599 12.5865 35.4385 11.9348C35.2389 11.8493 35.0136 11.8465 34.8125 11.9274C34.6113 12.008 34.4502 12.1654 34.3647 12.3645L29.7311 23.1897L25.0969 12.3653C25.0119 12.1662 24.8504 12.0088 24.6492 11.9282C24.4485 11.8477 24.2228 11.8505 24.0233 11.9356C22.5027 12.5869 21.3268 13.7902 20.7122 15.3251C20.0977 16.8596 20.1177 18.5421 20.7691 20.0627L26.887 34.353L24.3131 40.3634C24.1353 40.7788 24.3279 41.2588 24.7429 41.4371C24.8475 41.4816 24.9567 41.5033 25.0642 41.5033C25.3815 41.5033 25.6837 41.3173 25.8161 41.0069L27.7763 36.4305L28.8418 38.9193L17.9197 64.4257C17.1919 66.1266 15.4047 67.1549 13.5652 66.9361C13.2001 66.8952 12.8325 66.8 12.4744 66.6536C10.4353 65.8117 9.37883 63.4423 10.1193 61.3722C10.5155 60.2667 11.3238 59.4007 12.3959 58.9338C13.4667 58.4672 14.645 58.4652 15.72 58.926C16.0965 59.0855 16.4355 59.2923 16.7274 59.5401C16.9253 59.7082 17.1911 59.7711 17.4442 59.7131C17.6968 59.6534 17.9062 59.4775 18.0084 59.2388L24.7739 43.4409C24.9518 43.0259 24.7592 42.5455 24.3442 42.3673C23.928 42.1898 23.4484 42.382 23.2705 42.7974L16.8963 57.6814C16.7237 57.5865 16.5451 57.4995 16.3611 57.4214C14.8936 56.7913 13.2103 56.7958 11.7429 57.434C10.2526 58.0825 9.12942 59.285 8.57949 60.8207C7.79651 63.011 8.4601 65.438 10.0686 66.9913H9.41684C8.96545 66.9913 8.59911 67.3577 8.59911 67.8091C8.59911 68.2604 8.96545 68.6268 9.41684 68.6268H22.2962C22.7476 68.6268 23.1139 68.2604 23.1139 67.8091C23.1139 67.3577 22.7476 66.9913 22.2962 66.9913H18.0779C18.6413 66.4578 19.1058 65.8109 19.4231 65.0697L21.6105 59.9613L23.9783 60.9748C24.0834 61.0194 24.1921 61.0411 24.2997 61.0411C24.6169 61.0411 24.9191 60.855 25.0516 60.5447C25.2294 60.1293 25.0368 59.6488 24.6218 59.471L22.2545 58.4574L29.7311 40.9963L30.873 43.6638C31.3579 46.1501 31.8036 48.5277 32.2161 50.7327C32.7362 53.5142 33.2212 56.1048 33.6946 58.4219L25.1988 66.9177C24.989 67.1275 24.9093 67.4341 24.9902 67.7191C25.0712 68.0041 25.3001 68.2232 25.5884 68.2915C26.5259 68.5135 27.4917 68.6247 28.4554 68.6247C29.2985 68.6247 30.1395 68.5397 30.9576 68.3688C32.7227 68.007 34.3709 67.2669 35.8068 66.203C36.6663 67.7547 37.946 68.6043 39.483 68.6043C39.5639 68.6043 39.6453 68.6019 39.7275 68.5969C40.5648 68.5507 41.43 68.2498 42.3115 67.7105C43.1665 68.2445 44.1543 68.5573 45.1805 68.5945C45.2488 68.6133 45.3196 68.6264 45.394 68.6264H49.5203C49.9717 68.6264 50.338 68.2601 50.338 67.8087C50.338 67.3573 49.9717 66.9909 49.5203 66.9909H49.3943C51.0032 65.4385 51.6664 63.0102 50.8814 60.8186C50.6929 60.292 50.432 59.8083 50.1168 59.3688C50.3376 59.2118 50.5686 59.0609 50.8168 58.9145C50.8908 58.8683 50.9685 58.825 51.0453 58.7821C51.1913 58.7011 51.3405 58.623 51.5082 58.5424C51.59 58.5016 51.6746 58.4607 51.7686 58.419C51.949 58.3364 52.1354 58.2673 52.3202 58.1941C52.3995 58.2424 52.4801 58.2886 52.5602 58.3389C53.3031 58.7956 53.9843 59.2752 54.6446 59.8059C54.7587 59.8975 54.8724 59.9919 55.0003 60.0986L55.0126 60.1088L55.0244 60.1187C55.2113 60.274 55.3941 60.4298 55.5785 60.5974C55.7465 60.7458 55.9068 60.8983 56.0834 61.066C56.157 61.1326 56.2269 61.203 56.312 61.288C56.4285 61.4005 56.5446 61.517 56.6685 61.6417L56.7278 61.7075C56.8545 61.8343 56.9748 61.9614 57.0958 62.0902H56.727C56.2756 62.0902 55.9092 62.4565 55.9092 62.9079C55.9092 63.3593 56.2756 63.7257 56.727 63.7257H58.5092C58.5522 63.7784 58.5951 63.83 58.638 63.8835L58.7787 64.0577C58.9475 64.2707 59.1164 64.4882 59.2844 64.7086C59.9816 65.6228 60.7126 66.3842 61.4662 66.9905H54.3756C53.9242 66.9905 53.5578 67.3569 53.5578 67.8083C53.5578 68.2597 53.9242 68.626 54.3756 68.626H69.5887C70.0401 68.626 70.4065 68.2597 70.4065 67.8083C70.4065 67.3569 70.0401 66.9905 69.5887 66.9905H68.6385C69.1541 66.2942 69.5221 65.4053 69.7028 64.3521C69.7351 64.1657 69.7645 63.9669 69.7924 63.7621H71.1686C71.62 63.7621 71.9864 63.3958 71.9864 62.9444C71.9864 62.493 71.62 62.1266 71.1686 62.1266H69.969C70.043 61.2741 70.1055 60.3292 70.1726 59.314C70.4069 55.7716 70.6984 51.3631 71.6973 46.4506C72.351 43.2271 73.2035 40.2828 74.3038 37.4502C76.5796 31.5948 76.4271 26.3866 73.8741 22.7861C71.7635 19.8088 68.1422 18.2555 63.6696 18.4006ZM46.9886 66.6524C46.6308 66.8 46.2641 66.8952 45.8891 66.9365C44.0603 67.1618 42.2702 66.1278 41.5416 64.4257L40.4131 61.7901L41.6626 60.5406C41.8221 60.3812 41.9088 60.1632 41.9018 59.938L41.8936 59.6652C41.9341 59.682 41.9738 59.7 42.0171 59.7102C42.269 59.7703 42.5343 59.7069 42.7326 59.5413C43.0295 59.2923 43.3705 59.0842 43.7454 58.9235C44.8187 58.4635 45.9991 58.4681 47.0703 58.9346C48.1403 59.4015 48.9479 60.2662 49.3432 61.3706C50.0849 63.4427 49.0288 65.8117 46.9886 66.6524ZM27.4839 66.9464L41.625 52.8052L43.6632 53.5432L40.4287 56.7774C40.2692 56.9369 40.1825 57.1548 40.1895 57.3801L40.2566 59.6341L36.0423 63.8492C34.5537 65.3378 32.6823 66.3469 30.6273 66.7685C29.6014 66.9815 28.5363 67.0416 27.4839 66.9464ZM22.2316 15.9331C22.5808 15.0614 23.1765 14.3344 23.9447 13.8282L31.7541 32.0699L31.7177 32.1615C31.2991 32.3406 30.9752 32.6722 30.806 33.0949C30.6363 33.5177 30.642 33.9813 30.8215 34.3996L38.8844 53.2333L37.3896 54.7281L22.2733 19.4191C21.7941 18.3005 21.7794 17.0624 22.2316 15.9331ZM37.2334 15.9327C37.6852 17.0616 37.67 18.2988 37.1908 19.4175L32.6532 30.0141L30.6216 25.268L35.519 13.8266C36.2881 14.3336 36.8838 15.0606 37.2334 15.9327ZM36.1431 55.9735L35.0833 57.0337C34.6924 55.0708 34.2905 52.9267 33.8648 50.6517L36.1431 55.9735ZM68.7964 27.022C69.525 27.7506 69.525 28.9363 68.7964 29.6649L65.7736 32.6877L64.565 28.6109L66.1538 27.022C66.8824 26.2938 68.0678 26.2938 68.7964 27.022ZM62.0631 36.3982L60.9837 37.4776L59.7751 33.4011L60.8545 32.3217L62.0631 36.3982ZM62.1702 31.0056L63.2496 29.9262L64.4583 34.003L63.3789 35.0824L62.1702 31.0056ZM59.6684 38.7933L45.8613 52.6004L41.982 51.1947L58.4598 34.7165L59.6684 38.7933ZM37.1982 65.005L39.1673 63.036L40.0378 65.0692C40.277 65.6281 40.6 66.1339 40.9851 66.5784C40.5109 66.8094 40.057 66.941 39.6363 66.9643C38.3336 67.0379 37.5482 66.0824 37.0862 65.1093C37.123 65.0737 37.1622 65.0414 37.1982 65.005ZM49.9672 57.5187C49.6147 57.7268 49.2884 57.9517 48.9744 58.1859C48.5938 57.8903 48.1779 57.6348 47.7233 57.4365C46.2563 56.7966 44.5713 56.7913 43.101 57.421C42.9175 57.4991 42.7396 57.5861 42.5679 57.6814L42.3491 57.1703L44.8183 54.7012C44.9152 54.8647 45.0661 54.9972 45.2603 55.0622C47.2682 55.7319 49.0084 56.4388 50.5343 57.2071C50.439 57.2566 50.3409 57.3036 50.2481 57.3555C50.1467 57.4119 50.0461 57.4688 49.9672 57.5187Z" fill="#0D2B53"/>
<path d="M13.1982 62.4042C13.2252 62.3408 13.2591 62.2807 13.2984 62.2255C13.5613 61.8584 13.4766 61.3477 13.1095 61.0848C12.7427 60.8211 12.2312 60.9057 11.9683 61.2737C11.86 61.425 11.7676 61.5893 11.694 61.7619C11.5165 62.1773 11.7095 62.6573 12.1249 62.8352C12.2296 62.8797 12.3383 62.901 12.4455 62.901C12.7631 62.9014 13.0657 62.715 13.1982 62.4042Z" fill="#0D2B53"/>
<path d="M13.0517 65.1539C13.3788 65.2937 13.7235 65.3641 14.0686 65.3641C14.3936 65.3641 14.7187 65.3019 15.0294 65.1776C15.6701 64.9208 16.1726 64.4302 16.4445 63.7956C16.9503 62.6136 16.5013 61.2243 15.4003 60.5639C15.0127 60.3317 14.5106 60.4572 14.2783 60.8444C14.0461 61.2316 14.1716 61.7341 14.5588 61.9663C14.9624 62.2084 15.1263 62.7183 14.9411 63.1521C14.8413 63.3847 14.657 63.565 14.4214 63.6591C14.1859 63.7535 13.9283 63.7502 13.6957 63.6505C13.2811 63.4738 12.7999 63.6652 12.622 64.0806C12.4442 64.4948 12.6367 64.9756 13.0517 65.1539Z" fill="#0D2B53"/>
<path d="M46.6942 61.3314C46.2788 61.5092 46.0866 61.9897 46.2645 62.4051C46.3642 62.6377 46.3671 62.8957 46.2731 63.1308C46.179 63.3659 45.9987 63.5503 45.7656 63.6501C45.5326 63.7498 45.275 63.7535 45.0399 63.6587C44.8048 63.5646 44.6204 63.3843 44.5202 63.1517C44.3146 62.6708 44.5382 62.1119 45.019 61.9063C45.434 61.728 45.6266 61.2476 45.4488 60.8326C45.2709 60.4172 44.7901 60.2254 44.3751 60.4024C43.0655 60.9634 42.4562 62.4856 43.0168 63.7952C43.2883 64.4298 43.7908 64.9204 44.4315 65.1772C44.7422 65.3015 45.0673 65.3637 45.3923 65.3637C45.7374 65.3637 46.0825 65.2933 46.4088 65.1535C47.0433 64.882 47.534 64.3795 47.7908 63.7388C48.0471 63.0981 48.0389 62.3957 47.7675 61.7611C47.59 61.3461 47.1096 61.1539 46.6942 61.3314Z" fill="#0D2B53"/>
<path d="M32.3904 64.456C32.5998 64.456 32.8091 64.3763 32.9686 64.2164L38.0925 59.0925C38.4118 58.7731 38.4118 58.2555 38.0925 57.9362C37.7732 57.6169 37.2552 57.6169 36.9362 57.9362L31.8123 63.0601C31.493 63.3794 31.493 63.8971 31.8123 64.2164C31.9721 64.3758 32.1811 64.456 32.3904 64.456Z" fill="#0D2B53"/>
<path d="M56.4423 72.673C56.4423 72.2216 56.076 71.8552 55.6246 71.8552H36.2491C35.7978 71.8552 35.4314 72.2216 35.4314 72.673C35.4314 73.1243 35.7978 73.4907 36.2491 73.4907H55.6246C56.076 73.4907 56.4423 73.1248 56.4423 72.673Z" fill="#0D2B53"/>
<path d="M59.8446 73.4907C60.296 73.4907 60.6624 73.1243 60.6624 72.673C60.6624 72.2216 60.296 71.8552 59.8446 71.8552H58.8969C58.4455 71.8552 58.0791 72.2216 58.0791 72.673C58.0791 73.1243 58.4455 73.4907 58.8969 73.4907H59.8446Z" fill="#0D2B53"/>
<path d="M75.077 66.9917H72.6942C72.2428 66.9917 71.8764 67.3581 71.8764 67.8095C71.8764 68.2608 72.2428 68.6272 72.6942 68.6272H75.077C75.5284 68.6272 75.8948 68.2608 75.8948 67.8095C75.8948 67.3581 75.5288 66.9917 75.077 66.9917Z" fill="#0D2B53"/>
<path d="M6.34966 66.9668H5.46364C5.01225 66.9668 4.64591 67.3331 4.64591 67.7845C4.64591 68.2359 5.01225 68.6023 5.46364 68.6023H6.34966C6.80105 68.6023 7.16739 68.2359 7.16739 67.7845C7.16739 67.3331 6.80146 66.9668 6.34966 66.9668Z" fill="#0D2B53"/>
<path d="M56.7248 16.9471C58.0687 16.9471 59.1616 15.8538 59.1616 14.5098C59.1616 13.1663 58.0683 12.073 56.7248 12.073C55.3812 12.073 54.2879 13.1663 54.2879 14.5098C54.2875 15.8538 55.3808 16.9471 56.7248 16.9471ZM56.7248 13.2996C57.3921 13.2996 57.935 13.8426 57.935 14.5098C57.935 15.1775 57.3921 15.7205 56.7248 15.7205C56.0575 15.7205 55.5145 15.1775 55.5145 14.5098C55.5141 13.843 56.0571 13.2996 56.7248 13.2996Z" fill="#346EBA"/>
<path d="M67.3055 74.9806C65.9615 74.9806 64.8686 76.0739 64.8686 77.4175C64.8686 78.7614 65.9619 79.8547 67.3055 79.8547C68.649 79.8547 69.7423 78.7614 69.7423 77.4175C69.7427 76.0739 68.6494 74.9806 67.3055 74.9806ZM67.3052 78.6277C66.6379 78.6277 66.0949 78.0852 66.0949 77.4175C66.0949 76.7502 66.6379 76.2073 67.3052 76.2073C67.9724 76.2073 68.5154 76.7502 68.5154 77.4175C68.5158 78.0852 67.9724 78.6277 67.3052 78.6277Z" fill="#346EBA"/>
<path d="M5.58073 37.9208C5.58073 36.5769 4.48742 35.4835 3.14388 35.4835C1.80034 35.4835 0.707031 36.5769 0.707031 37.9208C0.707031 39.2644 1.80034 40.3577 3.14388 40.3577C4.48742 40.3577 5.58073 39.2644 5.58073 37.9208ZM3.14356 39.131C2.47629 39.131 1.93331 38.5881 1.93331 37.9208C1.93331 37.2531 2.47629 36.7105 3.14356 36.7105C3.81083 36.7105 4.35381 37.2531 4.35381 37.9208C4.35381 38.5881 3.81083 39.131 3.14356 39.131Z" fill="#346EBA"/>
<path d="M68.8371 0.873301C68.5975 0.633704 68.2095 0.633704 67.9699 0.873301L67.3039 1.53931L66.6378 0.873301C66.3982 0.633704 66.0098 0.633704 65.7706 0.873301C65.531 1.1129 65.531 1.5009 65.7706 1.7405L66.4367 2.40611L65.7706 3.07177C65.531 3.31136 65.531 3.69937 65.7706 3.93896C65.8904 4.05876 66.0474 4.11849 66.2044 4.11849C66.3614 4.11849 66.5184 4.05876 66.6382 3.93896L67.3043 3.27291L67.9703 3.93896C68.0901 4.05876 68.2471 4.11849 68.4041 4.11849C68.5611 4.11849 68.7182 4.05876 68.838 3.93896C69.0775 3.69937 69.0775 3.31136 68.838 3.07177L68.1719 2.40611L68.838 1.7405C69.0767 1.5009 69.0767 1.1129 68.8371 0.873301Z" fill="#346EBA"/>
<path d="M21.207 83.5141C21.3268 83.6339 21.4838 83.6936 21.6408 83.6936C21.7978 83.6936 21.9548 83.6339 22.0746 83.5141L22.7406 82.8481L23.4067 83.5141C23.5265 83.6339 23.6835 83.6936 23.8405 83.6936C23.9975 83.6936 24.1545 83.6339 24.2743 83.5141C24.5139 83.2745 24.5139 82.8865 24.2743 82.6469L23.6083 81.9809L24.2743 81.3148C24.5139 81.0752 24.5139 80.6872 24.2743 80.4476C24.0347 80.208 23.6463 80.208 23.4071 80.4476L22.7411 81.1137L22.075 80.4476C21.8354 80.208 21.4474 80.208 21.2078 80.4476C20.9682 80.6872 20.9682 81.0752 21.2078 81.3148L21.8738 81.9809L21.2078 82.6469C20.9674 82.8865 20.9674 83.2745 21.207 83.5141Z" fill="#346EBA"/>
<path d="M83.5268 50.3148C83.2873 50.0752 82.8992 50.0752 82.6596 50.3148L81.9936 50.9809L81.3275 50.3148C81.0879 50.0752 80.6995 50.0752 80.4603 50.3148C80.2207 50.5544 80.2207 50.9424 80.4603 51.182L81.1264 51.8477L80.4603 52.5133C80.2207 52.7529 80.2207 53.1409 80.4603 53.3805C80.5801 53.5003 80.7371 53.56 80.8941 53.56C81.0511 53.56 81.2082 53.5003 81.328 53.3805L81.994 52.7145L82.66 53.3805C82.7798 53.5003 82.9368 53.56 83.0938 53.56C83.2509 53.56 83.4079 53.5003 83.5277 53.3805C83.7673 53.1409 83.7673 52.7529 83.5277 52.5133L82.8616 51.8477L83.5277 51.182C83.7665 50.9424 83.7664 50.5544 83.5268 50.3148Z" fill="#346EBA"/>
<path d="M28.9153 7.36974C28.8867 7.32518 28.8499 7.27982 28.8131 7.24302C28.625 7.05494 28.3429 6.96497 28.0771 7.02222C28.0239 7.03039 27.9708 7.04674 27.9217 7.06718C27.8727 7.08763 27.8236 7.11177 27.7827 7.1408C27.7377 7.17351 27.6928 7.20622 27.656 7.24302C27.6192 7.27982 27.5865 7.32477 27.5537 7.36974C27.5251 7.41104 27.5006 7.46013 27.4802 7.50919C27.4597 7.55785 27.4434 7.61142 27.4352 7.66007C27.4229 7.71364 27.4188 7.76675 27.4188 7.82358C27.4188 8.04028 27.5006 8.24473 27.656 8.4001C27.8113 8.55547 28.0158 8.63722 28.2366 8.63722C28.4533 8.63722 28.6577 8.55547 28.8131 8.4001C28.8908 8.32241 28.9521 8.23245 28.993 8.13432C29.0339 8.0362 29.0543 7.92989 29.0543 7.82358C29.0543 7.76634 29.0461 7.71323 29.0379 7.66007C29.0257 7.61142 29.0093 7.55785 28.9889 7.50919C28.9684 7.46013 28.9439 7.41104 28.9153 7.36974Z" fill="#346EBA"/>
<path d="M11.1082 46.1718C11.055 46.1799 11.0019 46.1963 10.9528 46.2167C10.9037 46.2372 10.8547 46.2613 10.8138 46.294C10.7688 46.3227 10.7279 46.3554 10.687 46.3963C10.5357 46.5475 10.4499 46.756 10.4499 46.9727C10.4499 47.079 10.4703 47.1853 10.5112 47.2876C10.5521 47.3857 10.6134 47.4716 10.687 47.5496C10.8424 47.705 11.0468 47.7909 11.2676 47.7909C11.3208 47.7909 11.3739 47.7868 11.4271 47.7745C11.4802 47.7664 11.5293 47.75 11.5784 47.7296C11.6274 47.7091 11.6765 47.685 11.7215 47.6523C11.7623 47.6237 11.8073 47.591 11.8441 47.5501C11.9218 47.4724 11.9831 47.3865 12.024 47.288C12.0649 47.1857 12.0854 47.0795 12.0854 46.9732C12.0854 46.7565 11.9954 46.5479 11.8441 46.3967C11.656 46.2045 11.3739 46.1186 11.1082 46.1718Z" fill="#346EBA"/>
<path d="M26.5758 76.8283C26.5676 76.7751 26.5512 76.7261 26.5308 76.6774C26.5103 76.6283 26.4858 76.5793 26.4531 76.5339C26.4245 76.4893 26.3918 76.448 26.355 76.4112C26.3141 76.3744 26.2732 76.3376 26.2282 76.309C26.1832 76.2804 26.1383 76.2559 26.0892 76.2354C26.0401 76.2146 25.987 76.1986 25.9338 76.1864C25.8275 76.1659 25.7212 76.1659 25.6149 76.1864C25.5618 76.1986 25.5127 76.2146 25.4636 76.2354C25.4146 76.2559 25.3655 76.28 25.3205 76.309C25.2756 76.338 25.2347 76.3744 25.1979 76.4112C25.1611 76.448 25.1243 76.4889 25.0957 76.5339C25.067 76.5789 25.0425 76.6279 25.0221 76.6774C25.0016 76.7261 24.9853 76.7751 24.973 76.8283C24.9648 76.8818 24.9566 76.935 24.9566 76.9881C24.9566 77.2089 25.0425 77.4134 25.1979 77.5687C25.2756 77.646 25.3614 77.7037 25.4636 77.7446C25.5618 77.7859 25.6681 77.8059 25.7744 77.8059C25.8848 77.8059 25.9911 77.7855 26.0892 77.7446C26.1873 77.7037 26.2773 77.6464 26.355 77.5687C26.5062 77.4134 26.5921 77.2089 26.5921 76.9881C26.5921 76.935 26.588 76.8818 26.5758 76.8283Z" fill="#346EBA"/>
<path d="M78.5596 33.7708C78.4083 33.9221 78.3224 34.1306 78.3224 34.3473C78.3224 34.564 78.4083 34.7725 78.5596 34.9279C78.715 35.0792 78.9194 35.165 79.1402 35.165C79.3569 35.165 79.5613 35.0792 79.7167 34.9279C79.8721 34.7725 79.9579 34.5681 79.9579 34.3473C79.9579 34.1306 79.868 33.9221 79.7167 33.7708C79.41 33.4641 78.8662 33.4682 78.5596 33.7708Z" fill="#346EBA"/>
</svg>
