<svg width="86" height="74" viewBox="0 0 86 74" fill="none" xmlns="http://www.w3.org/2000/svg">
<path d="M11.347 50.7426V56.9166C11.347 57.9306 12.177 58.7616 13.192 58.7616H72.222C73.237 58.7616 74.067 57.9316 74.067 56.9166V50.7426H11.347Z" fill="#346EBA"/>
<path d="M72.222 15.6936H13.192C11.821 15.6936 10.707 16.8086 10.707 18.1786V56.9176C10.707 58.2876 11.821 59.4026 13.192 59.4026H34.688V62.7346H29.794C29.441 62.7346 29.154 63.0216 29.154 63.3746C29.154 63.7276 29.441 64.0146 29.794 64.0146H55.62C55.973 64.0146 56.26 63.7276 56.26 63.3746C56.26 63.0216 55.973 62.7346 55.62 62.7346H50.726V59.4026H72.222C73.592 59.4026 74.707 58.2876 74.707 56.9176V18.1786C74.707 16.8086 73.592 15.6936 72.222 15.6936ZM49.446 62.7336H35.968V59.4016H49.446V62.7336ZM73.427 56.9166C73.427 57.5806 72.887 58.1216 72.222 58.1216H13.192C12.528 58.1216 11.988 57.5816 11.988 56.9166V52.0226H73.428L73.427 56.9166ZM30.62 43.8876L28.704 41.2086C28.543 41.0116 28.557 40.7266 28.738 40.5466L31.943 37.3416C32.123 37.1626 32.407 37.1476 32.637 37.3346L35.284 39.2246C35.485 39.3686 35.753 39.3826 35.969 39.2626C36.913 38.7336 37.917 38.3166 38.953 38.0246C39.191 37.9566 39.37 37.7586 39.41 37.5136L39.951 34.2646C39.976 34.0166 40.191 33.8226 40.442 33.8226H44.974C45.229 33.8226 45.44 34.0126 45.47 34.3066L46.004 37.5136C46.045 37.7576 46.223 37.9566 46.461 38.0246C47.498 38.3176 48.503 38.7336 49.446 39.2626C49.662 39.3836 49.929 39.3696 50.131 39.2246L52.813 37.3076C53.009 37.1456 53.292 37.1616 53.472 37.3416L56.677 40.5466C56.857 40.7266 56.871 41.0106 56.684 41.2416L54.794 43.8876C54.65 44.0896 54.636 44.3556 54.756 44.5716C55.286 45.5186 55.702 46.5236 55.994 47.5566C56.061 47.7956 56.26 47.9736 56.505 48.0146L59.754 48.5546C60.006 48.5796 60.197 48.7906 60.197 49.0456V50.7436H53.47C53.171 45.0586 48.466 40.5206 42.707 40.5206C36.948 40.5206 32.243 45.0576 31.944 50.7436H25.218V49.0456C25.218 48.7906 25.408 48.5796 25.702 48.5496L28.909 48.0156C29.154 47.9746 29.353 47.7966 29.42 47.5576C29.714 46.5166 30.13 45.5126 30.658 44.5736C30.78 44.3566 30.765 44.0896 30.62 43.8876ZM52.189 50.7426H33.223C33.52 45.7636 37.653 41.7996 42.706 41.7996C47.759 41.7996 51.892 45.7636 52.189 50.7426ZM73.427 50.7426H61.476V49.0446C61.476 48.1296 60.79 47.3706 59.922 47.2856L57.11 46.8176C56.84 45.9546 56.491 45.1126 56.068 44.3056L57.7 42.0176C58.279 41.3096 58.229 40.2876 57.582 39.6406L54.377 36.4356C53.73 35.7886 52.708 35.7376 52.035 36.2916L49.713 37.9496C48.908 37.5266 48.067 37.1776 47.201 36.9076L46.738 34.1366C46.647 33.2266 45.889 32.5406 44.974 32.5406H40.442C39.526 32.5406 38.768 33.2266 38.683 34.0946L38.213 36.9076C37.349 37.1776 36.507 37.5266 35.702 37.9496L33.414 36.3166C32.706 35.7366 31.685 35.7876 31.037 36.4356L27.832 39.6396C27.185 40.2856 27.134 41.3076 27.687 41.9836L29.346 44.3036C28.924 45.1066 28.575 45.9476 28.304 46.8156L25.533 47.2786C24.623 47.3696 23.937 48.1276 23.937 49.0426V50.7406H11.987V18.1786C11.987 17.5146 12.527 16.9736 13.191 16.9736H72.222C72.886 16.9736 73.427 17.5136 73.427 18.1786V50.7426ZM39.3 54.7896C39.3 54.4366 39.587 54.1496 39.94 54.1496H45.474C45.827 54.1496 46.114 54.4366 46.114 54.7896C46.114 55.1426 45.827 55.4296 45.474 55.4296H39.94C39.586 55.4296 39.3 55.1436 39.3 54.7896Z" fill="#0D2B53"/>
<path d="M39.9532 5.8733C39.7136 5.6337 39.3256 5.6337 39.086 5.8733L38.42 6.53931L37.7539 5.8733C37.5143 5.6337 37.1259 5.6337 36.8867 5.8733C36.6471 6.1129 36.6471 6.5009 36.8867 6.7405L37.5528 7.40611L36.8867 8.07177C36.6471 8.31136 36.6471 8.69937 36.8867 8.93896C37.0065 9.05876 37.1635 9.11849 37.3205 9.11849C37.4775 9.11849 37.6346 9.05876 37.7544 8.93896L38.4204 8.27291L39.0864 8.93896C39.2062 9.05876 39.3632 9.11849 39.5202 9.11849C39.6772 9.11849 39.8343 9.05876 39.9541 8.93896C40.1937 8.69937 40.1937 8.31136 39.9541 8.07177L39.288 7.40611L39.9541 6.7405C40.1928 6.5009 40.1928 6.1129 39.9532 5.8733Z" fill="#346EBA"/>
<path d="M56.7259 5.56773C58.0699 5.56773 59.1628 4.47439 59.1628 3.13044C59.1628 1.7869 58.0695 0.693604 56.7259 0.693604C55.3824 0.693604 54.2891 1.7869 54.2891 3.13044C54.2887 4.47439 55.382 5.56773 56.7259 5.56773ZM56.7259 1.92021C57.3932 1.92021 57.9362 2.46317 57.9362 3.13044C57.9362 3.79812 57.3932 4.34112 56.7259 4.34112C56.0587 4.34112 55.5157 3.79812 55.5157 3.13044C55.5153 2.46358 56.0582 1.92021 56.7259 1.92021Z" fill="#346EBA"/>
<path d="M68.1439 68.6936C66.7999 68.6936 65.707 69.7869 65.707 71.1304C65.707 72.4744 66.8004 73.5677 68.1439 73.5677C69.4874 73.5677 70.5807 72.4744 70.5807 71.1304C70.5811 69.7869 69.4878 68.6936 68.1439 68.6936ZM68.1439 72.3411C67.4766 72.3411 66.9336 71.7981 66.9336 71.1304C66.9336 70.4632 67.4766 69.9202 68.1439 69.9202C68.8112 69.9202 69.3541 70.4632 69.3541 71.1304C69.3545 71.7981 68.8112 72.3411 68.1439 72.3411Z" fill="#346EBA"/>
<path d="M5.58073 26.5414C5.58073 25.1975 4.48742 24.1041 3.14388 24.1041C1.80034 24.1041 0.707031 25.1975 0.707031 26.5414C0.707031 27.885 1.80034 28.9783 3.14388 28.9783C4.48742 28.9783 5.58073 27.885 5.58073 26.5414ZM3.14388 27.7516C2.47661 27.7516 1.93364 27.2087 1.93364 26.5414C1.93364 25.8737 2.47661 25.3307 3.14388 25.3307C3.81115 25.3307 4.35413 25.8737 4.35413 26.5414C4.35413 27.2087 3.81115 27.7516 3.14388 27.7516Z" fill="#346EBA"/>
<path d="M21.2069 72.1348C21.3267 72.2546 21.4837 72.3142 21.6407 72.3142C21.7978 72.3142 21.9548 72.2546 22.0746 72.1348L22.7406 71.4687L23.4066 72.1348C23.5264 72.2546 23.6835 72.3142 23.8405 72.3142C23.9975 72.3142 24.1545 72.2546 24.2743 72.1348C24.5139 71.8952 24.5139 71.5072 24.2743 71.2676L23.6082 70.6015L24.2743 69.9354C24.5139 69.6959 24.5139 69.3078 24.2743 69.0682C24.0347 68.8286 23.6462 68.8286 23.4071 69.0682L22.741 69.7343L22.075 69.0682C21.8354 68.8286 21.4474 68.8286 21.2078 69.0682C20.9682 69.3078 20.9682 69.6959 21.2078 69.9354L21.8738 70.6015L21.2078 71.2676C20.9673 71.5072 20.9673 71.8952 21.2069 72.1348Z" fill="#346EBA"/>
<path d="M84.9532 36.8733C84.7136 36.6337 84.3256 36.6337 84.086 36.8733L83.42 37.5394L82.7539 36.8733C82.5143 36.6337 82.1259 36.6337 81.8867 36.8733C81.6471 37.1129 81.6471 37.5009 81.8867 37.7405L82.5528 38.4062L81.8867 39.0718C81.6471 39.3114 81.6471 39.6994 81.8867 39.939C82.0065 40.0588 82.1635 40.1185 82.3205 40.1185C82.4775 40.1185 82.6346 40.0588 82.7543 39.939L83.4204 39.273L84.0864 39.939C84.2062 40.0588 84.3632 40.1185 84.5202 40.1185C84.6772 40.1185 84.8343 40.0588 84.9541 39.939C85.1937 39.6994 85.1937 39.3114 84.9541 39.0718L84.288 38.4062L84.9541 37.7405C85.1928 37.5009 85.1928 37.1129 84.9532 36.8733Z" fill="#346EBA"/>
<path d="M26.5762 65.4489C26.568 65.3957 26.5516 65.3466 26.5312 65.298C26.5107 65.2489 26.4862 65.1999 26.4535 65.1545C26.4249 65.1099 26.3922 65.0686 26.3554 65.0318C26.3145 64.995 26.2736 64.9582 26.2286 64.9296C26.1836 64.901 26.1387 64.8765 26.0896 64.856C26.0405 64.8352 25.9874 64.8192 25.9342 64.807C25.8279 64.7865 25.7216 64.7865 25.6153 64.807C25.5622 64.8192 25.5131 64.8352 25.464 64.856C25.415 64.8765 25.3659 64.9006 25.3209 64.9296C25.276 64.9586 25.2351 64.995 25.1983 65.0318C25.1615 65.0686 25.1247 65.1095 25.0961 65.1545C25.0674 65.1995 25.0429 65.2485 25.0225 65.298C25.002 65.3466 24.9857 65.3957 24.9734 65.4489C24.9652 65.5024 24.957 65.5556 24.957 65.6087C24.957 65.8295 25.0429 66.034 25.1983 66.1893C25.276 66.2666 25.3618 66.3243 25.464 66.3652C25.5622 66.4065 25.6685 66.4265 25.7748 66.4265C25.8852 66.4265 25.9915 66.4061 26.0896 66.3652C26.1877 66.3243 26.2777 66.267 26.3554 66.1893C26.5066 66.034 26.5925 65.8295 26.5925 65.6087C26.5925 65.5556 26.5884 65.5024 26.5762 65.4489Z" fill="#346EBA"/>
<path d="M78.5614 22.3914C78.4101 22.5427 78.3242 22.7512 78.3242 22.9679C78.3242 23.1846 78.4101 23.3931 78.5614 23.5485C78.7167 23.6998 78.9212 23.7857 79.142 23.7857C79.3587 23.7857 79.5631 23.6998 79.7185 23.5485C79.8738 23.3931 79.9597 23.1887 79.9597 22.9679C79.9597 22.7512 79.8698 22.5427 79.7185 22.3914C79.4118 22.0848 78.868 22.0889 78.5614 22.3914Z" fill="#346EBA"/>
<path d="M66.2073 25.6936C57.6849 19.7366 66.2074 10.1936 70.707 13.6936V66.6936L53.2073 66.1936C52.2079 66.6936 60.2073 24.1936 66.2073 25.6936Z" fill="white"/>
<path d="M74.707 25.0021C77.207 25.0021 76.707 13.1936 70.207 13.6936L69.707 65.6936H80.707C80.0522 54.6747 79.707 25.0021 74.707 25.0021Z" fill="white"/>
<path d="M67.4816 28.4301C68.9901 28.4301 70.2131 27.2071 70.2131 25.6985C70.2131 24.1899 68.9901 22.967 67.4816 22.967C65.973 22.967 64.75 24.1899 64.75 25.6985C64.75 27.2071 65.973 28.4301 67.4816 28.4301Z" fill="#346EBA"/>
<path d="M78.1619 55.2263C78.2437 55.0991 78.2702 54.9432 78.2331 54.7963L71.9092 29.8353C71.9039 29.8148 71.8903 29.7997 71.8827 29.78C72.8745 28.708 73.4862 27.2801 73.4862 25.7084C73.4862 23.1071 71.8229 20.8237 69.3896 20.0114V16.6045C69.3889 15.5506 68.5318 14.6936 67.478 14.6936C66.4249 14.6936 65.5679 15.5506 65.5679 16.6037V20.0106C63.1346 20.8229 61.4713 23.1063 61.4713 25.7076C61.4713 27.2793 62.083 28.708 63.074 29.7792C63.0665 29.7989 63.0528 29.8141 63.0475 29.8345L56.7236 54.7955C56.6865 54.9424 56.7123 55.0984 56.7948 55.2255C56.8773 55.3527 57.009 55.4398 57.1582 55.4663L58.3937 55.6843L56.9447 62.4875C56.8826 62.782 57.0704 63.0712 57.3649 63.134C57.4012 63.1431 57.4391 63.1469 57.4769 63.1469C57.729 63.1469 57.9546 62.9713 58.0099 62.7154L59.4673 55.8751L60.7437 56.1C60.7755 56.1053 60.8073 56.1083 60.8391 56.1083C61.0837 56.1083 61.3047 55.9425 61.3668 55.6972L63.844 45.9187H71.112L73.5891 55.6972C73.6512 55.9425 73.8723 56.1083 74.1168 56.1083C74.1479 56.1083 74.1804 56.1053 74.2122 56.1L75.6196 55.8517L77.0664 62.5799C77.1209 62.8357 77.3473 63.0106 77.5987 63.0106C77.6365 63.0106 77.6751 63.0068 77.7137 62.9985C78.0082 62.9349 78.1952 62.645 78.1324 62.3512L76.6939 55.6624L77.7985 55.4678C77.9477 55.4413 78.0794 55.3543 78.1619 55.2263ZM67.478 15.7838C67.9307 15.7838 68.2987 16.1517 68.2987 16.6037V19.71C68.0791 19.6858 67.8111 19.6707 67.478 19.6707C67.1449 19.6707 66.8769 19.6858 66.6581 19.71V16.6037C66.6581 16.1517 67.0252 15.7838 67.478 15.7838ZM66.2591 20.9433C66.2644 20.9418 66.2682 20.938 66.2735 20.9365C66.3242 20.9221 66.3711 20.8994 66.4158 20.8706C66.4241 20.8653 66.434 20.8631 66.4415 20.8578C66.4423 20.857 66.443 20.857 66.4438 20.8563C66.5097 20.8335 66.7724 20.7609 67.478 20.7609C68.1836 20.7609 68.447 20.8335 68.5129 20.857C68.5137 20.8578 68.5144 20.8578 68.5152 20.8578C68.5243 20.8646 68.5356 20.8669 68.5455 20.8729C68.5894 20.9009 68.6356 20.9236 68.6855 20.9373C68.6901 20.9388 68.6939 20.9418 68.6984 20.9433C70.8758 21.4983 72.396 23.4576 72.396 25.7084C72.396 28.4195 70.1899 30.6257 67.4787 30.6257C64.7676 30.6257 62.5615 28.4195 62.5615 25.7084C62.5607 23.4576 64.0817 21.4983 66.2591 20.9433ZM60.4341 54.9386L57.9244 54.4957L63.9825 30.584C64.676 31.0822 65.4763 31.438 66.3454 31.6053L60.4341 54.9386ZM64.1203 44.8285L67.4432 31.7136C67.4553 31.7136 67.4666 31.7151 67.478 31.7151C67.4901 31.7151 67.5014 31.7136 67.5136 31.7136L70.8356 44.8285H64.1203ZM74.5219 54.9386L68.6113 31.6053C69.4805 31.4388 70.2807 31.0829 70.9742 30.5848L77.0324 54.4965L74.5219 54.9386ZM67.478 28.9752C69.2844 28.9752 70.7546 27.5057 70.7546 25.6986C70.7546 23.8922 69.2851 22.4227 67.478 22.4227C65.6716 22.4227 64.2021 23.8922 64.2021 25.6986C64.2021 27.505 65.6716 28.9752 67.478 28.9752ZM67.478 23.5129C68.684 23.5129 69.6644 24.4933 69.6644 25.6986C69.6644 26.9038 68.684 27.885 67.478 27.885C66.2727 27.885 65.2923 26.9046 65.2923 25.6986C65.2923 24.4925 66.2727 23.5129 67.478 23.5129Z" fill="#0D2B53"/>
<path d="M57.7179 70.3749C57.7179 69.9235 57.3516 69.5571 56.9002 69.5571H37.5248C37.0734 69.5571 36.707 69.9235 36.707 70.3749C36.707 70.8263 37.0734 71.1926 37.5248 71.1926H56.9002C57.3516 71.1926 57.7179 70.8267 57.7179 70.3749Z" fill="#0D2B53"/>
<path d="M61.121 71.1926C61.5724 71.1926 61.9387 70.8263 61.9387 70.3749C61.9387 69.9235 61.5724 69.5571 61.121 69.5571H60.1732C59.7218 69.5571 59.3555 69.9235 59.3555 70.3749C59.3555 70.8263 59.7218 71.1926 60.1732 71.1926H61.121Z" fill="#0D2B53"/>
<path d="M66.9077 65.6936H64.5248C64.0734 65.6936 63.707 66.0599 63.707 66.5113C63.707 66.9627 64.0734 67.3291 64.5248 67.3291H66.9077C67.359 67.3291 67.7254 66.9627 67.7254 66.5113C67.7254 66.0599 67.3595 65.6936 66.9077 65.6936Z" fill="#0D2B53"/>
</svg>
