<svg width="59" height="75" viewBox="0 0 59 75" fill="none" xmlns="http://www.w3.org/2000/svg">
<path d="M44.3718 23.6411V32.2651C44.3718 34.1497 43.0829 35.7898 41.2517 36.2352L36.337 37.4308C31.9474 38.4986 27.3658 38.4986 22.9763 37.4308L18.0616 36.2352C16.2304 35.7898 14.9414 34.1497 14.9414 32.2651V23.6411H44.3718Z" fill="#346EBA"/>
<path d="M25.3479 37.4308L20.4332 36.2352C18.6021 35.7898 17.313 34.1497 17.313 32.2651V23.6411H14.9414V32.2651C14.9414 34.1497 16.2303 35.7898 18.0616 36.2352L22.9763 37.4308C25.558 38.0588 28.206 38.3145 30.8424 38.2037C28.9963 38.1262 27.1557 37.8707 25.3479 37.4308V37.4308Z" fill="#346EBA"/>
<path d="M33.0774 41.0758V35.7004H26.2311V41.0758C26.2311 41.7847 25.7888 42.4183 25.1234 42.6628L21.8984 43.8474V54.4271H37.41V43.8474L34.1851 42.6628C33.5196 42.4183 33.0774 41.7847 33.0774 41.0758Z" fill="white"/>
<path d="M29.7785 39.6606H29.5274C24.2958 39.6606 20.0547 35.4194 20.0547 30.1879V19.5869C20.0547 18.774 20.7138 18.1149 21.5267 18.1149H37.7792C38.5921 18.1149 39.2512 18.774 39.2512 19.5869V30.1879C39.2512 35.4194 35.0102 39.6606 29.7785 39.6606Z" fill="white"/>
<path d="M24.1713 18.1149H21.5267C20.7138 18.1149 20.0547 18.774 20.0547 19.5869V30.1879C20.0547 35.4194 24.2958 39.6606 29.5274 39.6606H29.7785C30.1552 39.6606 30.5261 39.6362 30.8914 39.5933C30.9154 39.581 30.9401 39.5724 30.9655 39.5689H30.9656C26.286 38.9286 22.68 34.9178 22.68 30.0624V19.6064C22.68 18.7827 23.3477 18.115 24.1713 18.1149V18.1149Z" fill="white"/>
<path d="M44.3716 23.4957V24.0505H34.9939C33.0332 24.0505 31.1348 23.3606 29.6316 22.1015L26.4264 19.417C26.058 19.1085 25.5028 19.1902 25.2391 19.5919L24.7852 20.2831C23.2413 22.6344 20.6172 24.0504 17.8043 24.0504H14.9414V23.4956C14.9414 17.929 19.454 13.4163 25.0207 13.4163H34.2925C39.859 13.4164 44.3716 17.929 44.3716 23.4957Z" fill="#346EBA"/>
<path d="M28.799 19.417C28.4306 19.1085 27.8754 19.1902 27.6117 19.592L27.2656 20.1191L29.6327 22.1016C31.1359 23.3607 33.0343 24.0506 34.995 24.0506H37.3667C35.4059 24.0506 33.5075 23.3607 32.0043 22.1016L28.799 19.417Z" fill="#346EBA"/>
<path d="M34.2925 13.4164H25.0207C19.4541 13.4164 14.9414 17.929 14.9414 23.4957V24.0505H17.313V23.4957C17.313 21.6778 17.7956 19.9736 18.6384 18.5015C19.0929 17.7076 19.9414 17.2212 20.8563 17.2212H42.1777C40.331 14.9035 37.4863 13.4164 34.2925 13.4164V13.4164Z" fill="#346EBA"/>
<path d="M49.742 62.8393L48.5061 55.6799C48.4198 55.1792 47.9442 54.8429 47.4429 54.9298C46.9422 55.0163 46.6064 55.4921 46.6928 55.993L47.9287 63.1524C48.0075 63.6086 47.8816 64.0734 47.5834 64.4275C47.2852 64.7816 46.8486 64.9847 46.3856 64.9847H42.4821L41.6348 60.5033C41.5403 60.004 41.059 59.6758 40.5598 59.77C40.0605 59.8645 39.7323 60.3457 39.8266 60.845L40.6092 64.9846H18.6981L19.4808 60.845C19.5752 60.3457 19.2469 59.8644 18.7475 59.77C18.2482 59.6757 17.767 60.004 17.6726 60.5033L16.8254 64.9846H12.9219C12.4589 64.9846 12.0223 64.7814 11.7241 64.4274C11.4259 64.0733 11.2999 63.6086 11.3788 63.1522L13.6217 50.1592C13.8737 48.7 14.891 47.4694 16.2767 46.9474L18.4143 46.1423L23.6388 53.3895C23.9985 53.8883 24.5556 54.2113 25.1671 54.2757C25.2425 54.2836 25.3178 54.2876 25.3928 54.2876C25.927 54.2876 26.4468 54.0892 26.8463 53.727L29.6538 51.1818L32.4613 53.7272C32.8607 54.0895 33.3804 54.2878 33.9148 54.2878C33.9899 54.2878 34.0652 54.2839 34.1405 54.2759C34.752 54.2115 35.3091 53.8886 35.6688 53.3896L40.8934 46.1426L43.0309 46.9477C44.4166 47.4695 45.4339 48.7003 45.6859 50.1595L46.0702 52.3862C46.1566 52.8869 46.6326 53.2231 47.1334 53.1363C47.6342 53.0498 47.9699 52.574 47.8836 52.0731L47.4992 49.8464C47.1367 47.7471 45.6731 45.9766 43.6796 45.2257L34.502 41.7991C34.2 41.6882 33.9971 41.3975 33.9971 41.0757V39.6828C37.6314 38.0621 40.1722 34.4172 40.1722 30.1878V24.9705H41.0279C41.536 24.9705 41.948 24.5586 41.948 24.0505C41.948 23.5424 41.536 23.1305 41.0279 23.1305H34.9913C33.2496 23.1305 31.555 22.5145 30.2197 21.3962L27.0145 18.7117C26.6378 18.3962 26.1429 18.2565 25.6567 18.3279C25.1705 18.3995 24.737 18.6761 24.4674 19.0869L24.0135 19.7781C22.7238 21.7421 20.5536 22.9911 18.2082 23.1194C17.7008 23.1471 17.312 23.5809 17.3398 24.0883C17.3675 24.5956 17.8021 24.9855 18.3086 24.9567C18.5865 24.9415 18.8624 24.9135 19.1356 24.8736V30.1879C19.1356 34.4172 21.6765 38.0622 25.3106 39.6829V41.0759C25.3106 41.3976 25.1077 41.6884 24.8057 41.7993L15.6281 45.2258C13.6346 45.9767 12.1709 47.7472 11.8085 49.8465L9.56557 62.8393C9.39432 63.8316 9.668 64.8425 10.3167 65.6128C10.9654 66.3829 11.915 66.8247 12.9219 66.8247H46.3856C47.3925 66.8247 48.3421 66.3829 48.9908 65.6128C49.6395 64.8425 49.9133 63.8316 49.742 62.8393V62.8393ZM25.6104 52.364C25.5173 52.4484 25.4133 52.4517 25.3597 52.4458C25.3059 52.4402 25.205 52.4155 25.1315 52.3136L20.1983 45.4706L21.7165 44.8988L27.9907 50.2057L25.6104 52.364ZM34.1761 52.3136C34.1026 52.4156 34.0017 52.4403 33.9479 52.4459C33.8942 52.4517 33.7903 52.4484 33.6972 52.3641L31.3167 50.2058L37.591 44.8989L39.1092 45.4707L34.1761 52.3136ZM20.9756 30.1878V24.407C22.8283 23.7288 24.4484 22.4683 25.5515 20.788L25.9334 20.2064L29.0381 22.8068C30.7041 24.2021 32.8182 24.9705 34.9913 24.9705H38.332V30.1878C38.332 34.9037 34.4953 38.7404 29.7793 38.7404H29.5282C24.8123 38.7404 20.9756 34.9037 20.9756 30.1878V30.1878ZM25.4402 43.5263C26.4634 43.1506 27.1507 42.1657 27.1507 41.0757V40.3029C27.9148 40.4825 28.7101 40.5805 29.5282 40.5805H29.7793C30.5974 40.5805 31.3927 40.4825 32.1568 40.3029V41.0757C32.1568 42.1657 32.8442 43.1506 33.8673 43.5263L35.6083 44.1658L30.0341 48.8806C30.0072 48.9033 29.9788 48.923 29.9493 48.9402C29.86 48.992 29.7581 49.0198 29.6538 49.0198C29.5495 49.0198 29.4476 48.992 29.3584 48.9403C29.3288 48.9232 29.3004 48.9033 29.2734 48.8806L23.6992 44.1658L25.4402 43.5263Z" fill="#0D2B53"/>
<path d="M17.8422 37.1291C17.9153 37.1469 17.9885 37.1554 18.0605 37.1554C18.475 37.1554 18.8513 36.8732 18.9538 36.4526C19.0739 35.9588 18.771 35.4612 18.2772 35.3411C16.8537 34.9948 15.8596 33.7298 15.8596 32.2648V26.3556V23.4955C15.8596 20.3061 17.4997 17.4942 19.9795 15.8537H39.3298C41.8097 17.4941 43.4497 20.3061 43.4497 23.4955V26.3556V32.2648C43.4497 33.7298 42.4556 34.9948 41.0321 35.3411C40.5385 35.4612 40.2355 35.9588 40.3556 36.4526C40.4579 36.8732 40.8342 37.1554 41.2489 37.1554C41.3207 37.1554 41.394 37.1468 41.4671 37.1291C43.7179 36.5817 45.2898 34.5814 45.2898 32.265V26.3557V23.4956C45.2898 19.8798 43.5353 16.6668 40.8336 14.6607L42.3704 11.9942C43.1998 10.5552 42.8027 8.74081 41.4468 7.77379C40.6555 7.20938 39.8029 6.69318 38.9128 6.23966C38.4602 6.00904 37.9059 6.18887 37.6753 6.64165C37.4447 7.09443 37.6246 7.64842 38.0773 7.87917C38.8867 8.29159 39.6609 8.76019 40.3784 9.27186C40.959 9.686 41.13 10.4614 40.7762 11.0754L39.0826 14.0137H20.2289L18.534 11.0754C18.1797 10.4613 18.3506 9.68575 18.9314 9.27149C20.7197 7.99619 24.4907 5.8568 29.6548 5.8568C31.2866 5.8568 32.9046 6.06939 34.464 6.48856C34.9546 6.62043 35.4595 6.3297 35.5914 5.83901C35.7234 5.34833 35.4325 4.84353 34.9418 4.71166C33.2266 4.25054 31.4478 4.01672 29.6548 4.01672C23.9783 4.01672 19.8304 6.37043 17.8631 7.7733C16.5066 8.74069 16.1099 10.5555 16.9401 11.9948L18.4769 14.659C15.7744 16.6649 14.0195 19.879 14.0195 23.4956V26.3557V32.265C14.0195 34.5814 15.5914 36.5815 17.8422 37.1291V37.1291Z" fill="#0D2B53"/>
<path d="M27.0917 27.4568C27.0917 26.9487 26.6797 26.5367 26.1716 26.5367H25.4005C24.8924 26.5367 24.4805 26.9487 24.4805 27.4568C24.4805 27.9649 24.8924 28.3768 25.4005 28.3768H26.1716C26.6797 28.3768 27.0917 27.9649 27.0917 27.4568Z" fill="#0D2B53"/>
<path d="M33.1349 28.3768H33.9059C34.414 28.3768 34.8259 27.9649 34.8259 27.4568C34.8259 26.9487 34.414 26.5367 33.9059 26.5367H33.1349C32.6268 26.5367 32.2148 26.9487 32.2148 27.4568C32.2148 27.9649 32.6268 28.3768 33.1349 28.3768Z" fill="#0D2B53"/>
<path d="M29.6523 12.3767C30.1605 12.3767 30.5724 11.9648 30.5724 11.4567V10.8553H31.1737C31.6818 10.8553 32.0938 10.4434 32.0938 9.93531C32.0938 9.4272 31.6818 9.01527 31.1737 9.01527H30.5724V8.41393C30.5724 7.90583 30.1605 7.4939 29.6523 7.4939C29.1442 7.4939 28.7323 7.90583 28.7323 8.41393V9.01527H28.131C27.6229 9.01527 27.2109 9.4272 27.2109 9.93531C27.2109 10.4434 27.6229 10.8553 28.131 10.8553H28.7323V11.4567C28.7323 11.9648 29.1442 12.3767 29.6523 12.3767Z" fill="#0D2B53"/>
<path d="M30.5745 54.0825C30.5745 53.5744 30.1625 53.1625 29.6544 53.1625C29.1463 53.1625 28.7344 53.5744 28.7344 54.0825V54.7197C28.7344 55.2278 29.1463 55.6397 29.6544 55.6397C30.1625 55.6397 30.5745 55.2278 30.5745 54.7197V54.0825Z" fill="#0D2B53"/>
<path d="M30.5745 57.915C30.5745 57.4069 30.1625 56.995 29.6544 56.995C29.1463 56.995 28.7344 57.4069 28.7344 57.915V58.5522C28.7344 59.0603 29.1463 59.4722 29.6544 59.4722C30.1625 59.4722 30.5745 59.0603 30.5745 58.5522V57.915Z" fill="#0D2B53"/>
<path d="M29.6544 61.0133C29.1463 61.0133 28.7344 61.4252 28.7344 61.9333V62.5705C28.7344 63.0786 29.1463 63.4905 29.6544 63.4905C30.1625 63.4905 30.5745 63.0786 30.5745 62.5705V61.9333C30.5745 61.4252 30.1625 61.0133 29.6544 61.0133Z" fill="#0D2B53"/>
<path d="M32.2609 34.6745L32.486 34.5526C32.9329 34.3106 33.0989 33.7523 32.8569 33.3054C32.6148 32.8585 32.0564 32.6925 31.6097 32.9345L31.3846 33.0565C30.3022 33.6426 29.0099 33.6426 27.9273 33.0565L27.7022 32.9345C27.2552 32.6924 26.697 32.8585 26.455 33.3054C26.213 33.7522 26.3789 34.3106 26.8258 34.5526L27.0509 34.6746C27.8665 35.1163 28.7612 35.3371 29.6559 35.3371C30.5506 35.3371 31.4454 35.1163 32.2609 34.6745V34.6745Z" fill="#0D2B53"/>
<path d="M54.0587 0.771861C53.8191 0.532264 53.4311 0.532264 53.1915 0.771861L52.5255 1.43787L51.8594 0.771861C51.6198 0.532264 51.2314 0.532264 50.9922 0.771861C50.7526 1.01146 50.7526 1.39946 50.9922 1.63906L51.6582 2.30467L50.9922 2.97033C50.7526 3.20992 50.7526 3.59793 50.9922 3.83752C51.112 3.95732 51.269 4.01705 51.426 4.01705C51.583 4.01705 51.74 3.95732 51.8598 3.83752L52.5259 3.17147L53.1919 3.83752C53.3117 3.95732 53.4687 4.01705 53.6257 4.01705C53.7827 4.01705 53.9397 3.95732 54.0595 3.83752C54.2991 3.59793 54.2991 3.20992 54.0595 2.97033L53.3935 2.30467L54.0595 1.63906C54.2983 1.39946 54.2983 1.01146 54.0587 0.771861Z" fill="#346EBA"/>
<path d="M58.7631 22.7231C58.6082 22.5796 58.3573 22.5796 58.2024 22.7231L57.7717 23.122L57.341 22.7231C57.1861 22.5796 56.9349 22.5796 56.7803 22.7231C56.6253 22.8666 56.6253 23.099 56.7803 23.2425L57.2109 23.6412L56.7803 24.0399C56.6253 24.1834 56.6253 24.4158 56.7803 24.5593C56.8577 24.6311 56.9592 24.6668 57.0608 24.6668C57.1623 24.6668 57.2638 24.6311 57.3413 24.5593L57.772 24.1604L58.2026 24.5593C58.2801 24.6311 58.3816 24.6668 58.4831 24.6668C58.5847 24.6668 58.6862 24.6311 58.7637 24.5593C58.9186 24.4158 58.9186 24.1834 58.7637 24.0399L58.333 23.6412L58.7637 23.2425C58.9181 23.099 58.9181 22.8666 58.7631 22.7231Z" fill="#346EBA"/>
<path d="M2.85527 59.5842C2.70594 59.4348 2.4641 59.4348 2.31476 59.5842L1.89965 59.9993L1.48453 59.5842C1.33519 59.4348 1.09311 59.4348 0.94403 59.5842C0.794698 59.7335 0.794698 59.9753 0.94403 60.1247L1.35915 60.5395L0.94403 60.9544C0.794698 61.1037 0.794698 61.3455 0.94403 61.4949C1.0187 61.5695 1.11655 61.6068 1.2144 61.6068C1.31226 61.6068 1.41012 61.5695 1.48479 61.4949L1.8999 61.0798L2.31503 61.4949C2.3897 61.5695 2.48755 61.6068 2.5854 61.6068C2.68326 61.6068 2.78112 61.5695 2.85579 61.4949C3.00512 61.3455 3.00512 61.1037 2.85579 60.9544L2.44066 60.5395L2.85579 60.1247C3.00461 59.9753 3.00461 59.7335 2.85527 59.5842Z" fill="#346EBA"/>
<path d="M53.8021 36.085C53.8021 34.9795 52.9027 34.0801 51.7975 34.0801C50.6923 34.0801 49.793 34.9795 49.793 36.085C49.793 37.1902 50.6923 38.0895 51.7975 38.0895C52.9027 38.0895 53.8021 37.1902 53.8021 36.085ZM51.7975 37.0805C51.2486 37.0805 50.802 36.6339 50.802 36.085C50.802 35.5358 51.2486 35.0891 51.7975 35.0891C52.3464 35.0891 52.7931 35.5358 52.7931 36.085C52.7931 36.6339 52.3464 37.0805 51.7975 37.0805Z" fill="#346EBA"/>
<path d="M4.62774 15.6779C4.62774 14.7627 3.88316 14.0181 2.96817 14.0181C2.05317 14.0181 1.30859 14.7627 1.30859 15.6779C1.30859 16.5929 2.05317 17.3375 2.96817 17.3375C3.88316 17.3375 4.62774 16.5929 4.62774 15.6779ZM2.96817 16.5021C2.51373 16.5021 2.14395 16.1324 2.14395 15.6779C2.14395 15.2232 2.51373 14.8534 2.96817 14.8534C3.4226 14.8534 3.79238 15.2232 3.79238 15.6779C3.79238 16.1324 3.4226 16.5021 2.96817 16.5021Z" fill="#346EBA"/>
<circle cx="7.93945" cy="46.6438" r="1.58008" fill="#346EBA"/>
<path d="M30.2266 69.957H48.2773" stroke="#0D2B53" stroke-width="1.5" stroke-linecap="round"/>
<path d="M13.4492 73.7662H31.5" stroke="#0D2B53" stroke-width="1.5" stroke-linecap="round"/>
<path d="M26.2969 69.957L27.8867 69.957" stroke="#0D2B53" stroke-width="1.5" stroke-linecap="round"/>
<path d="M9.51953 73.7662L11.1094 73.7662" stroke="#0D2B53" stroke-width="1.5" stroke-linecap="round"/>
</svg>
