<svg width="488" height="227" viewBox="0 0 488 227" fill="none" xmlns="http://www.w3.org/2000/svg">
<g clip-path="url(#clip0_494_353)">
<path opacity="0.85" d="M2.75281 0H2.06741L7.6244 3.23272V77.5913L-1 82.6156V83.012L7.87951 77.8402L7.96249 77.7911V3.03605L2.75281 0Z" fill="white" fill-opacity="0.5"/>
<path opacity="0.97" d="M7.79452 87.2086L-0.375 82.4487V72.9318L7.79452 68.1719L15.9671 72.9318V82.4487L7.79452 87.2086ZM-0.033835 82.2489L7.79452 86.8092L15.6259 82.2489V73.1316L7.79452 68.5714L-0.033835 73.1316V82.2489Z" fill="white" fill-opacity="0.5"/>
<path opacity="0.72" d="M12.8362 0L7.79245 2.93772L2.75181 0H2.06641L7.79245 3.33412L13.5185 0H12.8362Z" fill="white" fill-opacity="0.5"/>
<path opacity="0.84" d="M7.79345 2.9375L-1 8.06006V8.45647L7.79345 3.33391L39.6263 21.8729V58.9538L7.79345 77.4897L-1 72.3702V72.7697L7.70739 77.84L7.79345 77.8892L39.8814 59.1997L39.9675 59.1505V21.6731L7.79345 2.9375Z" fill="white" fill-opacity="0.5"/>
<path opacity="0.99" d="M71.799 115.167L39.625 96.4287V58.9544L71.799 40.2188L103.973 58.9544V96.4287L71.799 115.167ZM39.9662 96.2289L71.799 114.771L103.629 96.2289V59.1541L71.799 40.6152L39.9662 59.1541V96.2289Z" fill="white" fill-opacity="0.5"/>
<path opacity="0.94" d="M71.799 115.167L39.625 96.4287V58.9544L71.799 40.2188L103.973 58.9544V96.4287L71.799 115.167ZM39.9662 96.2289L71.799 114.771L103.629 96.2289V59.1541L71.799 40.6152L39.9662 59.1541V96.2289Z" fill="white" fill-opacity="0.5"/>
<path opacity="0.98" d="M76.844 0L71.7972 2.93772L66.7565 0H66.0742L71.7972 3.33412L77.5232 0H76.844Z" fill="white" fill-opacity="0.5"/>
<path opacity="0.77" d="M71.799 77.8892L71.716 77.84L39.625 59.1536V21.6731L71.799 2.9375L103.973 21.6731V59.1505L103.89 59.1997L71.799 77.8861V77.8892ZM39.9662 58.9538L71.799 77.4928L103.629 58.9538V21.8729L71.799 3.33391L39.9662 21.8729V58.9508V58.9538Z" fill="white" fill-opacity="0.5"/>
<path opacity="0.63" d="M76.844 0L71.7972 2.93772L66.7565 0H66.0742L71.7972 3.33412L77.5232 0H76.844Z" fill="white" fill-opacity="0.5"/>
<path opacity="0.67" d="M151.638 0V12.3562L135.806 21.5781L119.974 12.3562V0H119.633V12.556L135.806 21.9745L151.979 12.556V0H151.638Z" fill="white" fill-opacity="0.5"/>
<path opacity="0.95" d="M167.637 0V21.6733L135.804 40.2154L103.971 21.6733V0H103.633V21.8731L135.804 40.6118L167.975 21.8731V0H167.637Z" fill="white" fill-opacity="0.5"/>
<path opacity="0.53" d="M135.805 87.2086L127.633 82.4487V72.9318L135.805 68.1719L143.975 72.9318V82.4487L135.805 87.2086ZM127.977 82.2489L135.805 86.8092L143.637 82.2489V73.1316L135.805 68.5714L127.977 73.1316V82.2489Z" fill="white" fill-opacity="0.5"/>
<path opacity="0.52" d="M71.799 77.8892L71.716 77.84L39.625 59.1536V21.6731L71.799 2.9375L103.973 21.6731V59.1505L103.89 59.1997L71.799 77.8861V77.8892ZM39.9662 58.9538L71.799 77.4928L103.629 58.9538V21.8729L71.799 3.33391L39.9662 21.8729V58.9508V58.9538Z" fill="white" fill-opacity="0.5"/>
<path opacity="0.9" d="M207.638 0V7.69768L199.806 12.2579L191.978 7.69768V0H191.637V7.89434L199.806 12.6574L207.979 7.89434V0H207.638Z" fill="white" fill-opacity="0.5"/>
<path opacity="0.52" d="M199.809 87.2086L191.637 82.4487V72.9318L199.809 68.1719L207.982 72.9318V82.4487L199.809 87.2086ZM191.978 82.2489L199.809 86.8092L207.638 82.2489V73.1316L199.809 68.5714L191.978 73.1316V82.2489Z" fill="white" fill-opacity="0.5"/>
<path opacity="0.64" d="M135.805 189.722L135.719 189.673L71.6289 152.346V77.5908L71.715 77.5417L135.805 40.2148L135.888 40.264L199.978 77.5908V152.343L199.895 152.395L135.805 189.719V189.722ZM71.9701 152.146L135.805 189.322L199.636 152.146V77.7906L135.805 40.6143L71.9701 77.7906V152.146Z" fill="white" fill-opacity="0.5"/>
<path opacity="0.52" d="M135.803 77.8892L135.717 77.84L103.629 59.1536V21.6731L135.803 2.9375L167.971 21.6731V59.1505L167.888 59.1997L135.8 77.8861L135.803 77.8892ZM103.967 58.9538L135.803 77.4928L167.636 58.9538V21.8729L135.803 3.33391L103.967 21.8729V58.9508V58.9538Z" fill="white" fill-opacity="0.5"/>
<path opacity="0.51" d="M199.807 96.5264L183.637 87.1079V68.274L199.807 58.8555L215.977 68.274V87.1079L199.807 96.5264ZM183.972 86.9082L199.807 96.13L215.636 86.9082V68.4676L199.807 59.2519L183.972 68.4676V86.9082Z" fill="white" fill-opacity="0.5"/>
<path opacity="0.58" d="M295.644 0V21.6733L263.812 40.2154L231.982 21.6733V0H231.641V21.8731L263.812 40.6118L295.903 21.9253L295.986 21.8731V0H295.644Z" fill="white" fill-opacity="0.5"/>
<path opacity="0.99" d="M199.808 77.8892L199.722 77.84L167.637 59.1536V21.6731L199.811 2.9375L231.982 21.6731V59.1505L231.896 59.1997L199.811 77.8861L199.808 77.8892ZM167.975 58.9538L199.808 77.4928L231.637 58.9538V21.8729L199.808 3.33391L167.975 21.8729V58.9508V58.9538Z" fill="white" fill-opacity="0.5"/>
<path opacity="0.98" d="M143.634 0V7.69768L135.802 12.2579L127.974 7.69768V0H127.633V7.89434L135.802 12.6574L143.972 7.89434V0H143.634Z" fill="white" fill-opacity="0.5"/>
<path opacity="0.97" d="M295.644 0V21.6733L263.812 40.2154L231.982 21.6733V0H231.641V21.8731L263.812 40.6118L295.903 21.9253L295.986 21.8731V0H295.644Z" fill="white" fill-opacity="0.5"/>
<path opacity="0.96" d="M135.804 115.167L103.633 96.4287V58.9544L135.804 40.2188L167.972 58.9544V96.4287L135.804 115.167ZM103.968 96.2289L135.804 114.771L167.637 96.2289V59.1541L135.804 40.6152L103.968 59.1541V96.2289Z" fill="white" fill-opacity="0.5"/>
<path opacity="0.63" d="M135.804 115.167L103.633 96.4287V58.9544L135.804 40.2188L167.972 58.9544V96.4287L135.804 115.167ZM103.968 96.2289L135.804 114.771L167.637 96.2289V59.1541L135.804 40.6152L103.968 59.1541V96.2289Z" fill="white" fill-opacity="0.5"/>
<path opacity="0.84" d="M199.807 208.358L183.637 198.94V180.103L199.807 170.688L215.977 180.103V198.94L199.807 208.358ZM183.972 198.74L199.807 207.962L215.636 198.74V180.3L199.807 171.078L183.972 180.3V198.74Z" fill="white" fill-opacity="0.5"/>
<path opacity="0.91" d="M199.807 226.999L167.633 208.264V170.786L199.807 152.051L231.978 170.786V208.264L199.807 226.999ZM167.974 208.064L199.807 226.603L231.637 208.064V170.983L199.807 152.447L167.974 170.983V208.064Z" fill="white" fill-opacity="0.5"/>
<path opacity="0.65" d="M231.64 0V21.6733L199.808 40.2154L167.978 21.6733V0H167.637V21.8731L199.808 40.6118L231.982 21.8731V0H231.64Z" fill="white" fill-opacity="0.5"/>
<path opacity="0.96" d="M268.86 0L263.813 2.93772L258.772 0H258.09L263.813 3.33412L269.539 0H268.86Z" fill="white" fill-opacity="0.5"/>
<path opacity="0.95" d="M263.813 189.722L263.727 189.673L199.637 152.346V77.5908L199.723 77.5417L263.813 40.2148L263.899 40.264L327.988 77.5908V152.343L327.902 152.395L263.813 189.719V189.722ZM199.978 152.146L263.813 189.322L327.647 152.146V77.7906L263.813 40.6143L199.978 77.7906V152.146Z" fill="white" fill-opacity="0.5"/>
<path opacity="0.81" d="M327.814 96.5264L311.645 87.1079V68.274L327.814 58.8555L343.988 68.274V87.1079L327.814 96.5264ZM311.986 86.9082L327.814 96.13L343.646 86.9082V68.4676L327.814 59.2519L311.986 68.4676V86.9082Z" fill="white" fill-opacity="0.5"/>
<path opacity="0.55" d="M263.811 208.358L247.641 198.94V180.103L263.811 170.688L279.981 180.103V198.94L263.811 208.358ZM247.982 198.74L263.811 207.962L279.639 198.74V180.3L263.811 171.078L247.982 180.3V198.74Z" fill="white" fill-opacity="0.5"/>
<path opacity="0.95" d="M332.864 0L327.817 2.93772L322.776 0H322.094L327.817 3.33412L333.543 0H332.864Z" fill="white" fill-opacity="0.5"/>
<path opacity="0.88" d="M423.656 0V21.6733L391.823 40.2154L359.994 21.6733V0H359.652V21.8731L391.823 40.6118L423.997 21.8731V0H423.656Z" fill="white" fill-opacity="0.5"/>
<path opacity="0.51" d="M295.644 0V21.6733L263.812 40.2154L231.982 21.6733V0H231.641V21.8731L263.812 40.6118L295.903 21.9253L295.986 21.8731V0H295.644Z" fill="white" fill-opacity="0.5"/>
<path opacity="0.85" d="M386.097 0L391.648 3.23272V77.5913L327.813 114.771L263.979 77.5913V3.23272L269.536 0H268.856L263.724 2.98688L263.641 3.03605V77.7911L327.73 115.118L327.813 115.167L391.903 77.8402L391.989 77.7911V3.03605L386.777 0H386.097Z" fill="white" fill-opacity="0.5"/>
<path opacity="0.61" d="M391.821 87.2086L383.648 82.4487V72.9318L391.821 68.1719L399.987 72.9318V82.4487L391.821 87.2086ZM383.993 82.2489L391.821 86.8092L399.652 82.2489V73.1316L391.821 68.5714L383.993 73.1316V82.2489Z" fill="white" fill-opacity="0.5"/>
<path opacity="0.62" d="M263.811 115.167L231.637 96.4287V58.9544L263.811 40.2188L263.897 40.2679L295.985 58.9574V96.4318L295.902 96.484L263.814 115.17L263.811 115.167ZM231.978 96.2289L263.811 114.771L295.644 96.2289V59.1541L263.811 40.6152L231.978 59.1541V96.2289Z" fill="white" fill-opacity="0.5"/>
<path opacity="0.88" d="M327.813 189.722L327.73 189.673L263.641 152.346V77.5908L263.724 77.5417L327.813 40.2148L327.899 40.264L391.989 77.5908V152.343L391.903 152.395L327.813 189.719V189.722ZM263.979 152.146L327.813 189.322L391.648 152.146V77.7906L327.813 40.6143L263.979 77.7906V152.146Z" fill="white" fill-opacity="0.5"/>
<path opacity="0.58" d="M327.814 208.358L311.645 198.94V180.103L327.814 170.688L343.988 180.103V198.94L327.814 208.358ZM311.986 198.74L327.814 207.962L343.646 198.74V180.3L327.814 171.078L311.986 180.3V198.74Z" fill="white" fill-opacity="0.5"/>
<path opacity="0.54" d="M263.812 189.721L263.726 189.672L231.641 170.983V133.505L263.815 114.77L263.901 114.819L295.989 133.505V170.983L295.906 171.032L263.818 189.721H263.812ZM231.979 170.786L263.812 189.325L295.644 170.786V133.705L263.812 115.166L231.979 133.705V170.786Z" fill="white" fill-opacity="0.5"/>
<path opacity="0.85" d="M487.663 0V21.6733L455.827 40.2154L423.997 21.6733V0H423.656V21.8731L455.827 40.6118L488.001 21.8731V0H487.663Z" fill="white" fill-opacity="0.5"/>
<path opacity="0.78" d="M391.822 59.2522L375.652 49.8306V30.9966L391.822 21.5781L407.992 30.9966V49.8306L391.822 59.2522ZM375.99 49.6308L391.822 58.8558L407.651 49.6308V31.1933L391.822 21.9745L375.99 31.1933V49.6308Z" fill="white" fill-opacity="0.5"/>
<path opacity="0.62" d="M396.864 0L391.821 2.93772L386.777 0H386.098L391.821 3.33412L397.547 0H396.864Z" fill="white" fill-opacity="0.5"/>
<path opacity="0.65" d="M471.658 0V12.3562L455.826 21.5781L439.997 12.3562V0H439.656V12.556L455.826 21.9745L472.002 12.556V0H471.658Z" fill="white" fill-opacity="0.5"/>
<path opacity="0.61" d="M487.663 0V21.6733L455.827 40.2154L423.997 21.6733V0H423.656V21.8731L455.827 40.6118L488.001 21.8731V0H487.663Z" fill="white" fill-opacity="0.5"/>
<path opacity="0.95" d="M327.815 115.167L295.641 96.4287V58.9544L327.815 40.2188L327.901 40.2679L359.989 58.9574V96.4318L359.906 96.484L327.818 115.17L327.815 115.167ZM295.982 96.2289L327.815 114.771L359.647 96.2289V59.1541L327.815 40.6152L295.982 59.1541V96.2289Z" fill="white" fill-opacity="0.5"/>
<path opacity="0.67" d="M327.815 189.721L327.732 189.672L295.645 170.983V133.505L327.819 114.77L327.905 114.819L359.993 133.505V170.983L359.91 171.032L327.822 189.721H327.815ZM295.983 170.786L327.815 189.325L359.648 170.786V133.705L327.815 115.166L295.983 133.705V170.786Z" fill="white" fill-opacity="0.5"/>
<path opacity="0.69" d="M9.83559 87.0103C9.83559 88.1473 8.92274 89.0692 7.79475 89.0692C6.66675 89.0692 5.75391 88.1473 5.75391 87.0103C5.75391 85.8733 6.66675 84.9453 7.79475 84.9453C8.92274 84.9453 9.83559 85.8733 9.83559 87.0103Z" fill="white" fill-opacity="0.5"/>
<path opacity="0.97" d="M41.8387 59.0541C41.8387 60.1911 40.9227 61.113 39.7978 61.113C38.6729 61.113 37.7539 60.1911 37.7539 59.0541C37.7539 57.9171 38.6698 56.9922 39.7978 56.9922C40.9258 56.9922 41.8387 57.9141 41.8387 59.0541Z" fill="white" fill-opacity="0.5"/>
<path opacity="0.91" d="M73.8426 3.13308C73.8426 4.27006 72.9267 5.19194 71.7987 5.19194C70.6707 5.19194 69.7578 4.27006 69.7578 3.13308C69.7578 1.9961 70.6737 1.07422 71.7987 1.07422C72.9236 1.07422 73.8426 1.9961 73.8426 3.13308Z" fill="white" fill-opacity="0.5"/>
<path opacity="0.86" d="M73.8426 77.6917C73.8426 78.8317 72.9267 79.7505 71.7987 79.7505C70.6707 79.7505 69.7578 78.8317 69.7578 77.6917C69.7578 76.5516 70.6737 75.6328 71.7987 75.6328C72.9236 75.6328 73.8426 76.5547 73.8426 77.6917Z" fill="white" fill-opacity="0.5"/>
<path opacity="0.72" d="M121.843 12.4556C121.843 13.5926 120.927 14.5145 119.802 14.5145C118.677 14.5145 117.758 13.5926 117.758 12.4556C117.758 11.3186 118.674 10.3906 119.802 10.3906C120.93 10.3906 121.843 11.3125 121.843 12.4556Z" fill="white" fill-opacity="0.5"/>
<path opacity="0.54" d="M153.85 12.4556C153.85 13.5926 152.934 14.5145 151.806 14.5145C150.678 14.5145 149.766 13.5926 149.766 12.4556C149.766 11.3186 150.682 10.3906 151.806 10.3906C152.931 10.3906 153.85 11.3125 153.85 12.4556Z" fill="white" fill-opacity="0.5"/>
<path opacity="0.86" d="M105.843 21.7737C105.843 22.9107 104.931 23.8326 103.803 23.8326C102.675 23.8326 101.762 22.9107 101.762 21.7737C101.762 20.6367 102.675 19.7148 103.803 19.7148C104.931 19.7148 105.843 20.6336 105.843 21.7737Z" fill="white" fill-opacity="0.5"/>
<path opacity="0.69" d="M137.846 87.0103C137.846 88.1473 136.931 89.0692 135.806 89.0692C134.681 89.0692 133.762 88.1473 133.762 87.0103C133.762 85.8733 134.678 84.9453 135.806 84.9453C136.934 84.9453 137.846 85.8733 137.846 87.0103Z" fill="white" fill-opacity="0.5"/>
<path opacity="0.62" d="M73.8426 77.6917C73.8426 78.8317 72.9267 79.7505 71.7987 79.7505C70.6707 79.7505 69.7578 78.8317 69.7578 77.6917C69.7578 76.5516 70.6737 75.6328 71.7987 75.6328C72.9236 75.6328 73.8426 76.5547 73.8426 77.6917Z" fill="white" fill-opacity="0.5"/>
<path opacity="0.51" d="M105.843 59.0541C105.843 60.1911 104.927 61.113 103.802 61.113C102.677 61.113 101.758 60.1911 101.758 59.0541C101.758 57.9171 102.674 56.9922 103.802 56.9922C104.93 56.9922 105.843 57.9141 105.843 59.0541Z" fill="white" fill-opacity="0.5"/>
<path opacity="0.87" d="M201.85 12.4556C201.85 13.5926 200.934 14.5145 199.81 14.5145C198.685 14.5145 197.766 13.5926 197.766 12.4556C197.766 11.3186 198.682 10.3906 199.81 10.3906C200.938 10.3906 201.85 11.3125 201.85 12.4556Z" fill="white" fill-opacity="0.5"/>
<path opacity="0.66" d="M209.85 73.0315C209.85 74.1685 208.934 75.0904 207.806 75.0904C206.678 75.0904 205.766 74.1685 205.766 73.0315C205.766 71.8945 206.682 70.9727 207.806 70.9727C208.931 70.9727 209.85 71.8945 209.85 73.0315Z" fill="white" fill-opacity="0.5"/>
<path opacity="0.95" d="M201.85 152.246C201.85 153.383 200.934 154.305 199.81 154.305C198.685 154.305 197.766 153.383 197.766 152.246C197.766 151.109 198.682 150.188 199.81 150.188C200.938 150.188 201.85 151.106 201.85 152.246Z" fill="white" fill-opacity="0.5"/>
<path opacity="0.64" d="M73.8426 77.6917C73.8426 78.8317 72.9267 79.7505 71.7987 79.7505C70.6707 79.7505 69.7578 78.8317 69.7578 77.6917C69.7578 76.5516 70.6737 75.6328 71.7987 75.6328C72.9236 75.6328 73.8426 76.5547 73.8426 77.6917Z" fill="white" fill-opacity="0.5"/>
<path opacity="0.52" d="M137.846 77.6917C137.846 78.8317 136.931 79.7505 135.806 79.7505C134.681 79.7505 133.762 78.8317 133.762 77.6917C133.762 76.5516 134.678 75.6328 135.806 75.6328C136.934 75.6328 137.846 76.5547 137.846 77.6917Z" fill="white" fill-opacity="0.5"/>
<path opacity="0.76" d="M169.85 59.0541C169.85 60.1911 168.934 61.113 167.806 61.113C166.678 61.113 165.766 60.1911 165.766 59.0541C165.766 57.9171 166.678 56.9922 167.806 56.9922C168.934 56.9922 169.85 57.9141 169.85 59.0541Z" fill="white" fill-opacity="0.5"/>
<path opacity="0.62" d="M169.85 21.7737C169.85 22.9107 168.934 23.8326 167.806 23.8326C166.678 23.8326 165.766 22.9107 165.766 21.7737C165.766 20.6367 166.678 19.7148 167.806 19.7148C168.934 19.7148 169.85 20.6336 169.85 21.7737Z" fill="white" fill-opacity="0.5"/>
<path opacity="0.5" d="M217.854 68.3714C217.854 69.5083 216.938 70.4302 215.813 70.4302C214.689 70.4302 213.77 69.5083 213.77 68.3714C213.77 67.2344 214.685 66.3125 215.813 66.3125C216.941 66.3125 217.854 67.2313 217.854 68.3714Z" fill="white" fill-opacity="0.5"/>
<path opacity="0.91" d="M297.859 21.7737C297.859 22.9107 296.943 23.8326 295.818 23.8326C294.693 23.8326 293.777 22.9107 293.777 21.7737C293.777 20.6367 294.69 19.7148 295.818 19.7148C296.946 19.7148 297.859 20.6336 297.859 21.7737Z" fill="white" fill-opacity="0.5"/>
<path opacity="0.6" d="M126.441 0C126.8 0.328803 127.277 0.534689 127.802 0.534689C128.328 0.534689 128.804 0.328803 129.167 0H126.438H126.441Z" fill="white" fill-opacity="0.5"/>
<path opacity="0.6" d="M265.855 40.4135C265.855 41.5505 264.942 42.4724 263.814 42.4724C262.686 42.4724 261.773 41.5505 261.773 40.4135C261.773 39.2765 262.686 38.3516 263.814 38.3516C264.942 38.3516 265.855 39.2734 265.855 40.4135Z" fill="white" fill-opacity="0.5"/>
<path opacity="0.66" d="M169.85 59.0541C169.85 60.1911 168.934 61.113 167.806 61.113C166.678 61.113 165.766 60.1911 165.766 59.0541C165.766 57.9171 166.678 56.9922 167.806 56.9922C168.934 56.9922 169.85 57.9141 169.85 59.0541Z" fill="white" fill-opacity="0.5"/>
<path opacity="0.93" d="M201.85 170.883C201.85 172.023 200.934 172.945 199.81 172.945C198.685 172.945 197.766 172.023 197.766 170.883C197.766 169.743 198.682 168.824 199.81 168.824C200.938 168.824 201.85 169.746 201.85 170.883Z" fill="white" fill-opacity="0.5"/>
<path opacity="0.77" d="M201.85 40.4135C201.85 41.5505 200.934 42.4724 199.81 42.4724C198.685 42.4724 197.766 41.5505 197.766 40.4135C197.766 39.2765 198.682 38.3516 199.81 38.3516C200.938 38.3516 201.85 39.2734 201.85 40.4135Z" fill="white" fill-opacity="0.5"/>
<path opacity="0.84" d="M233.853 21.7737C233.853 22.9107 232.938 23.8326 231.806 23.8326C230.675 23.8326 229.766 22.9107 229.766 21.7737C229.766 20.6367 230.682 19.7148 231.806 19.7148C232.931 19.7148 233.853 20.6336 233.853 21.7737Z" fill="white" fill-opacity="0.5"/>
<path opacity="0.99" d="M345.862 87.0103C345.862 88.1473 344.946 89.0692 343.818 89.0692C342.69 89.0692 341.777 88.1473 341.777 87.0103C341.777 85.8733 342.693 84.9453 343.818 84.9453C344.943 84.9453 345.862 85.8733 345.862 87.0103Z" fill="white" fill-opacity="0.5"/>
<path opacity="0.96" d="M345.862 68.3714C345.862 69.5083 344.946 70.4302 343.818 70.4302C342.69 70.4302 341.777 69.5083 341.777 68.3714C341.777 67.2344 342.693 66.3125 343.818 66.3125C344.943 66.3125 345.862 67.2313 345.862 68.3714Z" fill="white" fill-opacity="0.5"/>
<path opacity="0.91" d="M233.854 21.7737C233.854 22.9107 232.938 23.8326 231.813 23.8326C230.689 23.8326 229.77 22.9107 229.77 21.7737C229.77 20.6367 230.685 19.7148 231.813 19.7148C232.941 19.7148 233.854 20.6336 233.854 21.7737Z" fill="white" fill-opacity="0.5"/>
<path opacity="0.73" d="M297.859 21.7737C297.859 22.9107 296.943 23.8326 295.818 23.8326C294.693 23.8326 293.777 22.9107 293.777 21.7737C293.777 20.6367 294.69 19.7148 295.818 19.7148C296.946 19.7148 297.859 20.6336 297.859 21.7737Z" fill="white" fill-opacity="0.5"/>
<path opacity="0.52" d="M265.855 77.6917C265.855 78.8317 264.942 79.7505 263.814 79.7505C262.686 79.7505 261.773 78.8317 261.773 77.6917C261.773 76.5516 262.686 75.6328 263.814 75.6328C264.942 75.6328 265.855 76.5547 265.855 77.6917Z" fill="white" fill-opacity="0.5"/>
<path opacity="0.76" d="M265.855 3.13308C265.855 4.27006 264.942 5.19194 263.814 5.19194C262.686 5.19194 261.773 4.27006 261.773 3.13308C261.773 1.9961 262.686 1.07422 263.814 1.07422C264.942 1.07422 265.855 1.9961 265.855 3.13308Z" fill="white" fill-opacity="0.5"/>
<path opacity="0.57" d="M385.866 82.351C385.866 83.488 384.95 84.4099 383.822 84.4099C382.694 84.4099 381.781 83.488 381.781 82.351C381.781 81.214 382.697 80.2891 383.822 80.2891C384.947 80.2891 385.866 81.2109 385.866 82.351Z" fill="white" fill-opacity="0.5"/>
<path opacity="0.66" d="M401.866 73.0315C401.866 74.1685 400.95 75.0904 399.822 75.0904C398.694 75.0904 397.781 74.1685 397.781 73.0315C397.781 71.8945 398.697 70.9727 399.822 70.9727C400.947 70.9727 401.866 71.8945 401.866 73.0315Z" fill="white" fill-opacity="0.5"/>
<path opacity="0.78" d="M393.867 68.3714C393.867 69.5083 392.951 70.4302 391.826 70.4302C390.701 70.4302 389.785 69.5083 389.785 68.3714C389.785 67.2344 390.698 66.3125 391.826 66.3125C392.954 66.3125 393.867 67.2313 393.867 68.3714Z" fill="white" fill-opacity="0.5"/>
<path opacity="0.94" d="M297.859 133.608C297.859 134.745 296.943 135.667 295.818 135.667C294.693 135.667 293.777 134.745 293.777 133.608C293.777 132.471 294.69 131.543 295.818 131.543C296.946 131.543 297.859 132.471 297.859 133.608Z" fill="white" fill-opacity="0.5"/>
<path opacity="0.85" d="M265.855 114.969C265.855 116.106 264.942 117.028 263.814 117.028C262.686 117.028 261.773 116.106 261.773 114.969C261.773 113.832 262.686 112.91 263.814 112.91C264.942 112.91 265.855 113.832 265.855 114.969Z" fill="white" fill-opacity="0.5"/>
<path opacity="0.86" d="M457.871 40.4135C457.871 41.5505 456.958 42.4724 455.83 42.4724C454.702 42.4724 453.789 41.5505 453.789 40.4135C453.789 39.2765 454.702 38.3516 455.83 38.3516C456.958 38.3516 457.871 39.2734 457.871 40.4135Z" fill="white" fill-opacity="0.5"/>
<path opacity="0.53" d="M393.867 59.0541C393.867 60.1911 392.951 61.113 391.826 61.113C390.701 61.113 389.785 60.1911 389.785 59.0541C389.785 57.9171 390.698 56.9922 391.826 56.9922C392.954 56.9922 393.867 57.9141 393.867 59.0541Z" fill="white" fill-opacity="0.5"/>
<path opacity="0.72" d="M441.87 12.4556C441.87 13.5926 440.954 14.5145 439.826 14.5145C438.698 14.5145 437.785 13.5926 437.785 12.4556C437.785 11.3186 438.701 10.3906 439.826 10.3906C440.951 10.3906 441.87 11.3125 441.87 12.4556Z" fill="white" fill-opacity="0.5"/>
<path opacity="0.59" d="M473.871 12.4595C473.871 13.5965 472.955 14.5184 471.83 14.5184C470.705 14.5184 469.789 13.5965 469.789 12.4595C469.789 11.3226 470.705 10.3945 471.83 10.3945C472.955 10.3945 473.871 11.3164 473.871 12.4595Z" fill="white" fill-opacity="0.5"/>
<path opacity="0.89" d="M297.859 96.3284C297.859 97.4654 296.943 98.3872 295.818 98.3872C294.693 98.3872 293.777 97.4654 293.777 96.3284C293.777 95.1914 294.69 94.2695 295.818 94.2695C296.946 94.2695 297.859 95.1914 297.859 96.3284Z" fill="white" fill-opacity="0.5"/>
<path opacity="0.59" d="M361.863 96.3284C361.863 97.4654 360.953 98.3872 359.822 98.3872C358.691 98.3872 357.781 97.4654 357.781 96.3284C357.781 95.1914 358.694 94.2695 359.822 94.2695C360.95 94.2695 361.863 95.1914 361.863 96.3284Z" fill="white" fill-opacity="0.5"/>
<path opacity="0.78" d="M329.862 114.969C329.862 116.106 328.946 117.028 327.818 117.028C326.69 117.028 325.777 116.106 325.777 114.969C325.777 113.832 326.693 112.91 327.818 112.91C328.943 112.91 329.862 113.832 329.862 114.969Z" fill="white" fill-opacity="0.5"/>
</g>
<defs>
<clipPath id="clip0_494_353">
<rect width="489" height="227" fill="white" transform="translate(-1)"/>
</clipPath>
</defs>
</svg>
