<svg width="115" height="111" viewBox="0 0 115 111" fill="none" xmlns="http://www.w3.org/2000/svg">
<path d="M48.8151 37.3256C56.5859 33.2903 66.8908 33.2903 72.9711 38.6707C51.8255 38.8039 45.3917 54.2264 44.7767 62.1464C39.7247 57.2066 41.0442 41.361 48.8151 37.3256Z" fill="#346EBA"/>
<path d="M59.5482 32.2461C64.9839 32.2461 69.9052 34.4392 73.4675 37.9848C77.0298 41.5304 79.2332 46.4285 79.2332 51.8386C79.2332 55.5025 78.2178 58.9363 76.4512 61.8769C74.7609 64.6904 72.3828 67.0461 69.5489 68.7135V79.3709C69.5489 80.0884 68.9644 80.6701 68.2435 80.6701H50.8528C50.1319 80.6701 49.5474 80.0884 49.5474 79.3709V68.7133C46.7137 67.046 44.3355 64.6903 42.6453 61.8768C40.8786 58.9362 39.8633 55.5024 39.8633 51.8386C39.8633 46.4285 42.0667 41.5303 45.629 37.9847C49.1913 34.4391 54.1126 32.2461 59.5482 32.2461L59.5482 32.2461ZM71.6216 39.8219C68.5319 36.7467 64.2633 34.8446 59.5482 34.8446C54.8332 34.8446 50.5646 36.7467 47.4748 39.8219C44.3851 42.8972 42.474 47.1457 42.474 51.8386C42.474 55.0271 43.3517 58.0055 44.8787 60.5472C46.4479 63.1593 48.7034 65.3178 51.3976 66.7773C51.8465 66.9828 52.1581 67.4343 52.1581 67.9582V78.0716H66.9381V67.9752C66.9325 67.5069 67.182 67.0515 67.625 66.8142L68.2435 67.9583L67.6265 66.8164C70.3528 65.3565 72.6345 63.1827 74.2178 60.5472C75.7448 58.0055 76.6224 55.0271 76.6224 51.8386C76.6224 47.1457 74.7113 42.8971 71.6216 39.8219L71.6216 39.8219Z" fill="#0C2E5A"/>
<path d="M51.2819 67.0625C50.561 67.0625 49.9766 67.6442 49.9766 68.3617C49.9766 69.0793 50.561 69.661 51.2819 69.661H67.8188C68.5397 69.661 69.1242 69.0793 69.1242 68.3617C69.1242 67.6442 68.5397 67.0625 67.8188 67.0625H51.2819Z" fill="#0C2E5A"/>
<path d="M51.4421 72.793C50.7212 72.793 50.1367 73.3747 50.1367 74.0922C50.1367 74.8097 50.7212 75.3915 51.4421 75.3915H67.6576C68.3785 75.3915 68.963 74.8097 68.963 74.0922C68.963 73.3747 68.3785 72.793 67.6576 72.793H51.4421Z" fill="#0C2E5A"/>
<path d="M66.0461 80.0648C66.0461 79.3501 65.4639 78.7707 64.7458 78.7707C64.0277 78.7707 63.4456 79.3501 63.4456 80.0648C63.4438 80.5435 63.0827 81.0201 62.5001 81.4036C61.7648 81.8877 60.7232 82.187 59.549 82.187C58.3729 82.187 57.3294 81.8864 56.5933 81.4006C56.0152 81.019 55.6576 80.5408 55.6576 80.0563C55.6576 79.9899 55.6535 80.0436 55.6551 80.0089C55.6889 79.2941 55.1342 78.6874 54.416 78.6538C53.6979 78.6202 53.0884 79.1723 53.0546 79.8871C53.0495 79.994 53.0469 80.0504 53.0469 80.0563C53.0469 81.4661 53.8527 82.7028 55.1554 83.5626C56.3001 84.3181 57.8551 84.7855 59.5491 84.7855C61.2399 84.7855 62.7931 84.3195 63.9381 83.5657C65.2358 82.7113 66.0407 81.477 66.0461 80.0648L66.0461 80.0648Z" fill="#0C2E5A"/>
<path d="M58.2461 27.8371C58.2461 28.5546 58.8306 29.1364 59.5515 29.1364C60.2724 29.1364 60.8568 28.5546 60.8568 27.8371V23.7211C60.8568 23.0036 60.2724 22.4219 59.5515 22.4219C58.8306 22.4219 58.2461 23.0036 58.2461 23.7211V27.8371Z" fill="#0C2E5A"/>
<path d="M35.9095 52.6649C36.6304 52.6649 37.2149 52.0832 37.2149 51.3657C37.2149 50.6481 36.6304 50.0664 35.9095 50.0664H31.7741C31.0532 50.0664 30.4688 50.6481 30.4688 51.3657C30.4688 52.0832 31.0532 52.6649 31.7741 52.6649H35.9095Z" fill="#0C2E5A"/>
<path d="M87.3236 52.6649C88.0445 52.6649 88.629 52.0832 88.629 51.3657C88.629 50.6481 88.0445 50.0664 87.3236 50.0664H83.1882C82.4673 50.0664 81.8828 50.6481 81.8828 51.3657C81.8828 52.0832 82.4673 52.6649 83.1882 52.6649H87.3236Z" fill="#0C2E5A"/>
<path d="M41.908 35.6477C42.4177 36.155 43.2442 36.155 43.7538 35.6477C44.2635 35.1404 44.2635 34.3178 43.7538 33.8105L40.8297 30.9C40.32 30.3927 39.4935 30.3927 38.9838 30.9C38.4741 31.4073 38.4741 32.2299 38.9838 32.7372L41.908 35.6477Z" fill="#0C2E5A"/>
<path d="M78.2635 71.8351C78.7732 72.3424 79.5996 72.3424 80.1093 71.8351C80.619 71.3278 80.619 70.5052 80.1093 69.9979L77.1852 67.0875C76.6755 66.5802 75.849 66.5802 75.3393 67.0875C74.8296 67.5948 74.8296 68.4174 75.3393 68.9247L78.2635 71.8351Z" fill="#0C2E5A"/>
<path d="M75.3393 33.8105C74.8296 34.3178 74.8296 35.1404 75.3393 35.6477C75.849 36.155 76.6755 36.155 77.1852 35.6477L80.1093 32.7372C80.619 32.2299 80.619 31.4073 80.1093 30.9C79.5996 30.3927 78.7732 30.3927 78.2635 30.9L75.3393 33.8105Z" fill="#0C2E5A"/>
<path d="M38.9838 69.9979C38.4741 70.5052 38.4741 71.3278 38.9838 71.8351C39.4935 72.3424 40.32 72.3424 40.8297 71.8351L43.7538 68.9247C44.2635 68.4174 44.2635 67.5948 43.7538 67.0875C43.2442 66.5802 42.4177 66.5802 41.908 67.0875L38.9838 69.9979Z" fill="#0C2E5A"/>
<path d="M15.876 23.1711H17.0289V24.3187C17.0289 24.7318 17.3649 25.0661 17.7799 25.0661C18.1949 25.0661 18.5309 24.7318 18.5309 24.3187V23.1711H19.6838C20.0989 23.1711 20.4348 22.8368 20.4348 22.4237C20.4348 22.0106 20.0989 21.6762 19.6838 21.6762H18.5309V20.5287C18.5309 20.1156 18.1949 19.7812 17.7799 19.7812C17.3649 19.7812 17.0289 20.1156 17.0289 20.5287V21.6762H15.876C15.4609 21.6762 15.125 22.0106 15.125 22.4237C15.125 22.8368 15.4614 23.1711 15.876 23.1711Z" fill="#346EBA"/>
<path d="M96.7627 30.3508H97.9157V31.4984C97.9157 31.9115 98.2516 32.2458 98.6666 32.2458C99.0817 32.2458 99.4176 31.9115 99.4176 31.4984V30.3508H100.571C100.986 30.3508 101.322 30.0164 101.322 29.6034C101.322 29.1903 100.986 28.8559 100.571 28.8559H99.4176V27.7084C99.4176 27.2953 99.0817 26.9609 98.6666 26.9609C98.2516 26.9609 97.9157 27.2953 97.9157 27.7084V28.8559H96.7627C96.3476 28.8559 96.0117 29.1903 96.0117 29.6034C96.0117 30.0164 96.3476 30.3508 96.7627 30.3508Z" fill="#346EBA"/>
<path d="M98.1429 73.8615C98.558 73.8615 98.8939 73.5271 98.8939 73.1141C98.8939 72.701 98.558 72.3666 98.1429 72.3666C97.4471 72.3666 96.8808 71.8031 96.8808 71.1104C96.8808 70.4178 97.4471 69.8542 98.1429 69.8542C98.8388 69.8542 99.4051 70.4178 99.4051 71.1104C99.4051 71.5235 99.741 71.8579 100.156 71.8579C100.571 71.8579 100.907 71.5235 100.907 71.1104C100.907 69.5936 99.6669 68.3594 98.1429 68.3594C96.619 68.3594 95.3789 69.5936 95.3789 71.1104C95.3789 72.6272 96.619 73.8615 98.1429 73.8615Z" fill="#346EBA"/>
<path d="M67.3878 92.6631C67.3878 92.2302 67.0348 91.8789 66.5999 91.8789H41.7488C41.3139 91.8789 40.9609 92.2302 40.9609 92.6631C40.9609 93.096 41.3139 93.4473 41.7488 93.4473H66.5999C67.0348 93.4473 67.3878 93.096 67.3878 92.6631Z" fill="#0C2E5A"/>
<path d="M95.3789 97.7835C95.3789 97.323 94.7643 96.9492 94.0071 96.9492H50.739C49.9818 96.9492 49.3672 97.323 49.3672 97.7835C49.3672 98.244 49.9818 98.6178 50.739 98.6178H94.0071C94.7643 98.6178 95.3789 98.244 95.3789 97.7835Z" fill="#0C2E5A"/>
<path d="M34.7528 91.8789C34.3178 91.8789 33.9648 92.2302 33.9648 92.6631C33.9648 93.096 34.3178 93.4473 34.7528 93.4473H36.0843C36.5192 93.4473 36.8722 93.096 36.8722 92.6631C36.8722 92.2302 36.5192 91.8789 36.0843 91.8789H34.7528Z" fill="#0C2E5A"/>
<path d="M68.9633 12.029C70.0632 12.029 70.9579 11.138 70.9579 10.0438C70.9579 8.94954 70.0627 8.05859 68.9633 8.05859C67.8639 8.05859 66.9688 8.94904 66.9688 10.0438C66.9688 11.1385 67.8634 12.029 68.9633 12.029ZM68.9633 9.55346C69.2352 9.55346 69.4559 9.77321 69.4559 10.0438C69.4559 10.3144 69.2352 10.5341 68.9633 10.5341C68.6915 10.5341 68.4707 10.3144 68.4707 10.0438C68.4707 9.77321 68.6915 9.55346 68.9633 9.55346Z" fill="#346EBA"/>
</svg>
