<svg width="113" height="111" viewBox="0 0 113 111" fill="none" xmlns="http://www.w3.org/2000/svg">
<path d="M94.6157 34.4075C94.6157 36.2986 93.849 38.0109 92.6097 39.2503C91.3702 40.4898 89.6579 41.2564 87.7669 41.2564V41.2505C85.8718 41.2505 84.1597 40.4861 82.924 39.2503C81.6845 38.0109 80.918 36.2987 80.918 34.4075C80.918 32.5164 81.6846 30.8041 82.9241 29.5647C84.1635 28.3253 85.8757 27.5586 87.7668 27.5586C89.6578 27.5586 91.3701 28.3253 92.6095 29.5648C93.849 30.8043 94.6157 32.5165 94.6157 34.4075L94.6157 34.4075ZM90.4886 37.1292C91.1849 36.4328 91.6157 35.4705 91.6157 34.4075C91.6157 33.3446 91.1848 32.3823 90.4884 31.6859C89.792 30.9895 88.8297 30.5587 87.7668 30.5587C86.7039 30.5587 85.7416 30.9895 85.0452 31.6858C84.3488 32.3822 83.918 33.3446 83.918 34.4075C83.918 35.4706 84.3487 36.4329 85.0451 37.1292C85.745 37.8292 86.7077 38.2622 87.7668 38.2622V38.2564C88.8298 38.2564 89.7922 37.8256 90.4885 37.1292L90.4886 37.1292Z" fill="#0C2E5A"/>
<path fill-rule="evenodd" clip-rule="evenodd" d="M48.7352 42.3776C48.7151 42.3672 48.6948 42.3569 48.6744 42.3468C48.5868 42.3038 48.4977 42.2637 48.4075 42.226C48.1454 42.1163 47.8667 42.0222 47.5871 41.9689C43.3384 41.1589 38.6141 44.3274 35.5223 46.9119C32.6415 49.32 30.0312 52.132 27.6841 55.0578C27.1425 55.7331 27.2512 56.7298 27.9269 57.2714C28.2077 57.4965 28.5511 57.6185 28.9113 57.6185C29.3922 57.6185 29.8401 57.4038 30.141 57.0286C31.5287 55.2985 32.9839 53.6167 34.5466 52.0417L41.0446 45.4926L39.1073 54.5127C38.7414 56.2165 38.3992 57.93 38.1605 59.6569C37.7478 62.6431 37.7327 65.6576 37.8113 68.6654C37.8183 68.9373 37.8253 69.2091 37.832 69.481C37.8699 71.0045 37.904 72.5282 37.9189 74.052C37.9287 75.0419 37.9479 76.0309 37.895 77.0201L37.872 77.4497L32.9812 90.09C32.5109 91.3055 33.1216 92.6896 34.338 93.159C34.6116 93.2645 34.902 93.32 35.1953 93.32C36.1752 93.32 37.0557 92.7165 37.4092 91.8024L42.4252 78.8331C42.5116 78.6096 42.5641 78.373 42.5798 78.1339L43.2918 67.2744L50.0442 77.9426L53.7629 91.5507C54.0456 92.5852 54.9784 93.32 56.0554 93.32C56.2612 93.32 56.4664 93.2927 56.6652 93.2392C57.9122 92.9037 58.695 91.5979 58.3525 90.3433L54.5408 76.3814C54.4771 76.1481 54.3814 75.9219 54.2519 75.7174L47.8835 65.656L48.3532 64.3987C48.4105 64.2454 48.4578 64.0886 48.4921 63.9285L51.4913 49.9339L55.0309 53.8276C55.7335 54.6004 56.4648 55.3462 57.2305 56.0566C59.1519 57.8393 61.2619 59.4124 63.4431 60.8612C64.2307 61.3844 65.649 60.7833 65.8424 59.8646C65.9738 59.2403 65.7148 58.5912 65.1823 58.2372C63.1457 56.8832 61.1785 55.4184 59.384 53.7533C58.0417 52.5079 56.8241 51.1535 55.6689 49.7346C55.2853 49.2635 54.9077 48.7876 54.5302 48.3118C53.3245 46.7924 52.1004 45.2862 50.7866 43.8583C50.7035 43.7679 50.5661 43.6671 50.4716 43.5902C49.9485 43.1649 49.3811 42.7088 48.7783 42.4C48.7639 42.3926 48.7495 42.3851 48.7352 42.3775L48.7352 42.3776ZM36.465 53.9452C34.9625 55.4595 33.5579 57.0881 32.2492 58.7196C31.4348 59.7349 30.211 60.321 28.9113 60.321C27.9366 60.321 26.9971 59.9897 26.2366 59.3801C24.3957 57.9045 24.1 55.2069 25.5761 53.3668C28.0228 50.3168 30.7883 47.3468 33.789 44.8384C37.5953 41.6567 42.9012 38.324 48.0933 39.3142C48.5574 39.4027 49.0157 39.5507 49.4513 39.7331C49.5914 39.7917 49.7301 39.8544 49.8664 39.9214C49.9076 39.9416 49.9486 39.9623 49.9893 39.9836C49.9963 39.9872 50.0033 39.9909 50.0103 39.9947C50.806 40.3839 51.4931 40.9376 52.1765 41.4934C52.3886 41.6658 52.5888 41.8255 52.7754 42.0283C54.1409 43.5124 55.3949 45.0538 56.6472 46.632C57.0177 47.0989 57.3882 47.566 57.7647 48.0283C58.8481 49.3591 59.9626 50.6035 61.2222 51.7722C62.9083 53.3368 64.7649 54.7145 66.6785 55.9866C68.135 56.9549 68.8459 58.7156 68.4869 60.4212C67.9017 63.2016 64.3325 64.6964 61.9477 63.1124C59.6444 61.5825 57.4212 59.92 55.3923 58.0378C54.5625 57.2679 53.7819 56.4713 53.0311 55.6454L51.1346 64.4948C51.0721 64.7867 50.9877 65.069 50.8848 65.3446L56.5353 74.2719C56.8086 74.7037 57.0134 75.1767 57.1479 75.6696L60.9596 89.6315C61.697 92.3325 60.0625 95.1238 57.3672 95.8489C56.9393 95.964 56.4984 96.0225 56.0553 96.0225C53.7628 96.0225 51.7604 94.4749 51.156 92.2631L47.544 79.0457L45.4457 75.7305L45.2765 78.3106C45.2429 78.8232 45.131 79.3288 44.9458 79.8079L39.9298 92.7772C39.1725 94.7351 37.2885 96.0224 35.1953 96.0224C34.5691 96.0224 33.9492 95.9056 33.3651 95.6802C30.7544 94.6729 29.4511 91.7241 30.4607 89.1147L35.1963 76.8756C35.2455 75.9567 35.2255 74.9928 35.2166 74.0784C35.2018 72.5683 35.1679 71.0577 35.1304 69.5481C35.1236 69.2773 35.1168 69.0066 35.1097 68.7359C35.027 65.562 35.048 62.4372 35.4834 59.2868C35.7291 57.5087 36.0832 55.7229 36.465 53.9451L36.465 53.9452Z" fill="#0C2E5A"/>
<path d="M57.0509 34.8711C57.0509 36.8579 56.2454 38.6568 54.9433 39.959C53.6411 41.2611 51.8422 42.0666 49.8555 42.0666C47.8685 42.0666 46.0698 41.2612 44.7677 39.959C43.4655 38.6569 42.6602 36.8581 42.6602 34.8711C42.6602 32.8845 43.4656 31.0855 44.7678 29.7833C46.0699 28.4812 47.8686 27.6758 49.8555 27.6758C51.8422 27.6758 53.641 28.4813 54.9432 29.7834C56.2453 31.0857 57.0509 32.8845 57.0509 34.8711ZM52.8222 37.8378C53.5813 37.0787 54.0508 36.0299 54.0508 34.8711C54.0508 33.7126 53.5812 32.6637 52.8221 31.9046C52.063 31.1455 51.0141 30.6759 49.8555 30.6759C48.6968 30.6759 47.6479 31.1454 46.8889 31.9045C46.1298 32.6635 45.6602 33.7125 45.6602 34.8711C45.6602 36.03 46.1297 37.0788 46.8888 37.8379C47.6478 38.597 48.6967 39.0665 49.8555 39.0665C51.0141 39.0665 52.0631 38.5969 52.8222 37.8378Z" fill="#0C2E5A"/>
<path d="M85.5627 73.4223V90.0503C85.5627 91.2121 86.1743 91.9464 86.9572 92.2599L86.9586 92.2562C86.9913 92.2693 87.0231 92.2834 87.0543 92.2984C87.3531 92.4029 87.6825 92.4552 88.021 92.4552C88.3963 92.4552 88.7605 92.3909 89.0841 92.2624L89.0833 92.2604L89.0848 92.2598L89.0834 92.2562C89.1093 92.2459 89.1352 92.2364 89.1612 92.2276C89.9071 91.8977 90.4791 91.1741 90.4791 90.0503V73.4223C90.4791 73.023 90.6352 72.6602 90.8897 72.3914C91.1001 72.108 91.2704 71.7889 91.3916 71.4432C91.5184 71.0813 91.5875 70.6834 91.5875 70.2599V48.4884C91.5875 47.5034 91.1883 46.6117 90.543 45.9664C89.8977 45.3211 89.006 44.9219 88.021 44.9219C87.3243 44.9219 86.6764 45.1192 86.1305 45.4605C85.5667 45.8129 85.1077 46.3212 84.8126 46.9261L83.4649 46.2698L84.813 46.9276C84.756 47.0445 84.6857 47.1508 84.6049 47.2453L78.0272 55.9384L76.8318 55.0361L78.028 55.9412C77.8683 56.1523 77.6635 56.3092 77.4371 56.4087L73.1901 58.809L73.1936 58.8152C73.1767 58.8248 73.1597 58.8339 73.1426 58.8427C72.8168 59.0415 72.5961 59.3474 72.5012 59.6868C72.4005 60.0469 72.438 60.4468 72.6374 60.8009C72.8349 61.1516 73.1533 61.3885 73.5082 61.4877C73.8674 61.588 74.2663 61.551 74.6197 61.3529L74.6187 61.3511C74.6612 61.3272 74.7044 61.3056 74.7481 61.2863L79.2531 58.7402L79.269 58.7265C80.1918 57.9344 80.9575 57.277 81.6595 56.0763L82.9544 56.8321L81.6594 56.0751C82.0775 55.36 82.9963 55.1191 83.7115 55.5372C84.1945 55.8196 84.4611 56.3304 84.4544 56.8527V70.2599C84.4544 70.6834 84.5234 71.0813 84.6503 71.4432C84.7857 71.8297 84.9826 72.1828 85.2282 72.49L85.234 72.4853C85.4554 72.7622 85.5628 73.0934 85.5626 73.4223H85.5627L85.5627 73.4223ZM82.5627 90.0503V73.8982C82.2577 73.4429 82.0089 72.9493 81.826 72.4275C81.5853 71.7407 81.4544 71.0107 81.4544 70.2599V60.7936L81.2143 61L81.1893 61.0215C81.0957 61.1149 80.9882 61.1974 80.8675 61.2656L80.1295 59.9597L80.8619 61.2605L76.2175 63.8852C76.1769 63.9136 76.1346 63.9404 76.0906 63.9652L76.0871 63.9589L75.3547 62.6581L76.0871 63.9648C75.0196 64.5659 73.8076 64.6769 72.7113 64.3705C71.61 64.0626 70.6271 63.3367 70.0241 62.2657C69.423 61.1982 69.312 59.9862 69.6184 58.8899C69.9178 57.819 70.6126 56.8601 71.6354 56.2535C71.6621 56.2361 71.6894 56.2194 71.7175 56.2035L71.7186 56.2054L71.7232 56.2027L71.7257 56.2072L75.8175 53.8947L82.1842 45.4804C82.7269 44.4298 83.547 43.5435 84.5484 42.9175C85.5577 42.2866 86.7482 41.9219 88.0209 41.9219C89.8341 41.9219 91.4758 42.657 92.6641 43.8453C93.8524 45.0336 94.5875 46.6753 94.5875 48.4885V70.2599C94.5875 71.0108 94.4565 71.7406 94.2159 72.4276C94.033 72.9494 93.7842 73.4428 93.4792 73.8982V90.0503C93.4792 92.5821 92.0993 94.2307 90.3123 94.9899C90.2748 95.0087 90.2362 95.0262 90.1965 95.042L89.64 93.6491L90.1907 95.0378C89.4944 95.316 88.7519 95.4553 88.0209 95.4553C87.3397 95.4553 86.6486 95.3344 85.9941 95.0927C85.9442 95.0786 85.8945 95.0617 85.8452 95.042L86.4019 93.6491L85.8453 95.0378C84.0024 94.3013 82.5626 92.6364 82.5626 90.0503L82.5627 90.0503Z" fill="#0C2E5A"/>
<path d="M12.4299 16.8203H13.5698V17.9602C13.5698 18.3705 13.9019 18.7026 14.3122 18.7026C14.7226 18.7026 15.0547 18.3705 15.0547 17.9602V16.8203H16.1945C16.6049 16.8203 16.937 16.4882 16.937 16.0779C16.937 15.6675 16.6049 15.3354 16.1945 15.3354H15.0547V14.1956C15.0547 13.7852 14.7226 13.4531 14.3122 13.4531C13.9019 13.4531 13.5698 13.7852 13.5698 14.1956V15.3354H12.4299C12.0196 15.3354 11.6875 15.6675 11.6875 16.0779C11.6875 16.4882 12.0201 16.8203 12.4299 16.8203Z" fill="#346EBA"/>
<path d="M82.6252 11.3125H83.7651V12.4524C83.7651 12.8627 84.0972 13.1948 84.5076 13.1948C84.9179 13.1948 85.25 12.8627 85.25 12.4524V11.3125H86.3899C86.8002 11.3125 87.1323 10.9804 87.1323 10.57C87.1323 10.1597 86.8002 9.82762 86.3899 9.82762H85.25V8.68774C85.25 8.27743 84.9179 7.94531 84.5076 7.94531C84.0972 7.94531 83.7651 8.27743 83.7651 8.68774V9.82762H82.6252C82.2149 9.82762 81.8828 10.1597 81.8828 10.57C81.8828 10.9804 82.2149 11.3125 82.6252 11.3125Z" fill="#346EBA"/>
<path d="M6.16232 78.102C6.57264 78.102 6.90475 77.7699 6.90475 77.3596C6.90475 76.9492 6.57264 76.6171 6.16232 76.6171C5.47434 76.6171 4.91455 76.0573 4.91455 75.3694C4.91455 74.6814 5.47434 74.1216 6.16232 74.1216C6.85031 74.1216 7.41011 74.6814 7.41011 75.3694C7.41011 75.7797 7.74222 76.1118 8.15254 76.1118C8.56285 76.1118 8.89497 75.7797 8.89497 75.3694C8.89497 73.8627 7.66896 72.6367 6.16232 72.6367C4.65568 72.6367 3.42969 73.8627 3.42969 75.3694C3.42969 76.876 4.65568 78.102 6.16232 78.102Z" fill="#346EBA"/>
<path d="M94.5876 99.2583C94.5876 98.8613 94.2654 98.5391 93.8683 98.5391H71.1841C70.7871 98.5391 70.4648 98.8613 70.4648 99.2583C70.4648 99.6553 70.7871 99.9775 71.1841 99.9775H93.8683C94.2654 99.9775 94.5876 99.6553 94.5876 99.2583Z" fill="#0C2E5A"/>
<path d="M47.3805 99.2583C47.3805 98.8613 47.0583 98.5391 46.6613 98.5391H23.977C23.58 98.5391 23.2578 98.8613 23.2578 99.2583C23.2578 99.6553 23.58 99.9775 23.977 99.9775H46.6613C47.0583 99.9775 47.3805 99.6553 47.3805 99.2583Z" fill="#0C2E5A"/>
<path d="M53.875 104.304C53.875 103.882 53.314 103.539 52.6228 103.539H13.1272C12.436 103.539 11.875 103.882 11.875 104.304C11.875 104.727 12.436 105.069 13.1272 105.069H52.6228C53.314 105.069 53.875 104.727 53.875 104.304Z" fill="#0C2E5A"/>
<path d="M64.8012 98.5391C64.4042 98.5391 64.082 98.8613 64.082 99.2583C64.082 99.6553 64.4042 99.9775 64.8012 99.9775H66.0167C66.4137 99.9775 66.7359 99.6553 66.7359 99.2583C66.7359 98.8613 66.4137 98.5391 66.0167 98.5391H64.8012Z" fill="#0C2E5A"/>
<path d="M17.5942 98.5391C17.1972 98.5391 16.875 98.8613 16.875 99.2583C16.875 99.6553 17.1972 99.9775 17.5942 99.9775H18.8097C19.2067 99.9775 19.5289 99.6553 19.5289 99.2583C19.5289 98.8613 19.2067 98.5391 18.8097 98.5391H17.5942Z" fill="#0C2E5A"/>
<path d="M53.55 11.8891C54.6374 11.8891 55.5219 11.0041 55.5219 9.91721C55.5219 8.83029 54.6369 7.94531 53.55 7.94531C52.4631 7.94531 51.5781 8.8298 51.5781 9.91721C51.5781 11.0046 52.4626 11.8891 53.55 11.8891ZM53.55 9.43017C53.8188 9.43017 54.0371 9.64845 54.0371 9.91721C54.0371 10.186 53.8188 10.4042 53.55 10.4042C53.2813 10.4042 53.063 10.186 53.063 9.91721C53.063 9.64845 53.2813 9.43017 53.55 9.43017Z" fill="#346EBA"/>
<circle cx="49.8558" cy="34.8676" r="4.49255" fill="#346EBA"/>
<circle cx="87.766" cy="34.8676" r="4.49255" fill="#346EBA"/>
</svg>
