<svg width="100" height="101" viewBox="0 0 100 101" fill="none" xmlns="http://www.w3.org/2000/svg">
<path d="M97.4875 69.7602C98.5749 69.7602 99.4594 68.8752 99.4594 67.7883C99.4594 66.7014 98.5744 65.8164 97.4875 65.8164C96.4006 65.8164 95.5156 66.7009 95.5156 67.7883C95.5156 68.8757 96.4001 69.7602 97.4875 69.7602ZM97.4875 67.3013C97.7563 67.3013 97.9746 67.5195 97.9746 67.7883C97.9746 68.0571 97.7563 68.2753 97.4875 68.2753C97.2188 68.2753 97.0005 68.0571 97.0005 67.7883C97.0005 67.5195 97.2188 67.3013 97.4875 67.3013Z" fill="#346EBA"/>
<path d="M4.84399 7.96482H5.98387V9.1047C5.98387 9.51502 6.31599 9.84713 6.7263 9.84713C7.13662 9.84713 7.46873 9.51502 7.46873 9.1047V7.96482H8.60861C9.01892 7.96482 9.35104 7.63271 9.35104 7.22239C9.35104 6.81207 9.01892 6.47996 8.60861 6.47996H7.46873V5.34009C7.46873 4.92977 7.13662 4.59766 6.7263 4.59766C6.31599 4.59766 5.98387 4.92977 5.98387 5.34009V6.47996H4.84399C4.43368 6.47996 4.10156 6.81207 4.10156 7.22239C4.10156 7.63271 4.43417 7.96482 4.84399 7.96482Z" fill="#346EBA"/>
<path d="M72.8713 22.3281H74.0112V23.468C74.0112 23.8783 74.3433 24.2104 74.7536 24.2104C75.164 24.2104 75.4961 23.8783 75.4961 23.468V22.3281H76.636C77.0463 22.3281 77.3784 21.996 77.3784 21.5857C77.3784 21.1754 77.0463 20.8432 76.636 20.8432H75.4961V19.7034C75.4961 19.2931 75.164 18.9609 74.7536 18.9609C74.3433 18.9609 74.0112 19.2931 74.0112 19.7034V20.8432H72.8713C72.461 20.8432 72.1289 21.1754 72.1289 21.5857C72.1289 21.996 72.461 22.3281 72.8713 22.3281Z" fill="#346EBA"/>
<path d="M89.4391 93.727C89.4391 93.33 89.1169 93.0078 88.7199 93.0078H66.0356C65.6386 93.0078 65.3164 93.33 65.3164 93.727C65.3164 94.124 65.6386 94.4462 66.0356 94.4462H88.7199C89.1169 94.4462 89.4391 94.124 89.4391 93.727Z" fill="#0C2E5A"/>
<path d="M42.2321 93.727C42.2321 93.33 41.9099 93.0078 41.5129 93.0078H18.8286C18.4316 93.0078 18.1094 93.33 18.1094 93.727C18.1094 94.124 18.4316 94.4462 18.8286 94.4462H41.5129C41.9099 94.4462 42.2321 94.124 42.2321 93.727Z" fill="#0C2E5A"/>
<path d="M72.1289 99.5386C72.1289 99.1162 71.5679 98.7734 70.8767 98.7734H31.3811C30.6899 98.7734 30.1289 99.1162 30.1289 99.5386C30.1289 99.9609 30.6899 100.304 31.3811 100.304H70.8767C71.5679 100.304 72.1289 99.9609 72.1289 99.5386Z" fill="#0C2E5A"/>
<path d="M12.4458 93.0078C12.0488 93.0078 11.7266 93.33 11.7266 93.727C11.7266 94.124 12.0488 94.4462 12.4458 94.4462H13.6612C14.0582 94.4462 14.3805 94.124 14.3805 93.727C14.3805 93.33 14.0582 93.0078 13.6612 93.0078H12.4458Z" fill="#0C2E5A"/>
<circle cx="48.984" cy="19.941" r="5.12463" fill="#346EBA"/>
<circle cx="23.5309" cy="64.652" r="5.1051" fill="#346EBA"/>
<circle cx="74.441" cy="64.652" r="5.1051" fill="#346EBA"/>
<path d="M48.9866 27.5256H48.9833L48.9779 27.5256C47.4541 27.5231 45.6262 26.9015 44.2316 25.5558C43.1181 24.4814 42.2762 22.9578 42.0808 20.9395C42.0663 20.7895 42.0549 20.5339 42.0467 20.259C42.0359 19.9034 42.0293 19.4638 42.0277 19.2506C42.0076 16.6467 42.8591 14.939 44.2043 13.846C45.506 12.7884 47.1948 12.3999 48.9569 12.3653L48.9568 12.3597C49.0245 12.3583 49.0912 12.3615 49.1567 12.3688C50.868 12.4211 52.5019 12.8165 53.769 13.846C55.1142 14.9389 55.9658 16.6467 55.9456 19.2506C55.9439 19.4639 55.9374 19.9037 55.9267 20.2593C55.9183 20.5341 55.907 20.7894 55.8925 20.9395C55.6919 23.0112 54.9147 24.5357 53.8058 25.6058C52.5109 26.8553 50.8057 27.4355 49.0591 27.5196L49.0593 27.5238C49.035 27.525 49.0107 27.5255 48.9866 27.5255V27.5256H48.9866ZM46.3275 23.3771C47.12 24.1418 48.1426 24.4943 48.9866 24.4943V24.4963C50.0236 24.4344 51.0047 24.1076 51.7099 23.4271C52.3249 22.8337 52.7611 21.9345 52.8849 20.6553C52.8932 20.5695 52.9009 20.3852 52.9072 20.1764C52.9185 19.803 52.9248 19.4125 52.9261 19.2387C52.9382 17.6746 52.5218 16.726 51.8627 16.1905C51.1847 15.6397 50.1809 15.4226 49.0769 15.3878C49.0569 15.389 49.0367 15.3899 49.0165 15.3903L49.0164 15.3861L48.9866 15.3854C47.8472 15.4111 46.807 15.6247 46.1107 16.1905C45.4516 16.726 45.0351 17.6746 45.0472 19.2387C45.0485 19.4125 45.0548 19.8028 45.0661 20.1761C45.0725 20.385 45.0801 20.5693 45.0884 20.6553C45.2058 21.8676 45.69 22.762 46.3275 23.3771L46.3275 23.3771Z" fill="#0C2E5A"/>
<path d="M54.8611 26.9842C56.801 27.7457 58.4646 29.1861 59.632 31.0517C60.7596 32.8539 61.4263 35.0584 61.4263 37.4264V37.601C61.4263 38.444 61.1168 39.2245 60.6183 39.8027C60.0697 40.4391 59.2959 40.8342 58.4299 40.8342H39.5473C38.6813 40.8342 37.9075 40.4391 37.3588 39.8027C36.8602 39.2245 36.5508 38.444 36.5508 37.601V37.4264C36.5508 35.0423 37.2287 32.8215 38.374 31.0092C39.5732 29.1115 41.2876 27.6588 43.2838 26.9206L43.283 26.9185C43.9283 26.6802 44.6318 26.9089 45.0231 27.4337C45.1186 27.545 45.2131 27.6472 45.3064 27.7396C45.4293 27.8616 45.553 27.9739 45.6768 28.0756C46.1508 28.4654 46.7013 28.7796 47.2863 28.9897C47.838 29.1879 48.4174 29.2926 48.9871 29.279C49.871 29.2578 50.6655 29.0763 51.3541 28.757C52.0313 28.4431 52.6071 27.99 53.064 27.4214L53.061 27.419C53.502 26.87 54.2471 26.7093 54.8611 26.9841L54.8611 26.9842ZM57.0625 32.6503C56.4152 31.6158 55.5645 30.7717 54.5851 30.2043C54.0072 30.7293 53.3498 31.1662 52.6211 31.5041C51.5717 31.9907 50.3753 32.267 49.0582 32.2985C48.11 32.3212 47.1604 32.1522 46.268 31.8316C45.3532 31.5029 44.495 31.0137 43.7586 30.4083C43.6582 30.3258 43.5614 30.2427 43.4683 30.1592C42.4656 30.7209 41.594 31.5713 40.9317 32.6196C40.0839 33.961 39.5821 35.6233 39.5821 37.4264V37.6011C39.5821 37.6873 39.5993 37.7567 39.6278 37.8029H58.3493C58.3778 37.7567 58.395 37.6873 58.395 37.6011V37.4264C58.395 35.6395 57.8999 33.9886 57.0625 32.6503V32.6503Z" fill="#0C2E5A"/>
<path d="M23.5335 72.2366H23.5302L23.5248 72.2365C22.001 72.2341 20.1731 71.6125 18.7785 70.2668C17.665 69.1924 16.8231 67.6688 16.6277 65.6504C16.6132 65.5004 16.6018 65.2449 16.5935 64.9699C16.5827 64.6144 16.5762 64.1747 16.5746 63.9615C16.5545 61.3577 17.406 59.6499 18.7512 58.557C20.0528 57.4994 21.7415 57.1109 23.5037 57.0762L23.5036 57.0706C23.5713 57.0693 23.6379 57.0725 23.7035 57.0798C25.4147 57.1321 27.0488 57.5275 28.3159 58.557C29.661 59.6499 30.5125 61.3577 30.4924 63.9615C30.4908 64.1749 30.4843 64.6147 30.4735 64.9702C30.4651 65.2451 30.4539 65.5003 30.4394 65.6504C30.2388 67.7222 29.4616 69.2467 28.3526 70.3168C27.0578 71.5662 25.3526 72.1464 23.6059 72.2306L23.6062 72.2348C23.5818 72.2359 23.5576 72.2364 23.5335 72.2365V72.2366H23.5335ZM20.8744 68.0881C21.6668 68.8527 22.6895 69.2052 23.5335 69.2052V69.2073C24.5704 69.1454 25.5516 68.8186 26.2568 68.1381C26.8717 67.5447 27.308 66.6455 27.4318 65.3662C27.4401 65.2804 27.4478 65.0961 27.4541 64.8873C27.4653 64.514 27.4717 64.1234 27.473 63.9497C27.4851 62.3856 27.0687 61.437 26.4096 60.9015C25.7315 60.3506 24.7277 60.1336 23.6236 60.0988C23.6036 60.0999 23.5836 60.1009 23.5634 60.1013L23.5633 60.097L23.5335 60.0964C22.3942 60.1221 21.354 60.3357 20.6575 60.9015C19.9984 61.437 19.582 62.3856 19.594 63.9497C19.5954 64.1234 19.6017 64.5137 19.613 64.887C19.6193 65.096 19.627 65.2802 19.6353 65.3662C19.7527 66.5785 20.2369 67.473 20.8744 68.0881H20.8744Z" fill="#0C2E5A"/>
<path d="M29.408 71.6951C31.3479 72.4567 33.0114 73.897 34.1789 75.7627C35.3065 77.5649 35.9732 79.7694 35.9732 82.1373V82.3119C35.9732 83.155 35.6636 83.9355 35.1651 84.5136C34.6165 85.1501 33.8427 85.5451 32.9767 85.5451H14.0941C13.2282 85.5451 12.4544 85.1501 11.9057 84.5136C11.4072 83.9355 11.0977 83.155 11.0977 82.3119V82.1373C11.0977 79.7532 11.7756 77.5325 12.9209 75.7201C14.12 73.8224 15.8345 72.3697 17.8307 71.6315L17.8299 71.6294C18.4751 71.3911 19.1787 71.6198 19.57 72.1447C19.6655 72.2559 19.7599 72.3581 19.8533 72.4506C19.9762 72.5725 20.0998 72.6848 20.2236 72.7865C20.6977 73.1762 21.2482 73.4905 21.8332 73.7007C22.3849 73.8989 22.9642 74.0035 23.534 73.9899C24.4179 73.9687 25.2124 73.7873 25.901 73.468C26.5782 73.154 27.154 72.7009 27.6109 72.1323L27.6079 72.1299C28.0489 71.581 28.794 71.4202 29.408 71.6951L29.408 71.6951ZM31.6094 77.3613C30.962 76.3268 30.1113 75.4826 29.1319 74.9153C28.5541 75.4403 27.8966 75.8772 27.168 76.215C26.1186 76.7017 24.9222 76.9779 23.6051 77.0095C22.6569 77.0322 21.7073 76.8631 20.8149 76.5425C19.9001 76.2138 19.0419 75.7246 18.3055 75.1192C18.2051 75.0367 18.1083 74.9537 18.0152 74.8702C17.0126 75.4319 16.1408 76.2823 15.4785 77.3305C14.6308 78.6719 14.129 80.3342 14.129 82.1373V82.312C14.129 82.3981 14.1461 82.4677 14.1747 82.5138H32.8962C32.9247 82.4677 32.9418 82.3981 32.9418 82.312V82.1373C32.9418 80.3504 32.4468 78.6996 31.6094 77.3613L31.6094 77.3613Z" fill="#0C2E5A"/>
<path d="M74.4398 72.2366H74.4365L74.431 72.2365C72.9073 72.2341 71.0793 71.6125 69.6847 70.2668C68.5713 69.1924 67.7294 67.6688 67.5339 65.6504C67.5194 65.5004 67.5081 65.2449 67.4998 64.9699C67.489 64.6144 67.4824 64.1747 67.4808 63.9615C67.4607 61.3577 68.3123 59.6499 69.6574 58.557C70.9591 57.4994 72.6478 57.1109 74.41 57.0762L74.4099 57.0706C74.4776 57.0693 74.5442 57.0725 74.6097 57.0798C76.321 57.1321 77.955 57.5275 79.2221 58.557C80.5673 59.6499 81.4189 61.3576 81.3987 63.9615C81.3971 64.1749 81.3905 64.6147 81.3798 64.9702C81.3714 65.2451 81.3601 65.5003 81.3457 65.6504C81.1451 67.7222 80.3679 69.2467 79.2589 70.3168C77.964 71.5662 76.2588 72.1464 74.5122 72.2306L74.5124 72.2348C74.4881 72.2359 74.4638 72.2364 74.4398 72.2365V72.2366H74.4398ZM71.7806 68.0881C72.5731 68.8527 73.5957 69.2052 74.4398 69.2052V69.2073C75.4767 69.1454 76.4578 68.8186 77.163 68.1381C77.778 67.5447 78.2142 66.6455 78.3381 65.3662C78.3464 65.2804 78.354 65.0961 78.3603 64.8873C78.3716 64.514 78.3779 64.1234 78.3792 63.9497C78.3913 62.3856 77.9749 61.437 77.3158 60.9015C76.6377 60.3506 75.6339 60.1336 74.5299 60.0988C74.5099 60.0999 74.4898 60.1009 74.4696 60.1013L74.4695 60.097L74.4398 60.0964C73.3004 60.1221 72.2603 60.3357 71.5638 60.9015C70.9046 61.437 70.4882 62.3856 70.5003 63.9497C70.5016 64.1234 70.508 64.5137 70.5193 64.887C70.5256 65.096 70.5333 65.2802 70.5415 65.3662C70.6589 66.5785 71.1431 67.473 71.7806 68.0881H71.7806Z" fill="#0C2E5A"/>
<path d="M80.3142 71.6951C82.2541 72.4567 83.9177 73.897 85.0851 75.7627C86.2128 77.5649 86.8794 79.7694 86.8794 82.1373V82.3119C86.8794 83.155 86.5699 83.9355 86.0714 84.5136C85.5228 85.15 84.7491 85.5451 83.883 85.5451H65.0004C64.1344 85.5451 63.3606 85.1501 62.8119 84.5136C62.3134 83.9355 62.0039 83.155 62.0039 82.3119V82.1373C62.0039 79.7532 62.6819 77.5325 63.8271 75.7201C65.0263 73.8224 66.7407 72.3697 68.7369 71.6315L68.7361 71.6294C69.3814 71.3911 70.085 71.6198 70.4762 72.1447C70.5717 72.2559 70.6662 72.3581 70.7595 72.4506C70.8825 72.5725 71.0061 72.6848 71.1299 72.7865C71.6039 73.1762 72.1544 73.4905 72.7394 73.7007C73.2912 73.8989 73.8705 74.0035 74.4403 73.9899C75.3241 73.9687 76.1186 73.7873 76.8072 73.468C77.4844 73.154 78.0603 72.7009 78.5172 72.1323L78.5141 72.1299C78.9551 71.581 79.7002 71.4202 80.3142 71.6951L80.3142 71.6951ZM82.5156 77.3613C81.8683 76.3268 81.0176 75.4826 80.0382 74.9153C79.4603 75.4403 78.8029 75.8772 78.0742 76.215C77.0248 76.7017 75.8285 76.9779 74.5113 77.0095C73.5631 77.0322 72.6135 76.8631 71.7211 76.5425C70.8064 76.2138 69.9481 75.7246 69.2117 75.1192C69.1113 75.0367 69.0145 74.9537 68.9214 74.8702C67.9188 75.4319 67.0471 76.2823 66.3848 77.3305C65.5371 78.6719 65.0353 80.3342 65.0353 82.1373V82.312C65.0353 82.3981 65.0524 82.4677 65.0809 82.5138H83.8024C83.831 82.4677 83.8481 82.3981 83.8481 82.312V82.1373C83.8481 80.3504 83.353 78.6996 82.5156 77.3613V77.3613Z" fill="#0C2E5A"/>
<path d="M48.4987 84.6615C49.0801 85.2556 50.0378 85.2613 50.6377 84.674C51.2376 84.0867 51.2527 83.1288 50.6714 82.5346L46.4334 78.1878L56.144 78.2617C56.9803 78.2697 57.6713 77.5981 57.6875 76.7618C57.7037 75.9255 57.039 75.241 56.2028 75.233L46.5992 75.1599L50.8766 70.9872C51.4764 70.3999 51.4915 69.442 50.9102 68.8478C50.3288 68.2536 49.371 68.248 48.7711 68.8352L41.9058 75.5325C41.872 75.5602 41.8392 75.5895 41.8074 75.6205C41.2042 76.209 41.1874 77.1706 41.7698 77.768L42.8621 76.7025L41.7758 77.7659L48.4986 84.6615L48.4987 84.6615Z" fill="#0C2E5A"/>
<path d="M35.1055 52.7882C35.1186 53.6193 34.4487 54.3039 33.6093 54.3169C32.7698 54.3299 32.0786 53.6667 32.0655 52.8354L31.9587 46.7656L25.1785 53.7176C24.5958 54.3174 23.6324 54.3359 23.0267 53.7589C22.421 53.182 22.4024 52.228 22.9851 51.6282L29.6906 44.7528L23.7159 44.8562C22.8765 44.8691 22.1852 44.2058 22.1721 43.3747C22.159 42.5434 22.8289 41.8589 23.6683 41.8459L33.2578 41.6801C33.3012 41.6756 33.3451 41.6728 33.3896 41.6721C34.2322 41.6576 34.9272 42.3222 34.9419 43.1565L33.4161 43.1829L34.9362 43.1592L35.1055 52.7882L35.1055 52.7882Z" fill="#0C2E5A"/>
<path d="M76.7149 42.1657C76.7279 41.3345 76.0581 40.6499 75.2187 40.6369C74.3792 40.6239 73.688 41.2872 73.6749 42.1184L73.5681 48.1882L66.7879 41.2363C66.2052 40.6365 65.2418 40.6179 64.6361 41.1949C64.0304 41.7718 64.0118 42.7258 64.5944 43.3256L71.2999 50.201L65.3253 50.0977C64.4859 50.0847 63.7946 50.748 63.7814 51.5791C63.7683 52.4104 64.4382 53.0949 65.2777 53.1079L74.8671 53.2738C74.9106 53.2782 74.9545 53.281 74.9989 53.2817C75.8415 53.2963 76.5366 52.6316 76.5512 51.7973L75.0255 51.7709L76.5455 51.7946L76.7149 42.1656L76.7149 42.1657Z" fill="#0C2E5A"/>
<path d="M11.0959 44.4028C11.5062 44.4028 11.8383 44.0707 11.8383 43.6603C11.8383 43.25 11.5062 42.9179 11.0959 42.9179C10.4079 42.9179 9.84814 42.3581 9.84814 41.6701C9.84814 40.9822 10.4079 40.4224 11.0959 40.4224C11.7839 40.4224 12.3437 40.9822 12.3437 41.6701C12.3437 42.0805 12.6758 42.4126 13.0861 42.4126C13.4964 42.4126 13.8286 42.0805 13.8286 41.6701C13.8286 40.1635 12.6026 38.9375 11.0959 38.9375C9.58928 38.9375 8.36328 40.1635 8.36328 41.6701C8.36328 43.1768 9.58928 44.4028 11.0959 44.4028Z" fill="#346EBA"/>
</svg>
