<svg width="120" height="104" viewBox="0 0 120 104" fill="none" xmlns="http://www.w3.org/2000/svg">
<g clip-path="url(#clip0_494_825)">
<ellipse cx="59.1211" cy="63.764" rx="6.23828" ry="6.55701" fill="#346EBA"/>
<path d="M59.1223 72.3804H59.1192L59.1134 72.3803C57.3889 72.3779 55.3192 71.6736 53.7388 70.1486C52.4766 68.9307 51.5221 67.2012 51.2999 64.9074C51.2835 64.7373 51.2706 64.4437 51.261 64.1265C51.2482 63.7055 51.2405 63.1931 51.2387 62.946C51.2158 59.9867 52.1737 58.0539 53.6868 56.8245C55.158 55.6292 57.0811 55.1899 59.0935 55.1502L59.0934 55.1448C59.1585 55.1435 59.2228 55.1466 59.2859 55.1536C61.2493 55.21 63.1196 55.6559 64.5579 56.8245C66.0711 58.0539 67.029 59.9867 67.006 62.946L65.543 62.9402L67.0117 62.9516C67.0114 62.9961 67.009 63.0402 67.0047 63.0837C67.0016 63.3522 66.9944 63.7706 66.9837 64.1271C66.9741 64.444 66.9612 64.7373 66.9448 64.9074C66.7163 67.2658 65.8364 68.9966 64.5813 70.2076C63.1156 71.6219 61.179 72.2789 59.1925 72.3746L59.1927 72.3786C59.1691 72.3798 59.1456 72.3802 59.1223 72.3803V72.3804L59.1223 72.3804ZM55.7698 68.0373C56.7669 68.9993 58.0565 69.4428 59.1223 69.4428V69.4449C60.4213 69.3706 61.6561 68.9591 62.5503 68.0963C63.3266 67.3472 63.8762 66.2223 64.0302 64.632C64.0406 64.5242 64.0499 64.2997 64.0576 64.0467C64.0687 63.6823 64.0757 63.2953 64.0787 63.0539C64.0755 63.0126 64.0739 62.9709 64.0743 62.9288L64.08 62.9289V62.9287C64.0939 60.9805 63.558 59.785 62.7105 59.0964C61.8447 58.393 60.5855 58.1195 59.211 58.0792C59.1911 58.0804 59.1713 58.0814 59.1513 58.0817L59.1512 58.0776L59.1223 58.077C57.7134 58.108 56.4186 58.3779 55.5342 59.0964C54.6859 59.7857 54.1497 60.9828 54.1648 62.9345C54.1663 63.1433 54.1738 63.6085 54.187 64.0461C54.1947 64.2993 54.2041 64.524 54.2145 64.632C54.3611 66.1448 54.9689 67.2645 55.7698 68.0373H55.7698Z" fill="#0C2E5A"/>
<path d="M65.913 72.3482C68.1409 73.219 70.0528 74.8733 71.3953 77.0187C72.6936 79.0937 73.4611 81.6332 73.4611 84.3626V84.5683C73.4611 85.4841 73.1263 86.3302 72.5871 86.9556C71.9993 87.6375 71.1721 88.0608 70.2476 88.0608H47.9987C47.0742 88.0608 46.247 87.6375 45.6591 86.9556C45.12 86.3302 44.7852 85.4841 44.7852 84.5683V84.3626C44.7852 81.6142 45.5656 79.056 46.8838 76.9698C48.2599 74.7922 50.2248 73.1262 52.5111 72.2809L52.5103 72.2789C53.1361 72.0477 53.8185 72.2699 54.1975 72.7794C54.3187 72.9212 54.4403 73.0528 54.5618 73.1733C54.7124 73.3227 54.8654 73.4615 55.0204 73.5888C55.6064 74.0705 56.2872 74.4592 57.0109 74.7192C57.6967 74.9655 58.418 75.0956 59.1289 75.0786C60.2157 75.0525 61.1938 74.8288 62.043 74.4351C62.8859 74.0442 63.6028 73.4803 64.1717 72.7721L64.1688 72.7697C64.5961 72.2378 65.3181 72.082 65.913 72.3482L65.913 72.3482ZM68.9052 78.5679C68.0702 77.2334 66.9563 76.1574 65.6707 75.464C64.9742 76.1304 64.1703 76.68 63.2707 77.0971C62.0719 77.653 60.7043 77.9685 59.1977 78.0046C58.1201 78.0305 57.0399 77.8381 56.0241 77.473C54.9807 77.0982 54.0017 76.54 53.1615 75.8492C52.9873 75.7061 52.8223 75.561 52.6664 75.4144C51.3537 76.099 50.2149 77.181 49.3623 78.5303C48.3324 80.1601 47.7227 82.1772 47.7227 84.3626V84.5683C47.7227 84.7656 47.7806 84.9313 47.8737 85.0394C47.9183 85.091 47.9636 85.1232 47.9987 85.1232H70.2475C70.2826 85.1232 70.3279 85.091 70.3725 85.0394C70.4656 84.9313 70.5235 84.7656 70.5235 84.5683V84.3626C70.5235 82.1962 69.9223 80.1933 68.9052 78.5679L68.9052 78.5679Z" fill="#0C2E5A"/>
<ellipse cx="39.9062" cy="31.8239" rx="4.40625" ry="4.96057" fill="#346EBA"/>
<ellipse cx="78.3438" cy="33.3121" rx="4.40625" ry="4.96057" fill="#346EBA"/>
<path d="M39.9081 39.1737H39.9049L39.8997 39.1737C38.423 39.1713 36.6516 38.569 35.3001 37.2649C34.2211 36.2237 33.4053 34.7472 33.2158 32.7913C33.2018 32.6459 33.1908 32.3983 33.1828 32.1319C33.1723 31.7873 33.166 31.3613 33.1644 31.1547C33.1449 28.6313 33.9701 26.9764 35.2737 25.9172C36.5351 24.8923 38.1717 24.5158 39.8793 24.4823L39.8792 24.4769C39.9448 24.4756 40.0095 24.4786 40.0729 24.4857C41.7313 24.5364 43.3146 24.9196 44.5426 25.9172C45.846 26.9763 46.6713 28.6312 46.6518 31.1547C46.6502 31.3614 46.6439 31.7876 46.6335 32.1321C46.6254 32.3985 46.6145 32.6458 46.6004 32.7913C46.406 34.799 45.6529 36.2763 44.5782 37.3133C43.3234 38.5241 41.6709 39.0864 39.9783 39.1679L39.9785 39.172C39.9549 39.1731 39.9314 39.1736 39.9081 39.1737V39.1737L39.9081 39.1737ZM37.3312 35.1536C38.0992 35.8946 39.0902 36.2362 39.9081 36.2362V36.2382C40.913 36.1781 41.8638 35.8615 42.5472 35.202C43.1431 34.627 43.5658 33.7556 43.6859 32.5159C43.6939 32.4327 43.7013 32.2542 43.7074 32.0518C43.7183 31.69 43.7245 31.3115 43.7258 31.1432C43.7375 29.6274 43.3339 28.7082 42.6952 28.1892C42.0382 27.6555 41.0654 27.445 39.9956 27.4113C39.9762 27.4125 39.9566 27.4134 39.937 27.4138L39.9369 27.4097L39.9081 27.409C38.804 27.4339 37.7959 27.6409 37.1211 28.1892C36.4824 28.7082 36.0788 29.6274 36.0905 31.1432C36.0918 31.3115 36.0979 31.6898 36.1089 32.0515C36.115 32.254 36.1224 32.4326 36.1304 32.5159C36.2442 33.6907 36.7134 34.5575 37.3312 35.1536L37.3312 35.1536Z" fill="#0C2E5A"/>
<path d="M78.3417 40.662H78.3385L78.3333 40.662C76.8566 40.6596 75.0852 40.0572 73.7337 38.7531C72.6547 37.712 71.8389 36.2355 71.6494 34.2796C71.6354 34.1342 71.6244 33.8866 71.6164 33.6201C71.6059 33.2756 71.5996 32.8495 71.598 32.6429C71.5785 30.1196 72.4037 28.4646 73.7073 27.4055C74.9688 26.3806 76.6053 26.0041 78.3129 25.9706L78.3128 25.9651C78.3784 25.9638 78.4431 25.9669 78.5065 25.974C80.1649 26.0247 81.7482 26.4079 82.9762 27.4055C84.2797 28.4646 85.105 30.1195 85.0854 32.6429C85.0838 32.8496 85.0775 33.2758 85.0671 33.6204C85.059 33.8868 85.0481 34.1341 85.034 34.2796C84.8396 36.2873 84.0865 37.7646 83.0118 38.8016C81.757 40.0124 80.1045 40.5747 78.4119 40.6562L78.4121 40.6603C78.3885 40.6614 78.365 40.6619 78.3417 40.662V40.662H78.3417ZM75.7648 36.6418C76.5328 37.3829 77.5238 37.7244 78.3417 37.7244V37.7264C79.3466 37.6664 80.2974 37.3497 80.9808 36.6903C81.5767 36.1152 81.9994 35.2439 82.1195 34.0042C82.1275 33.921 82.1349 33.7424 82.141 33.5401C82.1519 33.1783 82.1581 32.7998 82.1594 32.6314C82.1711 31.1157 81.7675 30.1965 81.1288 29.6775C80.4718 29.1437 79.499 28.9333 78.4292 28.8996C78.4098 28.9008 78.3902 28.9017 78.3706 28.9021L78.3705 28.8979L78.3417 28.8973C77.2376 28.9222 76.2296 29.1292 75.5547 29.6775C74.916 30.1965 74.5124 31.1157 74.5241 32.6314C74.5254 32.7998 74.5315 33.178 74.5425 33.5398C74.5486 33.7423 74.556 33.9208 74.564 34.0042C74.6778 35.179 75.147 36.0457 75.7648 36.6418L75.7648 36.6418Z" fill="#0C2E5A"/>
<path d="M66.6365 47.3895C66.4432 48.1753 66.9236 48.9691 67.7094 49.1624C68.4952 49.3556 69.289 48.8753 69.4822 48.0895C69.7932 46.8238 70.3698 45.6889 71.1356 44.7735C71.6725 44.1318 72.3007 43.6008 72.9924 43.2126C73.0826 43.2934 73.1763 43.3738 73.2734 43.4536C73.987 44.0403 74.8187 44.5144 75.7052 44.8329C76.57 45.1436 77.4903 45.3074 78.4091 45.2854C79.6855 45.2548 80.8449 44.9872 81.8618 44.5156C82.5681 44.1881 83.2052 43.7646 83.7653 43.2558C84.6204 43.7506 85.374 44.4623 85.9733 45.3298C86.7729 46.4873 87.2971 47.9219 87.4268 49.4959C87.4396 49.6503 87.4668 50.504 87.4933 51.4475C87.5284 52.6937 87.5647 54.2133 87.5647 54.4681C87.5647 55.2792 88.2223 55.9369 89.0335 55.9369C89.8446 55.9369 90.5023 55.2792 90.5023 54.4681C90.5023 54.384 90.4602 52.8142 90.4194 51.3672C90.3891 50.2915 90.3606 49.3484 90.3529 49.2548C90.1807 47.1653 89.4701 45.2397 88.3829 43.6659C87.2712 42.0567 85.7652 40.8155 84.0318 40.1351C83.437 39.8692 82.7154 40.0251 82.2882 40.5568L82.2911 40.5592C81.8483 41.1102 81.2903 41.5493 80.634 41.8535C79.9668 42.1629 79.1968 42.3388 78.3403 42.3593C77.7881 42.3725 77.2267 42.2711 76.692 42.079C76.1252 41.8753 75.5917 41.5708 75.1323 41.1932C75.0123 41.0945 74.8925 40.9857 74.7734 40.8676C74.6829 40.778 74.5914 40.679 74.4988 40.5711C74.1197 40.0625 73.4379 39.8409 72.8126 40.0718L72.8133 40.0739C71.3 40.6335 69.9555 41.6139 68.8866 42.8916C67.8411 44.1414 67.0562 45.6811 66.6365 47.3895V47.3895Z" fill="#0C2E5A"/>
<path d="M48.9731 48.0895C49.1664 48.8753 49.9602 49.3556 50.746 49.1624C51.5318 48.9691 52.0121 48.1753 51.8189 47.3895C51.3991 45.6811 50.6143 44.1414 49.5688 42.8916C48.4999 41.6139 47.1553 40.6335 45.6421 40.0739L45.6428 40.0718C45.0175 39.8409 44.3357 40.0625 43.9565 40.5711C43.864 40.679 43.7724 40.778 43.682 40.8676C43.5629 40.9857 43.443 41.0945 43.3231 41.1932C42.8637 41.5708 42.3302 41.8753 41.7633 42.079C41.2286 42.2711 40.6672 42.3725 40.1151 42.3593C39.2586 42.3388 38.4886 42.1629 37.8213 41.8535C37.1651 41.5493 36.6071 41.1102 36.1643 40.5592L36.1672 40.5568C35.74 40.0251 35.0184 39.8692 34.4236 40.1351C32.6902 40.8155 31.1841 42.0567 30.0724 43.6659C28.9853 45.2397 28.2746 47.1653 28.1025 49.2548C28.0948 49.3484 28.0663 50.2915 28.036 51.3672C27.9952 52.8142 27.9531 54.384 27.9531 54.4681C27.9531 55.2792 28.6108 55.9369 29.4219 55.9369C30.2331 55.9369 30.8907 55.2792 30.8907 54.4681C30.8907 54.2133 30.927 52.6937 30.962 51.4475C30.9886 50.504 31.0158 49.6503 31.0286 49.4959C31.1583 47.9219 31.6824 46.4873 32.4821 45.3298C33.0814 44.4623 33.835 43.7506 34.6901 43.2558C35.2502 43.7646 35.8873 44.1881 36.5936 44.5156C37.6105 44.9872 38.7699 45.2548 40.0463 45.2854C40.9651 45.3074 41.8854 45.1436 42.7502 44.8329C43.6366 44.5144 44.4683 44.0403 45.182 43.4536C45.2791 43.3738 45.3728 43.2934 45.4629 43.2126C46.1547 43.6007 46.7829 44.1318 47.3198 44.7735C48.0855 45.6889 48.6622 46.8238 48.9731 48.0895L48.9731 48.0895Z" fill="#0C2E5A"/>
<path d="M47.7185 78.7001C48.5202 78.8205 49.2677 78.2682 49.3881 77.4666C49.5085 76.6649 48.9562 75.9174 48.1546 75.797C41.4657 74.7888 35.7613 72.8968 31.7871 70.4478C28.193 68.2331 26.0782 65.6128 26.0782 62.874C26.0782 59.3167 29.6061 55.9855 35.3098 53.4753C41.3786 50.8045 49.7966 49.1524 59.1251 49.1524C68.4536 49.1524 76.8716 50.8045 82.9404 53.4753C88.644 55.9855 92.1719 59.3168 92.1719 62.874C92.1719 65.6211 90.0434 68.2488 86.428 70.4671C82.4231 72.9244 76.6857 74.8179 69.9691 75.8168C69.1675 75.934 68.6126 76.679 68.7298 77.4806C68.847 78.2822 69.5921 78.8371 70.3937 78.7199C77.4982 77.6633 83.621 75.6273 87.9541 72.9686C92.4579 70.2052 95.1095 66.7254 95.1095 62.874C95.1095 58.0419 90.9107 53.7778 84.1223 50.7903C77.6989 47.9634 68.859 46.2148 59.125 46.2148C49.3911 46.2148 40.5512 47.9634 34.1278 50.7903C27.3394 53.7778 23.1406 58.0419 23.1406 62.874C23.1406 66.7117 25.774 70.18 30.2495 72.9378C34.5644 75.5967 40.6544 77.6354 47.7185 78.7001H47.7185Z" fill="#0C2E5A"/>
<path d="M9.93737 20.1647H11.2626V21.4899C11.2626 21.967 11.6487 22.3531 12.1258 22.3531C12.6028 22.3531 12.9889 21.967 12.9889 21.4899V20.1647H14.3142C14.7912 20.1647 15.1773 19.7786 15.1773 19.3015C15.1773 18.8245 14.7912 18.4384 14.3142 18.4384H12.9889V17.1132C12.9889 16.6361 12.6028 16.25 12.1258 16.25C11.6487 16.25 11.2626 16.6361 11.2626 17.1132V18.4384H9.93737C9.46034 18.4384 9.07422 18.8245 9.07422 19.3015C9.07422 19.7786 9.46091 20.1647 9.93737 20.1647Z" fill="#346EBA"/>
<path d="M106.887 37.7936H108.212V39.1188C108.212 39.5959 108.598 39.982 109.075 39.982C109.552 39.982 109.938 39.5959 109.938 39.1188V37.7936H111.263C111.74 37.7936 112.127 37.4075 112.127 36.9304C112.127 36.4534 111.74 36.0673 111.263 36.0673H109.938V34.7421C109.938 34.265 109.552 33.8789 109.075 33.8789C108.598 33.8789 108.212 34.265 108.212 34.7421V36.0673H106.887C106.41 36.0673 106.023 36.4534 106.023 36.9304C106.023 37.4075 106.41 37.7936 106.887 37.7936Z" fill="#346EBA"/>
<path d="M75.1653 12.4477C75.6423 12.4477 76.0284 12.0616 76.0284 11.5846C76.0284 11.1075 75.6423 10.7214 75.1653 10.7214C74.3654 10.7214 73.7146 10.0706 73.7146 9.27074C73.7146 8.47088 74.3654 7.82006 75.1653 7.82006C75.9651 7.82006 76.616 8.47088 76.616 9.27074C76.616 9.74777 77.0021 10.1339 77.4791 10.1339C77.9561 10.1339 78.3423 9.74777 78.3423 9.27074C78.3423 7.51911 76.9169 6.09375 75.1653 6.09375C73.4136 6.09375 71.9883 7.51911 71.9883 9.27074C71.9883 11.0224 73.4136 12.4477 75.1653 12.4477Z" fill="#346EBA"/>
<path d="M71.8493 97.4575C71.8493 97.0605 71.5271 96.7383 71.1301 96.7383H48.4458C48.0488 96.7383 47.7266 97.0605 47.7266 97.4575C47.7266 97.8545 48.0488 98.1767 48.4458 98.1767H71.1301C71.5271 98.1767 71.8493 97.8545 71.8493 97.4575Z" fill="#0C2E5A"/>
<path d="M78.3438 102.503C78.3438 102.081 77.7828 101.738 77.0915 101.738H37.596C36.9047 101.738 36.3438 102.081 36.3438 102.503C36.3438 102.926 36.9047 103.269 37.596 103.269H77.0915C77.7828 103.269 78.3438 102.926 78.3438 102.503Z" fill="#0C2E5A"/>
<path d="M42.063 96.7383C41.666 96.7383 41.3438 97.0605 41.3438 97.4575C41.3438 97.8545 41.666 98.1767 42.063 98.1767H43.2784C43.6754 98.1767 43.9976 97.8545 43.9976 97.4575C43.9976 97.0605 43.6754 96.7383 43.2784 96.7383H42.063Z" fill="#0C2E5A"/>
<path d="M11.3668 84.7101C12.631 84.7101 13.6593 83.6812 13.6593 82.4175C13.6593 81.1539 12.6304 80.125 11.3668 80.125C10.1031 80.125 9.07422 81.1533 9.07422 82.4175C9.07422 83.6818 10.1025 84.7101 11.3668 84.7101ZM11.3668 81.8513C11.6792 81.8513 11.933 82.1051 11.933 82.4175C11.933 82.73 11.6792 82.9838 11.3668 82.9838C11.0543 82.9838 10.8005 82.73 10.8005 82.4175C10.8005 82.1051 11.0543 81.8513 11.3668 81.8513Z" fill="#346EBA"/>
</g>
<defs>
<clipPath id="clip0_494_825">
<rect width="119" height="103" fill="white" transform="translate(0.125 0.269531)"/>
</clipPath>
</defs>
</svg>
