<svg width="119" height="96" viewBox="0 0 119 96" fill="none" xmlns="http://www.w3.org/2000/svg">
<path d="M30.3411 50.1159L44.9068 -11.5742H24.3434L6.35049 47.5455C2.06646 59.9691 0.78125 65.11 0.78125 71.9644C0.78125 84.8166 9.77772 95.0982 23.4866 95.0982C35.9103 95.0982 45.7636 85.6734 45.7636 71.9644C45.7636 61.2544 39.766 53.1147 30.3411 50.1159ZM103.17 50.1159L117.735 -11.5742H97.172L79.1791 47.5455C74.895 59.9691 73.6098 65.11 73.6098 71.9644C73.6098 84.8166 82.6063 95.0982 96.3152 95.0982C108.739 95.0982 118.592 85.6734 118.592 71.9644C118.592 61.2544 112.595 53.1147 103.17 50.1159Z" fill="white" fill-opacity="0.1"/>
</svg>
