<svg width="26" height="31" viewBox="0 0 26 31" fill="none" xmlns="http://www.w3.org/2000/svg">
<path d="M25.7632 22.153C25.5958 22.6379 25.4205 23.1007 25.2342 23.5445C24.7795 24.5932 24.2426 25.5582 23.6205 26.4443C22.7742 27.6541 22.0795 28.4911 21.5442 28.9555C20.7153 29.7183 19.8263 30.11 18.8742 30.1305C18.1905 30.1305 17.3679 29.9363 16.4079 29.543C15.4463 29.1497 14.5621 28.9555 13.7537 28.9555C12.9058 28.9555 11.9963 29.1497 11.0237 29.543C10.0495 29.9363 9.26474 30.1432 8.66474 30.1621C7.75211 30.2016 6.84263 29.8005 5.93474 28.9555C5.35526 28.4501 4.63053 27.583 3.76211 26.3558C2.83053 25.0449 2.06474 23.524 1.46474 21.7898C0.822105 19.9182 0.5 18.1051 0.5 16.3504C0.5 14.3398 0.934211 12.6056 1.80421 11.1526C2.4879 9.98544 3.39737 9.06466 4.53579 8.38868C5.67421 7.7127 6.90421 7.36839 8.22895 7.34628C8.95368 7.34628 9.90421 7.57055 11.0853 8.0112C12.2632 8.45343 13.0195 8.67771 13.3511 8.67771C13.5989 8.67771 14.4389 8.41553 15.8632 7.89275C17.21 7.40788 18.3468 7.20729 19.2784 7.28626C21.8016 7.49001 23.6963 8.48502 24.9579 10.2776C22.7016 11.6454 21.5853 13.5612 21.6074 16.0187C21.6279 17.9329 22.3211 19.5265 23.6853 20.7916C24.3042 21.3776 24.9958 21.8309 25.7632 22.153ZM19.4158 0.164795C19.4363 0.365378 19.4458 0.565961 19.4458 0.764964C19.4458 2.26538 18.8979 3.6663 17.8068 4.96298C16.4884 6.50447 14.8937 7.39524 13.1647 7.25468C13.1426 7.07463 13.13 6.8851 13.13 6.6861C13.13 5.24569 13.7568 3.70421 14.87 2.44386C15.4258 1.80578 16.1332 1.27511 16.9889 0.851829C17.8447 0.43487 18.6547 0.20428 19.4158 0.164795Z" fill="white"/>
</svg>
