<svg width="371" height="171" viewBox="0 0 371 171" fill="none" xmlns="http://www.w3.org/2000/svg">
<path fill-rule="evenodd" clip-rule="evenodd" d="M353.931 21.1776C353.885 21.6911 353.833 22.2028 353.775 22.7125L352.782 22.5993C352.839 22.0976 352.89 21.5941 352.935 21.0887L353.931 21.1776ZM353.354 25.7485C353.19 26.7528 353.002 27.7495 352.791 28.7384L351.813 28.5299C352.021 27.5565 352.206 26.5756 352.367 25.5871L353.354 25.7485ZM352.08 31.7214C351.82 32.708 351.537 33.6865 351.231 34.6569L350.277 34.3568C350.578 33.4011 350.857 32.4376 351.113 31.4664L352.08 31.7214ZM350.248 37.5481C349.898 38.5051 349.526 39.4538 349.133 40.3942L348.21 40.009C348.597 39.0821 348.964 38.1472 349.309 37.2045L350.248 37.5481ZM15.6312 89.2601C14.6295 89.3506 13.6619 89.4728 12.7304 89.628L12.566 88.6416C13.5243 88.4819 14.5167 88.3567 15.5412 88.2641L15.6312 89.2601ZM9.87702 90.2384C8.90621 90.4971 7.98559 90.8002 7.11764 91.1498L6.74408 90.2222C7.65332 89.856 8.61303 89.5403 9.61956 89.2721L9.87702 90.2384ZM21.4899 89.0727C20.487 89.0539 19.5082 89.0583 18.555 89.0871L18.5248 88.0876C19.4955 88.0583 20.4906 88.0538 21.5086 88.0729L21.4899 89.0727ZM27.3755 89.4165C26.3757 89.3226 25.3937 89.2466 24.4308 89.1894L24.4901 88.1912C25.4652 88.2491 26.4586 88.326 27.4691 88.4209L27.3755 89.4165ZM4.5294 92.425C4.11598 92.6722 3.71926 92.9339 3.33959 93.2105L2.75078 92.4022C3.15576 92.1072 3.57779 91.8288 4.01623 91.5667L4.5294 92.425ZM33.2348 90.136C32.2506 89.9892 31.2797 89.8564 30.3231 89.7382L30.4457 88.7457C31.4111 88.865 32.3903 88.999 33.3823 89.1469L33.2348 90.136ZM39.0628 91.1337C38.08 90.9454 37.1077 90.7685 36.1467 90.6036L36.3158 89.618C37.2835 89.7841 38.2622 89.9621 39.2509 90.1516L39.0628 91.1337ZM347.893 43.1902C347.462 44.1091 347.011 45.0198 346.54 45.9222L345.653 45.4597C346.118 44.5695 346.563 43.6713 346.988 42.7652L347.893 43.1902ZM44.8447 92.3426C43.8758 92.1242 42.915 91.9151 41.9629 91.7157L42.1679 90.7369C43.1252 90.9374 44.091 91.1476 45.0645 91.367L44.8447 92.3426ZM50.6055 93.7228C49.6415 93.479 48.6837 93.2428 47.7328 93.0147L47.966 92.0423C48.9211 92.2713 49.8829 92.5085 50.8507 92.7533L50.6055 93.7228ZM345.071 48.6042C344.566 49.4846 344.042 50.3567 343.5 51.2205L342.653 50.6894C343.188 49.8364 343.705 48.9753 344.204 48.1063L345.071 48.6042ZM56.3316 95.2385C55.3713 94.9737 54.4158 94.7152 53.4657 94.4636L53.7217 93.4969C54.6753 93.7495 55.6341 94.0088 56.5975 94.2745L56.3316 95.2385ZM62.0197 96.8633C61.068 96.5826 60.1198 96.3071 59.1756 96.0373L59.4504 95.0758C60.3974 95.3464 61.3484 95.6227 62.3026 95.9041L62.0197 96.8633ZM341.833 53.7741C341.26 54.6167 340.671 55.451 340.065 56.2769L339.259 55.6856C339.857 54.8691 340.44 54.0445 341.006 53.212L341.833 53.7741ZM67.687 98.5821C66.7425 98.2882 65.8003 97.9985 64.8609 97.7135L65.1512 96.7566C66.093 97.0423 67.0375 97.3327 67.9841 97.6273L67.687 98.5821ZM338.227 58.6964C337.599 59.4948 336.956 60.285 336.299 61.067L335.533 60.4235C336.184 59.6497 336.82 58.8679 337.441 58.0782L338.227 58.6964ZM73.3335 100.379C72.3931 100.074 71.4539 99.7713 70.5164 99.4729L70.8198 98.52C71.7592 98.8191 72.7003 99.1219 73.6426 99.4282L73.3335 100.379ZM78.96 102.242C78.0226 101.926 77.0855 101.613 76.1492 101.303L76.4635 100.354C77.4014 100.664 78.3401 100.978 79.2791 101.294L78.96 102.242ZM239.528 75.9489C240.519 75.7922 241.511 75.6499 242.502 75.5225L242.63 76.5143C241.648 76.6404 240.666 76.7814 239.684 76.9366L239.528 75.9489ZM233.627 77.0553C234.602 76.8435 235.584 76.6449 236.57 76.4601L236.754 77.443C235.777 77.6261 234.805 77.8228 233.839 78.0325L233.627 77.0553ZM245.483 75.1845C246.486 75.086 247.486 75.0037 248.479 74.9382L248.545 75.936C247.563 76.0008 246.573 76.0823 245.58 76.1797L245.483 75.1845ZM227.795 78.5015C228.751 78.2336 229.72 77.9781 230.698 77.7357L230.938 78.7064C229.97 78.9464 229.011 79.1993 228.064 79.4644L227.795 78.5015ZM251.487 74.7908C252.5 74.7589 253.503 74.7457 254.492 74.752L254.486 75.7519C253.509 75.7457 252.519 75.7587 251.518 75.7903L251.487 74.7908ZM334.3 63.3714C333.625 64.1254 332.937 64.8714 332.237 65.6093L331.511 64.9208C332.205 64.1899 332.887 63.4511 333.555 62.7046L334.3 63.3714ZM222.064 80.311C222.999 79.9798 223.954 79.6608 224.925 79.3547L225.226 80.3085C224.265 80.6111 223.321 80.9264 222.398 81.2536L222.064 80.311ZM257.49 74.8334C258.512 74.8834 259.515 74.9564 260.497 75.0533L260.399 76.0484C259.435 75.9533 258.447 75.8815 257.441 75.8322L257.49 74.8334ZM216.472 82.549C217.367 82.1441 218.292 81.7514 219.242 81.372L219.613 82.3007C218.675 82.6749 217.764 83.0617 216.884 83.4601L216.472 82.549ZM84.5675 104.158C83.6339 103.834 82.6996 103.513 81.7652 103.193L82.0887 102.247C83.0245 102.567 83.9601 102.889 84.895 103.213L84.5675 104.158ZM263.5 75.4363C264.523 75.5987 265.516 75.7911 266.472 76.0149L266.245 76.9886C265.313 76.7708 264.345 76.5829 263.343 76.424L263.5 75.4363ZM211.135 85.3333C211.966 84.8286 212.844 84.3372 213.764 83.8602L214.224 84.7478C213.323 85.2154 212.465 85.696 211.654 86.188L211.135 85.3333ZM330.097 67.7989C329.381 68.5113 328.654 69.2157 327.915 69.9123L327.229 69.1847C327.961 68.4942 328.682 67.796 329.392 67.0901L330.097 67.7989ZM90.1605 106.12C89.2303 105.79 88.2985 105.461 87.3656 105.134L87.6967 104.19C88.6307 104.518 89.5636 104.847 90.4948 105.177L90.1605 106.12ZM269.394 76.8358C270.392 77.1688 271.337 77.545 272.223 77.9665L271.793 78.8693C270.948 78.4673 270.041 78.106 269.077 77.7843L269.394 76.8358ZM206.262 88.9613C206.967 88.2943 207.755 87.6439 208.615 87.0117L209.207 87.8176C208.375 88.4287 207.62 89.0528 206.95 89.6876L206.262 88.9613ZM95.7421 108.119C94.8142 107.784 93.8838 107.449 92.9514 107.115L93.2887 106.174C94.222 106.508 95.1533 106.843 96.082 107.179L95.7421 108.119ZM325.669 71.9748C324.912 72.652 324.145 73.3214 323.368 73.9828L322.72 73.2213C323.491 72.5652 324.252 71.9012 325.002 71.2296L325.669 71.9748ZM274.876 79.4986C275.747 80.1094 276.525 80.7867 277.195 81.5344L276.451 82.202C275.836 81.5172 275.117 80.8894 274.302 80.3173L274.876 79.4986ZM203.396 92.5689C203.632 92.1304 203.906 91.698 204.213 91.272L205.024 91.8567C204.74 92.2507 204.49 92.6465 204.276 93.0438C204.015 93.5266 203.779 93.9991 203.566 94.4611L202.658 94.0421C202.88 93.56 203.126 93.069 203.396 92.5689ZM101.313 110.148C100.387 109.808 99.4566 109.468 98.5235 109.128L98.8657 108.189C99.7995 108.529 100.73 108.869 101.657 109.209L101.313 110.148ZM321.031 75.9249C320.242 76.5645 319.445 77.1962 318.638 77.8201L318.026 77.0292C318.827 76.4099 319.618 75.7829 320.401 75.1483L321.031 75.9249ZM106.875 112.197C105.952 111.855 105.025 111.513 104.093 111.17L104.439 110.231C105.371 110.575 106.299 110.917 107.222 111.259L106.875 112.197ZM278.931 84.1201C279.369 85.0389 279.676 86.0296 279.839 87.0935L278.85 87.2449C278.702 86.2761 278.424 85.3795 278.028 84.5506L278.931 84.1201ZM316.21 79.657C315.395 80.2591 314.573 80.8534 313.744 81.44L313.166 80.6235C313.99 80.0409 314.807 79.4507 315.615 78.8529L316.21 79.657ZM201.052 99.9776C201.098 98.9992 201.274 97.9698 201.584 96.8899L202.545 97.1655C202.254 98.1804 202.093 99.133 202.051 100.025L201.052 99.9776ZM112.427 114.258C111.509 113.917 110.586 113.573 109.658 113.229L110.006 112.291C110.935 112.636 111.858 112.979 112.775 113.321L112.427 114.258ZM311.234 83.1762C310.395 83.7438 309.55 84.3036 308.699 84.8557L308.155 84.0166C309 83.4681 309.84 82.9119 310.673 82.3481L311.234 83.1762ZM115.315 115.333L115.216 115.296L115.565 114.359C116.498 114.706 117.424 115.051 118.343 115.393L117.994 116.33C117.108 116 116.215 115.668 115.315 115.333ZM306.128 86.4876C305.266 87.0235 304.398 87.5516 303.525 88.0719L303.013 87.2129C303.881 86.6957 304.743 86.1708 305.6 85.6382L306.128 86.4876ZM279.918 90.1774C279.832 91.1361 279.647 92.1404 279.358 93.1913L278.394 92.9264C278.668 91.927 278.842 90.9813 278.922 90.0876L279.918 90.1774ZM202.84 106.016C202.188 105.149 201.704 104.193 201.403 103.15L202.363 102.873C202.63 103.795 203.058 104.641 203.639 105.415L202.84 106.016ZM300.897 89.6064C300.016 90.1101 299.131 90.6059 298.241 91.0938L297.76 90.2172C298.645 89.732 299.525 89.239 300.4 88.7383L300.897 89.6064ZM123.558 118.395C122.637 118.055 121.706 117.709 120.766 117.361L121.114 116.423C122.054 116.772 122.984 117.117 123.905 117.457L123.558 118.395ZM295.559 92.5357C294.66 93.0089 293.758 93.4742 292.852 93.9314L292.402 93.0388C293.302 92.5841 294.199 92.1214 295.093 91.6508L295.559 92.5357ZM129.113 120.438C128.199 120.104 127.274 119.765 126.338 119.421L126.683 118.482C127.618 118.826 128.543 119.165 129.456 119.498L129.113 120.438ZM278.348 96.0856C277.976 96.9714 277.539 97.887 277.033 98.8331L276.151 98.3615C276.644 97.4406 277.067 96.5534 277.425 95.6991L278.348 96.0856ZM290.128 95.2791C289.212 95.723 288.294 96.1587 287.373 96.5862L286.952 95.6793C287.868 95.254 288.781 94.8207 289.692 94.3792L290.128 95.2791ZM207.814 109.81C206.816 109.345 205.913 108.821 205.114 108.233L205.707 107.427C206.445 107.971 207.289 108.463 208.236 108.903L207.814 109.81ZM284.603 97.8461C283.676 98.2584 282.749 98.6624 281.82 99.058L281.428 98.1381C282.352 97.7445 283.275 97.3426 284.196 96.9325L284.603 97.8461ZM133.293 121.951C132.837 121.787 132.378 121.622 131.916 121.455L132.255 120.515C132.717 120.681 133.175 120.846 133.63 121.009C134.107 121.18 134.582 121.351 135.056 121.52L134.72 122.462C134.245 122.292 133.77 122.122 133.293 121.951ZM279 100.234C278.059 100.617 277.118 100.992 276.178 101.358L275.815 100.426C276.751 100.062 277.687 99.6888 278.622 99.3075L279 100.234ZM213.654 111.656C212.608 111.441 211.614 111.189 210.679 110.9L210.975 109.945C211.876 110.223 212.837 110.467 213.855 110.676L213.654 111.656ZM275.541 101.394C275.025 102.215 274.461 103.058 273.848 103.922L273.032 103.343C273.636 102.493 274.189 101.666 274.695 100.862L275.541 101.394ZM273.333 102.439C272.375 102.795 271.419 103.141 270.463 103.479L270.13 102.536C271.08 102.2 272.032 101.855 272.985 101.502L273.333 102.439ZM140.388 124.476C139.447 124.145 138.501 123.81 137.55 123.471L137.885 122.529C138.836 122.867 139.781 123.202 140.721 123.533L140.388 124.476ZM267.603 104.464C266.63 104.79 265.66 105.107 264.692 105.414L264.389 104.461C265.352 104.156 266.317 103.84 267.285 103.516L267.603 104.464ZM219.75 112.457C218.707 112.385 217.697 112.286 216.724 112.162L216.851 111.17C217.804 111.292 218.794 111.388 219.82 111.46L219.75 112.457ZM261.787 106.311C260.811 106.603 259.84 106.886 258.872 107.158L258.601 106.196C259.563 105.925 260.53 105.644 261.5 105.353L261.787 106.311ZM225.884 112.597C224.832 112.617 223.804 112.616 222.803 112.595L222.824 111.595C223.812 111.616 224.826 111.617 225.865 111.597L225.884 112.597ZM255.918 107.963C254.938 108.221 253.963 108.468 252.995 108.705L252.757 107.733C253.72 107.498 254.689 107.252 255.663 106.996L255.918 107.963ZM231.985 112.273C230.94 112.361 229.914 112.433 228.906 112.487L228.853 111.488C229.85 111.435 230.866 111.364 231.9 111.276L231.985 112.273ZM250.001 109.407C249.006 109.631 248.017 109.843 247.036 110.044L246.836 109.064C247.81 108.865 248.792 108.654 249.782 108.431L250.001 109.407ZM146.068 126.46C145.124 126.134 144.174 125.804 143.219 125.47L143.549 124.526C144.503 124.86 145.452 125.189 146.395 125.515L146.068 126.46ZM238.037 111.594C237.007 111.737 235.99 111.864 234.988 111.976L234.876 110.983C235.87 110.871 236.878 110.745 237.9 110.604L238.037 111.594ZM244.041 110.626C243.028 110.812 242.025 110.985 241.033 111.145L240.874 110.158C241.859 109.999 242.855 109.827 243.861 109.642L244.041 110.626ZM272.058 106.322C271.465 107.083 270.836 107.858 270.17 108.65L269.405 108.007C270.064 107.224 270.685 106.457 271.27 105.707L272.058 106.322ZM151.764 128.399C150.815 128.081 149.86 127.758 148.9 127.431L149.223 126.485C150.181 126.811 151.134 127.133 152.082 127.451L151.764 128.399ZM268.198 110.919C267.853 111.305 267.499 111.693 267.137 112.086C266.789 112.463 266.44 112.836 266.092 113.205L265.365 112.519C265.711 112.153 266.056 111.782 266.402 111.408C266.761 111.019 267.111 110.634 267.453 110.252L268.198 110.919ZM157.479 130.277C156.528 129.971 155.573 129.66 154.611 129.344L154.923 128.394C155.883 128.71 156.837 129.02 157.785 129.325L157.479 130.277ZM264.001 115.366C263.281 116.093 262.56 116.802 261.839 117.493L261.147 116.771C261.862 116.086 262.577 115.383 263.291 114.662L264.001 115.366ZM163.216 132.076C162.265 131.786 161.309 131.49 160.347 131.188L160.646 130.234C161.606 130.535 162.559 130.831 163.508 131.12L163.216 132.076ZM168.992 133.778C168.036 133.507 167.075 133.229 166.108 132.944L166.391 131.985C167.355 132.269 168.313 132.546 169.265 132.816L168.992 133.778ZM259.642 119.541C258.885 120.228 258.127 120.895 257.369 121.543L256.719 120.783C257.47 120.141 258.22 119.48 258.97 118.8L259.642 119.541ZM174.812 135.358C173.847 135.109 172.876 134.852 171.899 134.586L172.161 133.621C173.134 133.885 174.101 134.142 175.062 134.39L174.812 135.358ZM255.04 123.472C254.249 124.107 253.457 124.721 252.664 125.315L252.064 124.515C252.848 123.927 253.632 123.32 254.414 122.692L255.04 123.472ZM180.667 136.782C179.691 136.561 178.71 136.329 177.722 136.089L177.959 135.117C178.942 135.356 179.918 135.587 180.889 135.807L180.667 136.782ZM250.205 127.092C249.368 127.674 248.53 128.235 247.69 128.775L247.149 127.933C247.979 127.4 248.807 126.846 249.633 126.271L250.205 127.092ZM186.557 138.016C185.581 137.83 184.599 137.633 183.611 137.426L183.817 136.447C184.798 136.653 185.774 136.849 186.744 137.034L186.557 138.016ZM192.516 139.025C191.528 138.88 190.535 138.723 189.535 138.553L189.703 137.567C190.695 137.736 191.681 137.892 192.661 138.036L192.516 139.025ZM245.121 130.356C244.244 130.873 243.365 131.368 242.484 131.84L242.011 130.959C242.88 130.493 243.748 130.005 244.613 129.495L245.121 130.356ZM198.504 139.757C197.508 139.662 196.506 139.552 195.499 139.428L195.621 138.436C196.62 138.558 197.612 138.667 198.599 138.762L198.504 139.757ZM239.783 133.217C238.869 133.659 237.952 134.078 237.032 134.475L236.636 133.557C237.543 133.165 238.446 132.752 239.348 132.316L239.783 133.217ZM204.53 140.164C203.531 140.127 202.526 140.073 201.516 140.005L201.584 139.007C202.584 139.075 203.579 139.128 204.568 139.165L204.53 140.164ZM234.232 135.612C233.284 135.973 232.333 136.311 231.378 136.627L231.064 135.677C232.004 135.366 232.942 135.033 233.876 134.677L234.232 135.612ZM210.574 140.19C209.57 140.221 208.56 140.233 207.546 140.228L207.551 139.228C208.554 139.233 209.552 139.221 210.544 139.191L210.574 140.19ZM228.482 137.514C227.509 137.789 226.533 138.041 225.552 138.272L225.323 137.299C226.29 137.071 227.252 136.823 228.21 136.552L228.482 137.514ZM216.607 139.785C215.608 139.891 214.604 139.977 213.595 140.045L213.528 139.047C214.525 138.98 215.516 138.895 216.502 138.79L216.607 139.785ZM222.592 138.902C221.602 139.091 220.607 139.258 219.607 139.405L219.462 138.416C220.448 138.271 221.429 138.106 222.405 137.92L222.592 138.902Z" fill="#CACACA"/>
<path d="M359.379 0.453674C359.227 0.413088 359.067 0.417858 358.918 0.467392C358.769 0.516926 358.638 0.60905 358.541 0.732358L344.29 18.8429C344.187 18.9742 344.127 19.1345 344.119 19.3013C344.111 19.4682 344.156 19.6333 344.246 19.7737C344.337 19.9141 344.469 20.0227 344.624 20.0845C344.779 20.1462 344.95 20.158 345.112 20.1182L354.744 17.7502L361.902 24.6174C362.022 24.7334 362.176 24.8088 362.342 24.8331C362.507 24.8573 362.676 24.8293 362.825 24.7528L362.859 24.7333C362.998 24.653 363.109 24.5331 363.179 24.3889C363.249 24.2446 363.274 24.0828 363.252 23.9241L359.965 1.11443C359.943 0.958972 359.875 0.813501 359.771 0.696047C359.667 0.578592 359.53 0.494318 359.379 0.453674V0.453674ZM361.332 21.8472L355.879 16.6152L356.69 13.5941C356.717 13.4921 356.724 13.3858 356.711 13.2811C356.697 13.1765 356.663 13.0756 356.61 12.9841C356.557 12.8927 356.487 12.8126 356.403 12.7484C356.319 12.6841 356.224 12.637 356.122 12.6096C356.02 12.5823 355.914 12.5754 355.809 12.5891C355.704 12.6029 355.603 12.6372 355.512 12.6899C355.42 12.7427 355.34 12.813 355.276 12.8967C355.212 12.9805 355.165 13.076 355.137 13.178L354.327 16.201L346.991 18.0043L358.644 3.19579L361.332 21.8472Z" fill="#8D8D8D"/>
<path d="M357.223 10.6924C357.268 10.6665 357.311 10.6359 357.349 10.6009C357.388 10.566 357.424 10.5284 357.457 10.4885C357.488 10.446 357.516 10.4013 357.54 10.3549C357.562 10.3064 357.581 10.2563 357.596 10.2051C357.651 9.99964 357.622 9.78083 357.516 9.59668C357.41 9.41254 357.235 9.27812 357.029 9.22296C356.977 9.21014 356.925 9.20137 356.871 9.19672C356.82 9.19372 356.768 9.1966 356.716 9.20531C356.664 9.21072 356.613 9.22202 356.563 9.23897C356.438 9.28147 356.326 9.35396 356.236 9.45005C356.146 9.54614 356.081 9.66288 356.047 9.78998C356.035 9.84174 356.026 9.89433 356.021 9.94734C356.019 10.0519 356.033 10.1561 356.063 10.2563C356.079 10.3059 356.101 10.3537 356.127 10.3987C356.233 10.583 356.408 10.7175 356.614 10.7726C356.82 10.8276 357.039 10.7988 357.223 10.6924V10.6924Z" fill="#8D8D8D"/>
</svg>
