<svg width="29" height="29" viewBox="0 0 29 29" fill="none" xmlns="http://www.w3.org/2000/svg">
<path d="M12.1901 28.025C5.54003 26.835 0.5 21.095 0.5 14.165C0.5 6.46492 6.80003 0.164886 14.5001 0.164886C22.2001 0.164886 28.5001 6.46492 28.5001 14.165C28.5001 21.095 23.4601 26.835 16.8101 28.025L16.0401 27.395H12.9601L12.1901 28.025Z" fill="url(#paint0_linear_154_12169)"/>
<path d="M19.9599 18.0851L20.5899 14.1651H16.8799V11.4351C16.8799 10.3151 17.2999 9.47505 18.9799 9.47505H20.7999V5.90503C19.8199 5.76503 18.6999 5.62503 17.7199 5.62503C14.4999 5.62503 12.2598 7.58504 12.2598 11.0851V14.1651H8.75983V18.0851H12.2598V27.9551C13.0298 28.0951 13.7999 28.1651 14.5699 28.1651C15.3399 28.1651 16.1099 28.0951 16.8799 27.9551V18.0851H19.9599Z" fill="white"/>
<defs>
<linearGradient id="paint0_linear_154_12169" x1="14.5008" y1="27.1913" x2="14.5008" y2="0.159729" gradientUnits="userSpaceOnUse">
<stop stop-color="#0062E0"/>
<stop offset="1" stop-color="#19AFFF"/>
</linearGradient>
</defs>
</svg>
