<svg width="73" height="54" viewBox="0 0 73 54" fill="none" xmlns="http://www.w3.org/2000/svg">
<path d="M23.4129 38.438C21.9999 38.347 20.7849 39.302 20.6969 40.571C20.6859 40.729 20.6929 40.884 20.7169 41.034C20.4439 40.733 20.0409 40.528 19.5779 40.499C18.7309 40.445 17.9989 40.992 17.8929 41.737C17.7389 41.696 17.5779 41.668 17.4109 41.657C16.1749 41.578 15.1109 42.413 15.0349 43.523" fill="#FDFCEF"/>
<path d="M36.3599 39.714C35.0329 39.102 33.4979 39.535 32.9319 40.682C32.8619 40.825 32.8099 40.971 32.7749 41.12" fill="#FDFCEF"/>
<path d="M32.775 41.371C32.756 41.371 32.737 41.369 32.718 41.365C32.584 41.334 32.5 41.199 32.531 41.065C32.571 40.895 32.63 40.73 32.707 40.573C33.331 39.306 35.018 38.82 36.464 39.488C36.589 39.546 36.644 39.695 36.587 39.82C36.529 39.946 36.379 39.999 36.255 39.943C35.05 39.388 33.661 39.77 33.155 40.796C33.094 40.918 33.049 41.047 33.018 41.18C32.991 41.293 32.888 41.371 32.775 41.371ZM27.618 47.171H26.512C26.236 47.171 26.012 46.947 26.012 46.671C26.012 46.395 26.236 46.171 26.512 46.171H27.618C27.894 46.171 28.118 46.395 28.118 46.671C28.118 46.947 27.895 47.171 27.618 47.171ZM22.949 40.729C22.742 40.729 22.574 40.561 22.574 40.354V38.005C22.574 37.798 22.742 37.63 22.949 37.63C23.156 37.63 23.324 37.798 23.324 38.005V40.354C23.324 40.561 23.156 40.729 22.949 40.729Z" fill="#472B29"/>
<path d="M69.1919 47.015V17.748C69.1919 15.252 67.5249 13.21 65.4869 13.21H23.4909C21.4529 13.21 19.7859 15.252 19.7859 17.748V47.014" fill="#FDFCEF"/>
<path d="M68.7068 48.204C68.3198 48.204 68.0068 47.891 68.0068 47.504V18.238C68.0068 16.122 66.6588 14.4 65.0018 14.4H23.0058C21.3488 14.4 20.0008 16.122 20.0008 18.238V47.504C20.0008 47.891 19.6878 48.204 19.3008 48.204C18.9138 48.204 18.6008 47.891 18.6008 47.504V18.238C18.6008 15.35 20.5778 13 23.0068 13H65.0018C67.4308 13 69.4078 15.35 69.4078 18.238V47.504C69.4068 47.89 69.0928 48.204 68.7068 48.204Z" fill="#3D659F"/>
<path d="M66.2659 20.445V44.089H22.7109V41.08V31.622V17.436H65.3329H66.2659V20.445Z" fill="#70B1FF"/>
<path d="M17.1851 47.015V48.965C17.1851 50.753 19.0281 52.215 21.2811 52.215H67.6971C69.9501 52.215 71.7931 50.752 71.7931 48.965V47.015H17.1851Z" fill="#E1E0D8"/>
<path d="M67.211 53.405H20.796C18.151 53.405 16 51.633 16 49.454V47.504C16 47.117 16.313 46.8041 16.7 46.8041H71.307C71.694 46.8041 72.007 47.117 72.007 47.504V49.454C72.007 51.632 69.856 53.405 67.211 53.405ZM17.4 48.204V49.454C17.4 50.836 18.955 52.004 20.796 52.004H67.212C69.053 52.004 70.608 50.836 70.608 49.454V48.204H17.4ZM44.36 16.3H42.997C42.836 16.3 42.703 16.168 42.703 16.006V15.943C42.703 15.782 42.835 15.649 42.997 15.649H44.36C44.521 15.649 44.654 15.781 44.654 15.943V16.006C44.654 16.168 44.521 16.3 44.36 16.3Z" fill="#3D659F"/>
<path d="M46.7949 50.265H42.1819C42.0209 50.265 41.8879 50.133 41.8879 49.971V49.908C41.8879 49.747 42.0199 49.614 42.1819 49.614H46.7949C46.9559 49.614 47.0889 49.746 47.0889 49.908V49.971C47.0889 50.133 46.9569 50.265 46.7949 50.265ZM66.2659 44.464H22.7109C22.5039 44.464 22.3359 44.296 22.3359 44.089V41.488C22.3359 41.281 22.5039 41.113 22.7109 41.113C22.9179 41.113 23.0859 41.281 23.0859 41.488V43.714H65.8909V20.687C65.8909 20.48 66.0589 20.312 66.2659 20.312C66.4729 20.312 66.6409 20.48 66.6409 20.687V44.09C66.6409 44.296 66.4729 44.464 66.2659 44.464ZM22.7109 35.363C22.5039 35.363 22.3359 35.195 22.3359 34.988V17.436C22.3359 17.229 22.5039 17.061 22.7109 17.061H66.2659C66.4729 17.061 66.6409 17.229 66.6409 17.436C66.6409 17.643 66.4729 17.811 66.2659 17.811H23.0859V34.988C23.0859 35.195 22.9179 35.363 22.7109 35.363Z" fill="#3D659F"/>
<path d="M40.3 22.8081L29.812 34.4991L29.924 37.7181H33.4L33.516 37.5891L32.931 35.9471L34.384 35.8321L34.083 34.6631L35.536 34.5481L35.235 33.3781L37.252 33.4251L43.888 26.0271" fill="#A2B3CB"/>
<path d="M33.3999 38.2181H29.9239C29.6539 38.2181 29.4339 38.0051 29.4239 37.7361L29.3119 34.5171C29.3069 34.3881 29.3529 34.2621 29.4389 34.1651L39.9269 22.4741C40.1119 22.2691 40.4279 22.2511 40.6329 22.4361C40.8389 22.6201 40.8559 22.9361 40.6709 23.1421L30.3189 34.6841L30.4069 37.2191H32.8529L32.4599 36.1151C32.4079 35.9681 32.4269 35.8051 32.5119 35.6751C32.5959 35.5451 32.7369 35.4611 32.8919 35.4481L33.7519 35.3811L33.5989 34.7871C33.5619 34.6441 33.5909 34.4921 33.6769 34.3721C33.7619 34.2521 33.8969 34.1761 34.0439 34.1641L34.9039 34.0961L34.7509 33.5031C34.7119 33.3521 34.7459 33.1911 34.8439 33.0671C34.9409 32.9441 35.0829 32.8711 35.2469 32.8781L37.0329 32.9191L43.5159 25.6931C43.7009 25.4881 44.0169 25.4711 44.2219 25.6551C44.4279 25.8391 44.4449 26.1551 44.2599 26.3611L37.6229 33.7581C37.5259 33.8671 37.3879 33.9191 37.2389 33.9241L35.8829 33.8931L36.0199 34.4231C36.0569 34.5661 36.0279 34.7181 35.9419 34.8381C35.8569 34.9581 35.7219 35.0341 35.5749 35.0461L34.7149 35.1141L34.8679 35.7081C34.9049 35.8511 34.8759 36.0031 34.7899 36.1231C34.7039 36.2431 34.5699 36.3191 34.4219 36.3311L33.6199 36.3941L33.9859 37.4211C34.0479 37.5941 34.0089 37.7871 33.8869 37.9231L33.7709 38.0521C33.6779 38.1581 33.5419 38.2181 33.3999 38.2181Z" fill="#472B29"/>
<path d="M53.8609 13.611C51.1829 9.97999 46.0679 9.20799 42.4369 11.886C38.8059 14.564 38.0339 19.679 40.7119 23.31C43.3899 26.941 48.5049 27.713 52.1359 25.035C55.7669 22.356 56.5389 17.242 53.8609 13.611ZM52.4209 21.579L43.8339 13.876C46.0959 12.398 49.1019 12.514 51.1529 14.355C53.2049 16.195 53.6459 19.171 52.4209 21.579Z" fill="#CD40F3"/>
<path d="M47.2979 27.126C44.6359 27.126 42.0079 25.908 40.3099 23.606C38.9349 21.742 38.3689 19.455 38.7139 17.166C39.0599 14.876 40.2759 12.858 42.1399 11.483C45.9879 8.64603 51.4259 9.46603 54.2639 13.314C57.1009 17.161 56.2799 22.6 52.4329 25.437C50.8869 26.577 49.0849 27.126 47.2979 27.126ZM47.2769 10.793C45.6959 10.793 44.1009 11.279 42.7339 12.288C41.0859 13.504 40.0089 15.289 39.7029 17.315C39.3969 19.341 39.8989 21.364 41.1149 23.013C43.6249 26.417 48.4359 27.143 51.8399 24.633C55.2429 22.123 55.9689 17.312 53.4599 13.908C51.9569 11.872 49.6319 10.793 47.2769 10.793ZM52.4209 22.079C52.2989 22.079 52.1799 22.034 52.0869 21.951L43.4999 14.248C43.3839 14.144 43.3239 13.993 43.3349 13.838C43.3459 13.683 43.4299 13.543 43.5599 13.458C46.0619 11.824 49.3199 12.04 51.4869 13.983C53.6529 15.926 54.2199 19.143 52.8659 21.806C52.7959 21.945 52.6649 22.042 52.5119 22.071C52.4819 22.076 52.4519 22.079 52.4209 22.079ZM44.6819 13.965L52.2419 20.746C53.0309 18.621 52.4889 16.224 50.8199 14.727C49.1509 13.23 46.7069 12.95 44.6819 13.965ZM30.0539 37.123C29.9939 37.123 29.9349 37.102 29.8869 37.059C29.7839 36.967 29.7759 36.809 29.8679 36.706L36.9619 28.799C37.0539 28.696 37.2129 28.688 37.3149 28.78C37.4179 28.872 37.4259 29.03 37.3339 29.133L30.2399 37.04C30.1899 37.095 30.1219 37.123 30.0539 37.123ZM37.9269 28.347C37.8669 28.347 37.8079 28.326 37.7599 28.283C37.6569 28.191 37.6489 28.033 37.7409 27.93L38.4709 27.116C38.5629 27.013 38.7209 27.005 38.8239 27.097C38.9269 27.189 38.9349 27.347 38.8429 27.45L38.1129 28.264C38.0629 28.319 37.9949 28.347 37.9269 28.347ZM39.3719 26.736C39.3119 26.736 39.2529 26.715 39.2049 26.672C39.1019 26.58 39.0939 26.422 39.1859 26.319L39.2909 26.201C39.3829 26.098 39.5419 26.09 39.6439 26.182C39.7469 26.274 39.7549 26.432 39.6629 26.535L39.5579 26.653C39.5089 26.708 39.4399 26.736 39.3719 26.736Z" fill="#472B29"/>
<path d="M52.759 17.5461C52.747 17.5461 52.734 17.546 52.722 17.545C51.758 17.474 50.965 17.1171 50.151 16.3861C49.224 15.5541 48.676 14.411 48.609 13.168C48.542 11.924 48.963 10.729 49.795 9.80105C51.511 7.88705 54.465 7.72705 56.38 9.44405C58.294 11.161 58.454 14.115 56.737 16.029C56.497 16.297 56.227 16.535 55.936 16.739C55.709 16.898 55.398 16.843 55.24 16.616C55.082 16.39 55.137 16.078 55.363 15.92C55.592 15.76 55.804 15.571 55.993 15.361C57.342 13.858 57.216 11.537 55.712 10.188C54.209 8.84105 51.888 8.96605 50.539 10.469C49.886 11.197 49.555 12.136 49.608 13.114C49.661 14.091 50.091 14.989 50.82 15.642C51.475 16.23 52.048 16.493 52.796 16.548C53.071 16.568 53.278 16.808 53.258 17.083C53.238 17.346 53.018 17.5461 52.759 17.5461Z" fill="#472B29"/>
<path d="M44.649 36.245H39.98C39.773 36.245 39.605 36.077 39.605 35.87C39.605 35.663 39.773 35.495 39.98 35.495H44.649C44.856 35.495 45.024 35.663 45.024 35.87C45.024 36.077 44.856 36.245 44.649 36.245Z" fill="#472B29"/>
<path d="M42.3149 38.871C42.1079 38.871 41.9399 38.703 41.9399 38.496V33.244C41.9399 33.037 42.1079 32.869 42.3149 32.869C42.5219 32.869 42.6899 33.037 42.6899 33.244V38.496C42.6899 38.703 42.5219 38.871 42.3149 38.871Z" fill="#472B29"/>
<path d="M44.076 38.007C43.98 38.007 43.884 37.97 43.811 37.897L40.288 34.374C40.142 34.228 40.142 33.99 40.288 33.844C40.434 33.698 40.672 33.698 40.818 33.844L44.341 37.367C44.487 37.513 44.487 37.751 44.341 37.897C44.268 37.97 44.173 38.007 44.076 38.007Z" fill="#472B29"/>
<path d="M40.553 38.007C40.457 38.007 40.361 37.97 40.288 37.897C40.142 37.751 40.142 37.513 40.288 37.367L43.811 33.844C43.957 33.698 44.195 33.698 44.341 33.844C44.487 33.99 44.487 34.228 44.341 34.374L40.818 37.897C40.745 37.97 40.649 38.007 40.553 38.007Z" fill="#472B29"/>
<path d="M51.293 36.245H46.625C46.418 36.245 46.25 36.077 46.25 35.87C46.25 35.663 46.418 35.495 46.625 35.495H51.293C51.5 35.495 51.668 35.663 51.668 35.87C51.668 36.077 51.5 36.245 51.293 36.245Z" fill="#472B29"/>
<path d="M48.958 38.871C48.751 38.871 48.583 38.703 48.583 38.496V33.244C48.583 33.037 48.751 32.869 48.958 32.869C49.165 32.869 49.333 33.037 49.333 33.244V38.496C49.333 38.703 49.165 38.871 48.958 38.871Z" fill="#472B29"/>
<path d="M50.721 38.007C50.625 38.007 50.529 37.97 50.456 37.897L46.932 34.374C46.786 34.228 46.786 33.99 46.932 33.844C47.078 33.698 47.316 33.698 47.462 33.844L50.986 37.367C51.132 37.513 51.132 37.751 50.986 37.897C50.912 37.97 50.817 38.007 50.721 38.007Z" fill="#472B29"/>
<path d="M47.197 38.007C47.101 38.007 47.005 37.97 46.932 37.897C46.786 37.751 46.786 37.513 46.932 37.367L50.456 33.844C50.602 33.698 50.84 33.698 50.986 33.844C51.132 33.99 51.132 34.228 50.986 34.374L47.462 37.897C47.388 37.97 47.293 38.007 47.197 38.007Z" fill="#472B29"/>
<path d="M58.514 36.2211H53.262C53.055 36.2211 52.887 36.0531 52.887 35.8461C52.887 35.6391 53.055 35.4711 53.262 35.4711H58.514C58.721 35.4711 58.889 35.6391 58.889 35.8461C58.889 36.0531 58.721 36.2211 58.514 36.2211Z" fill="#472B29"/>
<path d="M55.8879 38.8471C55.6809 38.8471 55.5129 38.6791 55.5129 38.4721V33.2201C55.5129 33.0131 55.6809 32.8451 55.8879 32.8451C56.0949 32.8451 56.2629 33.0131 56.2629 33.2201V38.4721C56.2629 38.6791 56.0949 38.8471 55.8879 38.8471Z" fill="#472B29"/>
<path d="M57.6499 37.9821C57.5539 37.9821 57.4579 37.9451 57.3849 37.8721L53.8619 34.3491C53.7159 34.2031 53.7159 33.9651 53.8619 33.8191C54.0079 33.6731 54.2459 33.6731 54.3919 33.8191L57.9149 37.3421C58.0609 37.4881 58.0609 37.7261 57.9149 37.8721C57.8419 37.9461 57.7459 37.9821 57.6499 37.9821Z" fill="#472B29"/>
<path d="M54.1269 37.9821C54.0309 37.9821 53.9349 37.9451 53.8619 37.8721C53.7159 37.7261 53.7159 37.4881 53.8619 37.3421L57.3849 33.8191C57.5309 33.6731 57.7689 33.6731 57.9149 33.8191C58.0609 33.9651 58.0609 34.2031 57.9149 34.3491L54.3919 37.8721C54.3189 37.9461 54.2229 37.9821 54.1269 37.9821Z" fill="#472B29"/>
<path d="M10.5759 30.151H0.659912C0.383912 30.151 0.159912 29.927 0.159912 29.651C0.159912 29.375 0.383912 29.151 0.659912 29.151H10.5769C10.8529 29.151 11.0769 29.375 11.0769 29.651C11.0769 29.927 10.8529 30.151 10.5759 30.151ZM13.4409 30.151H12.0029C11.7269 30.151 11.5029 29.927 11.5029 29.651C11.5029 29.375 11.7269 29.151 12.0029 29.151H13.4409C13.7169 29.151 13.9409 29.375 13.9409 29.651C13.9409 29.927 13.7169 30.151 13.4409 30.151ZM17.4719 30.151H14.9409C14.6649 30.151 14.4409 29.927 14.4409 29.651C14.4409 29.375 14.6649 29.151 14.9409 29.151H17.4719C17.7479 29.151 17.9719 29.375 17.9719 29.651C17.9719 29.927 17.7479 30.151 17.4719 30.151ZM17.4719 32.005H7.91091C7.63491 32.005 7.41091 31.781 7.41091 31.505C7.41091 31.229 7.63491 31.005 7.91091 31.005H17.4719C17.7479 31.005 17.9719 31.229 17.9719 31.505C17.9719 31.781 17.7479 32.005 17.4719 32.005ZM6.18991 32.005H5.61291C5.33691 32.005 5.11291 31.781 5.11291 31.505C5.11291 31.229 5.33691 31.005 5.61291 31.005H6.18991C6.46591 31.005 6.68991 31.229 6.68991 31.505C6.68991 31.781 6.46591 32.005 6.18991 32.005ZM3.82591 32.005H2.37791C2.10191 32.005 1.87791 31.781 1.87791 31.505C1.87791 31.229 2.10191 31.005 2.37791 31.005H3.82591C4.10191 31.005 4.32591 31.229 4.32591 31.505C4.32591 31.781 4.10291 32.005 3.82591 32.005ZM12.9089 28.297H7.90991C7.63391 28.297 7.40991 28.073 7.40991 27.797C7.40991 27.521 7.63391 27.297 7.90991 27.297H12.9089C13.1849 27.297 13.4089 27.521 13.4089 27.797C13.4089 28.073 13.1859 28.297 12.9089 28.297ZM12.9089 26.442H11.6589C11.3829 26.442 11.1589 26.218 11.1589 25.942C11.1589 25.666 11.3829 25.442 11.6589 25.442H12.9089C13.1849 25.442 13.4089 25.666 13.4089 25.942C13.4089 26.218 13.1859 26.442 12.9089 26.442ZM9.65891 33.859H7.90991C7.63391 33.859 7.40991 33.635 7.40991 33.359C7.40991 33.083 7.63391 32.859 7.90991 32.859H9.65891C9.93491 32.859 10.1589 33.083 10.1589 33.359C10.1589 33.635 9.93591 33.859 9.65891 33.859Z" fill="#E9F6FF"/>
<path d="M61.486 5.49096H50.377C50.101 5.49096 49.877 5.26696 49.877 4.99096C49.877 4.71496 50.101 4.49096 50.377 4.49096H61.486C61.762 4.49096 61.986 4.71496 61.986 4.99096C61.986 5.26696 61.762 5.49096 61.486 5.49096ZM64.156 5.49096H62.816C62.54 5.49096 62.316 5.26696 62.316 4.99096C62.316 4.71496 62.54 4.49096 62.816 4.49096H64.156C64.432 4.49096 64.656 4.71496 64.656 4.99096C64.656 5.26696 64.432 5.49096 64.156 5.49096ZM66.914 5.49096H65.554C65.278 5.49096 65.054 5.26696 65.054 4.99096C65.054 4.71496 65.278 4.49096 65.554 4.49096H66.914C67.19 4.49096 67.414 4.71496 67.414 4.99096C67.414 5.26696 67.19 5.49096 66.914 5.49096ZM67.914 7.34496H59.001C58.725 7.34496 58.501 7.12096 58.501 6.84496C58.501 6.56896 58.725 6.34496 59.001 6.34496H67.914C68.19 6.34496 68.414 6.56896 68.414 6.84496C68.414 7.12096 68.19 7.34496 67.914 7.34496ZM57.396 7.34496H56.858C56.582 7.34496 56.358 7.12096 56.358 6.84496C56.358 6.56896 56.582 6.34496 56.858 6.34496H57.396C57.672 6.34496 57.896 6.56896 57.896 6.84496C57.896 7.12096 57.673 7.34496 57.396 7.34496ZM55.193 7.34496H53.843C53.567 7.34496 53.343 7.12096 53.343 6.84496C53.343 6.56896 53.567 6.34496 53.843 6.34496H55.193C55.469 6.34496 55.693 6.56896 55.693 6.84496C55.693 7.12096 55.47 7.34496 55.193 7.34496ZM63.66 3.63696H59C58.724 3.63696 58.5 3.41296 58.5 3.13696C58.5 2.86096 58.724 2.63696 59 2.63696H63.66C63.936 2.63696 64.16 2.86096 64.16 3.13696C64.16 3.41296 63.937 3.63696 63.66 3.63696ZM63.66 1.78296H62.495C62.219 1.78296 61.995 1.55896 61.995 1.28296C61.995 1.00696 62.219 0.782959 62.495 0.782959H63.66C63.936 0.782959 64.16 1.00696 64.16 1.28296C64.16 1.55896 63.937 1.78296 63.66 1.78296ZM60.631 9.19896H59.001C58.725 9.19896 58.501 8.97496 58.501 8.69896C58.501 8.42296 58.725 8.19896 59.001 8.19896H60.631C60.907 8.19896 61.131 8.42296 61.131 8.69896C61.131 8.97496 60.908 9.19896 60.631 9.19896Z" fill="#E9F6FF"/>
<path d="M17.3691 51.0381C17.3471 51.0381 17.3251 51.032 17.3051 51.02C17.2451 50.984 17.2261 50.908 17.2621 50.849L19.5681 46.989C19.6031 46.929 19.6791 46.91 19.7391 46.946C19.7991 46.982 19.8181 47.058 19.7821 47.117L17.4761 50.977C17.4531 51.016 17.4111 51.0381 17.3691 51.0381ZM18.3311 51.599C18.3081 51.599 18.2851 51.5931 18.2651 51.5801C18.2061 51.5431 18.1891 51.466 18.2251 51.408L21.1341 46.7741C21.1721 46.7151 21.2491 46.699 21.3061 46.734C21.3651 46.771 21.3821 46.848 21.3461 46.906L18.4371 51.54C18.4131 51.578 18.3721 51.599 18.3311 51.599ZM19.3551 52.057C19.3321 52.057 19.3091 52.0511 19.2891 52.0381C19.2301 52.0011 19.2131 51.924 19.2491 51.866L22.1581 47.2321C22.1961 47.1731 22.2731 47.158 22.3301 47.192C22.3891 47.229 22.4061 47.306 22.3701 47.364L19.4611 51.998C19.4371 52.037 19.3971 52.057 19.3551 52.057ZM21.3721 51.294C21.3491 51.294 21.3261 51.2881 21.3061 51.2751C21.2471 51.2381 21.2301 51.161 21.2661 51.103L23.7011 47.224C23.7381 47.165 23.8171 47.149 23.8731 47.184C23.9321 47.221 23.9491 47.2981 23.9131 47.3561L21.4781 51.235C21.4541 51.273 21.4131 51.294 21.3721 51.294ZM23.4861 50.2711C23.4631 50.2711 23.4401 50.265 23.4201 50.252C23.3611 50.215 23.3441 50.1381 23.3801 50.0801L25.0961 47.346C25.1341 47.287 25.2121 47.271 25.2681 47.306C25.3271 47.343 25.3441 47.42 25.3081 47.478L23.5921 50.212C23.5681 50.25 23.5281 50.2711 23.4861 50.2711Z" fill="#472B29"/>
</svg>
