<svg width="27" height="28" viewBox="0 0 27 28" fill="none" xmlns="http://www.w3.org/2000/svg">
<path d="M26.9262 13.9686C26.9262 13.0799 26.8475 12.2361 26.7125 11.4149H14V16.4886H21.2787C20.9525 18.1536 19.9962 19.5599 18.5787 20.5161V23.8911H22.9212C25.4637 21.5399 26.9262 18.0749 26.9262 13.9686Z" fill="#4285F4"/>
<path d="M13.9998 27.1647C17.6448 27.1647 20.6936 25.9497 22.9211 23.891L18.5786 20.516C17.3636 21.326 15.8223 21.821 13.9998 21.821C10.4786 21.821 7.4973 19.4472 6.42855 16.241H1.95105V19.7172C4.1673 24.1272 8.72355 27.1647 13.9998 27.1647Z" fill="#34A853"/>
<path d="M6.42875 16.2415C6.1475 15.4315 6.00125 14.5652 6.00125 13.6652C6.00125 12.7652 6.15875 11.899 6.42875 11.089V7.61273H1.95125C1.02875 9.43523 0.5 11.4827 0.5 13.6652C0.5 15.8477 1.02875 17.8952 1.95125 19.7177L6.42875 16.2415Z" fill="#FBBC05"/>
<path d="M13.9998 5.50864C15.9911 5.50864 17.7685 6.19489 19.1748 7.53364L23.0223 3.68614C20.6936 1.50364 17.6448 0.164886 13.9998 0.164886C8.72355 0.164886 4.1673 3.20239 1.95105 7.61239L6.42855 11.0886C7.4973 7.88239 10.4786 5.50864 13.9998 5.50864Z" fill="#EA4335"/>
</svg>
