<svg width="11" height="17" viewBox="0 0 11 17" fill="none" xmlns="http://www.w3.org/2000/svg">
<path d="M8.62845 0.938721H2.41337C2.00252 0.938721 1.6085 1.10193 1.31798 1.39245C1.02747 1.68296 0.864258 2.07698 0.864258 2.48783V14.911C0.864258 15.767 1.5581 16.4609 2.41337 16.4609H8.62767C9.03859 16.4609 9.43269 16.2977 9.72333 16.0072C10.014 15.7167 10.1774 15.3227 10.1776 14.9118V2.48783C10.1776 2.07698 10.0143 1.68296 9.72383 1.39245C9.43332 1.10193 9.0393 0.938721 8.62845 0.938721V0.938721ZM5.52091 15.6848C4.98539 15.6848 4.55077 15.3379 4.55077 14.9087C4.55077 14.4795 4.98539 14.1326 5.52091 14.1326C6.05642 14.1326 6.49104 14.4795 6.49104 14.9087C6.49104 15.3379 6.05642 15.6848 5.52091 15.6848ZM8.62534 13.3565H2.41647V2.49094H8.62534V13.3565Z" fill="#838383"/>
</svg>
