<svg width="10" height="16" viewBox="0 0 10 16" fill="none" xmlns="http://www.w3.org/2000/svg">
<path d="M8.24905 0.0930176H2.03398C1.62313 0.0930176 1.2291 0.256227 0.938588 0.546742C0.648073 0.837257 0.484863 1.23128 0.484863 1.64213V14.0653C0.484863 14.9213 1.1787 15.6152 2.03398 15.6152H8.24828C8.6592 15.6152 9.0533 15.452 9.34394 15.1615C9.63458 14.871 9.79796 14.477 9.79816 14.0661V1.64213C9.79816 1.23128 9.63496 0.837257 9.34444 0.546742C9.05393 0.256227 8.6599 0.0930176 8.24905 0.0930176V0.0930176ZM5.14151 14.8391C4.606 14.8391 4.17138 14.4922 4.17138 14.063C4.17138 13.6338 4.606 13.2869 5.14151 13.2869C5.67703 13.2869 6.11165 13.6338 6.11165 14.063C6.11165 14.4922 5.67703 14.8391 5.14151 14.8391ZM8.24595 12.5108H2.03708V1.64523H8.24595V12.5108Z" fill="white"/>
</svg>
