<svg width="162" height="141" viewBox="0 0 162 141" fill="none" xmlns="http://www.w3.org/2000/svg">
<path d="M122.375 12.6832L3.3916 47.4795L6.54313 58.3366L125.527 23.5403L122.375 12.6832Z" fill="#677285"/>
<path d="M17.6072 97.3499L0.0699612 36.934C-0.060055 36.4861 -0.00746721 36.0047 0.216148 35.5957C0.439763 35.1867 0.816089 34.8836 1.26235 34.7531L117.361 0.800319C117.808 0.670256 118.287 0.723219 118.695 0.947588C119.102 1.17196 119.404 1.5494 119.534 1.99706L135.071 55.5212L134.59 55.6618L119.054 2.13768C118.96 1.81806 118.744 1.54861 118.454 1.38837C118.163 1.22813 117.82 1.19016 117.502 1.28279L1.40241 35.2356C1.08366 35.3288 0.814853 35.5453 0.655128 35.8374C0.495403 36.1296 0.457841 36.4735 0.550705 36.7934L18.0879 97.2093L17.6072 97.3499Z" fill="#3F3D56"/>
<path d="M109.375 55.7699C109.023 55.7695 108.68 55.6547 108.398 55.4425C108.116 55.2304 107.911 54.9323 107.812 54.593L104.87 44.4598C104.75 44.0439 104.799 43.5971 105.007 43.2174C105.214 42.8378 105.563 42.5563 105.977 42.4346L116.073 39.4822C116.487 39.3616 116.932 39.4108 117.311 39.6192C117.689 39.8276 117.969 40.178 118.091 40.5937L121.032 50.7269C121.152 51.1428 121.103 51.5896 120.896 51.9693C120.688 52.3489 120.339 52.6304 119.925 52.7521L109.829 55.7045C109.682 55.7478 109.529 55.7698 109.375 55.7699Z" fill="#878DA0"/>
<path d="M17.3361 37.1206C17.3059 37.0165 17.2699 36.9142 17.2284 36.814C16.9461 36.1264 16.4206 35.5677 15.7529 35.2453C15.0851 34.9229 14.3222 34.8596 13.6108 35.0675C12.8994 35.2754 12.2896 35.7399 11.8986 36.3716C11.5076 37.0034 11.363 37.7579 11.4926 38.4902C11.5108 38.5971 11.5351 38.7028 11.5652 38.8069C11.748 39.4332 12.1281 39.9833 12.6485 40.3747C13.1689 40.7662 13.8016 40.9778 14.4519 40.9781C14.7358 40.9787 15.0183 40.9381 15.2906 40.8575C16.055 40.6333 16.6996 40.114 17.083 39.4135C17.4665 38.713 17.5575 37.8884 17.3361 37.1206ZM15.1504 40.375C14.513 40.5607 13.8282 40.485 13.2462 40.1647C12.6642 39.8444 12.2326 39.3055 12.0459 38.6661C12.0166 38.562 11.9932 38.4563 11.9757 38.3495C11.8818 37.7462 12.0101 37.1291 12.3365 36.6138C12.6629 36.0985 13.1652 35.7202 13.7493 35.5496C14.3335 35.379 14.9596 35.4278 15.5105 35.6868C16.0614 35.9459 16.4994 36.3976 16.7427 36.9573C16.788 37.0556 16.8257 37.1572 16.8554 37.2614C17.0402 37.9012 16.9644 38.5885 16.6447 39.1722C16.325 39.756 15.7876 40.1886 15.1504 40.375V40.375Z" fill="#878DA0"/>
<path d="M9.96726 39.2744C9.80704 38.7221 9.82243 38.1334 10.0113 37.5903C10.2001 37.0472 10.5531 36.5768 11.0209 36.2445C10.5826 36.223 10.1455 36.307 9.74614 36.4895C9.34673 36.6719 8.99654 36.9475 8.72474 37.2933C8.45293 37.6391 8.26738 38.045 8.18354 38.4774C8.0997 38.9097 8.12001 39.3559 8.24276 39.7788C8.36551 40.2016 8.58715 40.5889 8.88922 40.9084C9.19129 41.2279 9.56505 41.4703 9.97936 41.6154C10.3937 41.7606 10.8365 41.8042 11.271 41.7428C11.7056 41.6813 12.1192 41.5166 12.4774 41.2622C11.905 41.2341 11.3555 41.0276 10.9056 40.6713C10.4557 40.315 10.1277 39.8267 9.96726 39.2744Z" fill="#878DA0"/>
<path d="M87.7966 51.7288C87.7433 51.5365 87.6528 51.3566 87.5302 51.1995C87.4075 51.0423 87.2553 50.911 87.082 50.8129C86.9088 50.7149 86.718 50.6521 86.5206 50.6282C86.3231 50.6042 86.1229 50.6196 85.9314 50.6734L69.3096 55.34L67.5195 55.8426H78.7609L80.551 55.34L86.7476 53.601C87.1338 53.4921 87.4613 53.2337 87.658 52.8827C87.8546 52.5317 87.9045 52.1167 87.7966 51.7288Z" fill="#CCCCCC"/>
<path d="M76.0368 48.2435C75.9285 47.8556 75.6712 47.5268 75.3214 47.3293C74.9716 47.1319 74.558 47.0819 74.1715 47.1905L49.2302 54.1917C48.8817 54.2908 48.5799 54.5116 48.3793 54.8144C48.1787 55.1171 48.0924 55.4818 48.1361 55.8428H54.593L56.3855 55.3402L74.9878 50.1181C75.3744 50.0089 75.702 49.7501 75.8986 49.3986C76.0953 49.0471 76.145 48.6317 76.0368 48.2435Z" fill="#CCCCCC"/>
<path d="M140.247 55.3394H19.3199C18.8553 55.3399 18.4098 55.5254 18.0813 55.8552C17.7527 56.1849 17.5679 56.6321 17.5674 57.0985V128.97C17.5679 129.437 17.7527 129.884 18.0812 130.214C18.4098 130.543 18.8553 130.729 19.3199 130.729H140.247C140.711 130.729 141.157 130.543 141.485 130.214C141.814 129.884 141.999 129.437 141.999 128.97V57.0985C141.999 56.6321 141.814 56.185 141.485 55.8552C141.157 55.5254 140.711 55.3399 140.247 55.3394ZM141.499 128.97C141.498 129.304 141.366 129.623 141.132 129.859C140.897 130.094 140.579 130.227 140.247 130.227H19.3199C18.988 130.227 18.6696 130.094 18.4349 129.859C18.2002 129.623 18.0682 129.304 18.0681 128.97V57.0985C18.0683 56.7653 18.2002 56.4457 18.4349 56.2101C18.6697 55.9745 18.988 55.8421 19.3199 55.842H140.247C140.579 55.8421 140.897 55.9745 141.132 56.2101C141.366 56.4457 141.498 56.7653 141.499 57.0985V128.97Z" fill="#3F3D56"/>
<path d="M31.0864 65.1406C30.4922 65.1406 29.9113 64.9637 29.4173 64.6324C28.9232 64.301 28.5381 63.83 28.3107 63.279C28.0833 62.728 28.0238 62.1216 28.1398 61.5367C28.2557 60.9517 28.5418 60.4144 28.962 59.9926C29.3822 59.5709 29.9175 59.2837 30.5003 59.1673C31.0831 59.051 31.6872 59.1107 32.2362 59.3389C32.7851 59.5672 33.2544 59.9537 33.5845 60.4496C33.9146 60.9455 34.0908 61.5285 34.0908 62.125C34.0899 62.9245 33.7731 63.691 33.2098 64.2563C32.6466 64.8217 31.883 65.1397 31.0864 65.1406ZM31.0864 59.612C30.5912 59.612 30.1072 59.7594 29.6955 60.0355C29.2837 60.3116 28.9628 60.7041 28.7733 61.1633C28.5839 61.6225 28.5343 62.1278 28.6309 62.6152C28.7275 63.1027 28.9659 63.5505 29.3161 63.9019C29.6662 64.2534 30.1123 64.4927 30.598 64.5897C31.0836 64.6867 31.587 64.6369 32.0445 64.4467C32.502 64.2565 32.893 63.9344 33.1681 63.5211C33.4432 63.1079 33.5901 62.622 33.5901 62.125C33.5893 61.4587 33.3253 60.82 32.8559 60.3488C32.3866 59.8777 31.7502 59.6127 31.0864 59.612Z" fill="#878DA0"/>
<path d="M26.4163 62.1251C26.4164 61.5499 26.5953 60.989 26.9279 60.5206C27.2606 60.0522 27.7306 59.6996 28.2723 59.512C27.8575 59.3683 27.4145 59.3263 26.9802 59.3893C26.5459 59.4523 26.1329 59.6185 25.7755 59.8742C25.4182 60.1299 25.1269 60.4675 24.926 60.8591C24.725 61.2506 24.6201 61.6847 24.6201 62.1251C24.6201 62.5656 24.725 62.9997 24.926 63.3912C25.1269 63.7827 25.4182 64.1204 25.7755 64.3761C26.1329 64.6317 26.5459 64.798 26.9802 64.861C27.4145 64.924 27.8575 64.8819 28.2723 64.7383C27.7306 64.5506 27.2606 64.1981 26.9279 63.7297C26.5953 63.2613 26.4164 62.7004 26.4163 62.1251Z" fill="#878DA0"/>
<path d="M43.265 97.7538C42.6676 97.7531 42.0949 97.5146 41.6724 97.0906C41.25 96.6666 41.0124 96.0917 41.0117 95.4921V88.707C41.0117 88.1072 41.2491 87.5319 41.6717 87.1078C42.0943 86.6836 42.6674 86.4453 43.265 86.4453C43.8626 86.4453 44.4358 86.6836 44.8583 87.1078C45.2809 87.5319 45.5183 88.1072 45.5183 88.707V95.4921C45.5176 96.0917 45.28 96.6666 44.8576 97.0906C44.4351 97.5146 43.8624 97.7531 43.265 97.7538Z" fill="#878DA0"/>
<path d="M49.2738 97.7538C48.6764 97.7531 48.1037 97.5146 47.6812 97.0906C47.2588 96.6666 47.0212 96.0917 47.0205 95.4921V88.707C47.0205 88.1072 47.2579 87.5319 47.6805 87.1078C48.103 86.6836 48.6762 86.4453 49.2738 86.4453C49.8714 86.4453 50.4445 86.6836 50.8671 87.1078C51.2897 87.5319 51.5271 88.1072 51.5271 88.707V95.4921C51.5264 96.0917 51.2888 96.6666 50.8664 97.0906C50.4439 97.5146 49.8712 97.7531 49.2738 97.7538Z" fill="#878DA0"/>
<path d="M55.2826 97.7538C54.6852 97.7531 54.1125 97.5146 53.69 97.0906C53.2676 96.6666 53.03 96.0917 53.0293 95.4921V88.707C53.0293 88.1072 53.2667 87.5319 53.6893 87.1078C54.1118 86.6836 54.685 86.4453 55.2826 86.4453C55.8802 86.4453 56.4533 86.6836 56.8759 87.1078C57.2985 87.5319 57.5359 88.1072 57.5359 88.707V95.4921C57.5352 96.0917 57.2976 96.6666 56.8752 97.0906C56.4527 97.5146 55.88 97.7531 55.2826 97.7538Z" fill="#878DA0"/>
<path d="M64.5463 97.7538C63.9489 97.7531 63.3761 97.5146 62.9537 97.0906C62.5313 96.6666 62.2937 96.0917 62.293 95.4921V88.707C62.293 88.1072 62.5304 87.5319 62.9529 87.1078C63.3755 86.6836 63.9486 86.4453 64.5463 86.4453C65.1439 86.4453 65.717 86.6836 66.1396 87.1078C66.5621 87.5319 66.7996 88.1072 66.7996 88.707V95.4921C66.7989 96.0917 66.5613 96.6666 66.1388 97.0906C65.7164 97.5146 65.1437 97.7531 64.5463 97.7538Z" fill="#878DA0"/>
<path d="M70.555 97.7538C69.9576 97.7531 69.3849 97.5146 68.9625 97.0906C68.5401 96.6666 68.3024 96.0917 68.3018 95.4921V88.707C68.3018 88.1072 68.5392 87.5319 68.9617 87.1078C69.3843 86.6836 69.9574 86.4453 70.555 86.4453C71.1527 86.4453 71.7258 86.6836 72.1484 87.1078C72.5709 87.5319 72.8083 88.1072 72.8083 88.707V95.4921C72.8077 96.0917 72.57 96.6666 72.1476 97.0906C71.7252 97.5146 71.1524 97.7531 70.555 97.7538Z" fill="#878DA0"/>
<path d="M76.5629 97.7538C75.9655 97.7531 75.3927 97.5146 74.9703 97.0906C74.5479 96.6666 74.3103 96.0917 74.3096 95.4921V88.707C74.3096 88.1072 74.547 87.5319 74.9695 87.1078C75.3921 86.6836 75.9653 86.4453 76.5629 86.4453C77.1605 86.4453 77.7336 86.6836 78.1562 87.1078C78.5788 87.5319 78.8162 88.1072 78.8162 88.707V95.4921C78.8155 96.0917 78.5779 96.6666 78.1554 97.0906C77.733 97.5146 77.1603 97.7531 76.5629 97.7538Z" fill="#878DA0"/>
<path d="M85.8265 97.7538C85.2291 97.7531 84.6564 97.5146 84.234 97.0906C83.8116 96.6666 83.5739 96.0917 83.5732 95.4921V88.707C83.5732 88.1072 83.8106 87.5319 84.2332 87.1078C84.6558 86.6836 85.2289 86.4453 85.8265 86.4453C86.4241 86.4453 86.9973 86.6836 87.4198 87.1078C87.8424 87.5319 88.0798 88.1072 88.0798 88.707V95.4921C88.0791 96.0917 87.8415 96.6666 87.4191 97.0906C86.9967 97.5146 86.4239 97.7531 85.8265 97.7538Z" fill="#878DA0"/>
<path d="M91.8353 97.7538C91.2379 97.7531 90.6652 97.5146 90.2428 97.0906C89.8203 96.6666 89.5827 96.0917 89.582 95.4921V88.707C89.582 88.1072 89.8194 87.5319 90.242 87.1078C90.6646 86.6836 91.2377 86.4453 91.8353 86.4453C92.4329 86.4453 93.0061 86.6836 93.4286 87.1078C93.8512 87.5319 94.0886 88.1072 94.0886 88.707V95.4921C94.0879 96.0917 93.8503 96.6666 93.4279 97.0906C93.0055 97.5146 92.4327 97.7531 91.8353 97.7538Z" fill="#878DA0"/>
<path d="M97.8441 97.7538C97.2467 97.7531 96.674 97.5146 96.2516 97.0906C95.8291 96.6666 95.5915 96.0917 95.5908 95.4921V88.707C95.5908 88.1072 95.8282 87.5319 96.2508 87.1078C96.6734 86.6836 97.2465 86.4453 97.8441 86.4453C98.4417 86.4453 99.0149 86.6836 99.4374 87.1078C99.86 87.5319 100.097 88.1072 100.097 88.707V95.4921C100.097 96.0917 99.8591 96.6666 99.4367 97.0906C99.0143 97.5146 98.4415 97.7531 97.8441 97.7538Z" fill="#878DA0"/>
<path d="M107.108 97.7538C106.51 97.7531 105.938 97.5146 105.515 97.0906C105.093 96.6666 104.855 96.0917 104.854 95.4921V88.707C104.854 88.1072 105.092 87.5319 105.514 87.1078C105.937 86.6836 106.51 86.4453 107.108 86.4453C107.705 86.4453 108.279 86.6836 108.701 87.1078C109.124 87.5319 109.361 88.1072 109.361 88.707V95.4921C109.36 96.0917 109.123 96.6666 108.7 97.0906C108.278 97.5146 107.705 97.7531 107.108 97.7538Z" fill="#878DA0"/>
<path d="M113.117 97.7538C112.519 97.7531 111.946 97.5146 111.524 97.0906C111.102 96.6666 110.864 96.0917 110.863 95.4921V88.707C110.863 88.1072 111.101 87.5319 111.523 87.1078C111.946 86.6836 112.519 86.4453 113.117 86.4453C113.714 86.4453 114.287 86.6836 114.71 87.1078C115.132 87.5319 115.37 88.1072 115.37 88.707V95.4921C115.369 96.0917 115.132 96.6666 114.709 97.0906C114.287 97.5146 113.714 97.7531 113.117 97.7538Z" fill="#878DA0"/>
<path d="M119.125 97.7538C118.528 97.7531 117.955 97.5146 117.533 97.0906C117.11 96.6666 116.873 96.0917 116.872 95.4921V88.707C116.872 88.1072 117.109 87.5319 117.532 87.1078C117.955 86.6836 118.528 86.4453 119.125 86.4453C119.723 86.4453 120.296 86.6836 120.719 87.1078C121.141 87.5319 121.379 88.1072 121.379 88.707V95.4921C121.378 96.0917 121.14 96.6666 120.718 97.0906C120.296 97.5146 119.723 97.7531 119.125 97.7538Z" fill="#878DA0"/>
<path d="M58.5416 122.926H26.1342C25.7326 122.926 25.3475 122.766 25.0636 122.481C24.7796 122.196 24.6201 121.809 24.6201 121.406C24.6201 121.003 24.7796 120.617 25.0636 120.332C25.3475 120.047 25.7326 119.887 26.1342 119.887H58.5416C58.9431 119.887 59.3282 120.047 59.6122 120.332C59.8961 120.617 60.0556 121.003 60.0556 121.406C60.0556 121.809 59.8961 122.196 59.6122 122.481C59.3282 122.766 58.9431 122.926 58.5416 122.926Z" fill="#E6E6E6"/>
<path d="M48.1519 116.392H36.5248C36.1232 116.392 35.7381 116.232 35.4542 115.947C35.1703 115.662 35.0107 115.275 35.0107 114.872C35.0107 114.469 35.1703 114.083 35.4542 113.798C35.7381 113.513 36.1232 113.353 36.5248 113.353H48.1519C48.5534 113.353 48.9385 113.513 49.2225 113.798C49.5064 114.083 49.6659 114.469 49.6659 114.872C49.6659 115.275 49.5064 115.662 49.2225 115.947C48.9385 116.232 48.5534 116.392 48.1519 116.392Z" fill="#E6E6E6"/>
<path d="M141.408 70.3623H17.9775V70.8649H141.408V70.3623Z" fill="#3F3D56"/>
<path d="M161.29 122.926C161.29 132.908 153.198 141 143.216 141C133.234 141 125.143 132.908 125.143 122.926C125.143 112.944 133.234 104.853 143.216 104.853C153.198 104.853 161.29 112.944 161.29 122.926Z" fill="#28AD4E"/>
<path fill-rule="evenodd" clip-rule="evenodd" d="M153.514 116.7C154.23 117.417 154.23 118.579 153.514 119.295L141.514 131.295C141.17 131.639 140.703 131.833 140.217 131.833C139.73 131.833 139.263 131.639 138.919 131.295L132.919 125.295C132.203 124.579 132.203 123.417 132.919 122.7C133.636 121.984 134.797 121.984 135.514 122.7L140.217 127.403L150.919 116.7C151.636 115.984 152.797 115.984 153.514 116.7Z" fill="white"/>
</svg>
