<svg width="317" height="191" viewBox="0 0 317 191" fill="none" xmlns="http://www.w3.org/2000/svg">
<g clip-path="url(#clip0_664_3494)">
<path d="M302.596 130.096C317.905 157.433 295.753 211.068 155.264 173.793C84.8252 155.104 32.206 197.207 21.3678 167.818C-3.88776 99.3659 99.2512 20.1829 156.605 75.4645C209.029 125.995 274.734 80.3423 302.596 130.096Z" stroke="#E4E4E4" stroke-width="4" stroke-miterlimit="10" stroke-dasharray="32.09 32.09"/>
<path d="M301.79 190.269H15.3369C24.3017 124.175 85.0022 73.05 158.558 73.05C232.115 73.05 292.82 124.175 301.79 190.269Z" fill="#F6F5F5"/>
<path d="M264.45 17.3354H156.705C151.689 17.3354 147.623 21.3931 147.623 26.3985V180.626C147.623 185.631 151.689 189.689 156.705 189.689H264.45C269.466 189.689 273.532 185.631 273.532 180.626V26.3985C273.532 21.3931 269.466 17.3354 264.45 17.3354Z" fill="#A9BAE6"/>
<path d="M262.636 24.2814H159.003V174.504H262.636V24.2814Z" fill="#F6F5F5"/>
<path d="M262.636 24.2827C262.668 82.8605 264.563 153.51 257.969 169.154C228.926 171.978 194.919 172.885 159.002 173.056L172.654 24.7351L262.636 24.2827Z" fill="#E4E4E4"/>
<path d="M253.328 164.418C208.059 171.648 177.807 172.03 153.265 170.211C156.442 136.433 157.72 80.3155 159.008 24.2888L213.558 24.4107L262.928 27.663C263.64 85.8116 263.72 139.525 253.328 164.418Z" fill="white"/>
<path d="M237.329 39.4246L182.812 38.1425L182.617 46.4289L237.133 47.7109L237.329 39.4246Z" fill="#708CD5"/>
<path d="M247.838 59.7029L198.664 58.5465L198.574 62.3392L247.749 63.4956L247.838 59.7029Z" fill="#708CD5"/>
<path d="M231.892 67.6022L198.468 66.8162L198.378 70.6088L231.802 71.3949L231.892 67.6022Z" fill="#D3DFFF"/>
<path d="M183.17 58.4049L171.528 58.1311L171.254 69.7481L182.895 70.0219L183.17 58.4049Z" fill="white" stroke="#708CD5" stroke-width="6" stroke-miterlimit="10"/>
<path d="M173.428 61.181C173.788 62.5541 174.451 68.3063 177.339 66.6978C178.005 66.332 178.568 65.3467 179.067 64.7821L181.755 61.7407L187.125 55.6556C187.584 55.1361 185.558 53.8325 184.983 54.485L180.209 59.8932L177.823 62.598C177.27 63.2236 175.99 65.2406 175.175 65.4198L176.51 65.8503C176.825 66.1076 176.24 64.2809 176.227 64.2309C176.006 63.3829 175.784 62.5346 175.561 61.6859C175.377 60.9859 173.162 60.1432 173.433 61.181H173.428Z" fill="#EE6F57"/>
<path d="M238.661 80.6182L198.167 79.6659L198.077 83.4586L238.571 84.4109L238.661 80.6182Z" fill="#708CD5"/>
<path d="M247.642 88.1443L198.454 87.1627L198.378 90.9564L247.566 91.9381L247.642 88.1443Z" fill="#D3DFFF"/>
<path d="M182.671 79.5254L171.029 79.2516L170.755 90.8686L182.396 91.1423L182.671 79.5254Z" fill="white" stroke="#708CD5" stroke-width="6" stroke-miterlimit="10"/>
<path d="M172.923 82.6289C173.283 84.002 173.946 89.7541 176.834 88.1457C177.5 87.7798 178.063 86.7945 178.562 86.2299L181.25 83.1874L186.62 77.1035C187.079 76.584 185.053 75.2743 184.478 75.9328L179.704 81.3411L177.318 84.0446C176.765 84.6702 175.485 86.6884 174.67 86.8677L176.005 87.2982C176.321 87.5555 175.735 85.7287 175.723 85.6787C175.501 84.8308 175.279 83.9825 175.057 83.1337C174.872 82.4337 172.657 81.5911 172.928 82.6289H172.923Z" fill="#EE6F57"/>
<path d="M246.841 101.943L197.667 100.786L197.577 104.579L246.752 105.735L246.841 101.943Z" fill="#708CD5"/>
<path d="M219.462 109.573L197.471 109.056L197.381 112.849L219.373 113.366L219.462 109.573Z" fill="#D3DFFF"/>
<path d="M182.173 100.645L170.531 100.371L170.257 111.988L181.898 112.262L182.173 100.645Z" fill="white" stroke="#708CD5" stroke-width="6" stroke-miterlimit="10"/>
<path d="M172.584 103.899C172.943 105.272 173.607 111.024 176.494 109.415C177.16 109.05 177.724 108.064 178.221 107.5L180.909 104.458L186.279 98.3732C186.738 97.8537 184.712 96.5501 184.137 97.2025L179.362 102.611L176.972 105.316C176.42 105.941 175.139 107.958 174.324 108.137L175.661 108.568C175.975 108.825 175.391 106.998 175.377 106.948C175.156 106.101 174.934 105.253 174.711 104.403C174.528 103.703 172.311 102.861 172.584 103.899Z" fill="#EE6F57"/>
<path d="M246.959 122.127L197.771 121.145L197.695 124.939L246.883 125.921L246.959 122.127Z" fill="#708CD5"/>
<path d="M235.819 131.089L196.973 130.175L196.883 133.968L235.729 134.881L235.819 131.089Z" fill="#D3DFFF"/>
<path d="M181.674 121.764L170.032 121.49L169.758 133.107L181.399 133.381L181.674 121.764Z" fill="white" stroke="#708CD5" stroke-width="6" stroke-miterlimit="10"/>
<path d="M172.083 124.881C172.443 126.254 173.106 132.005 175.994 130.396C176.66 130.03 177.223 129.045 177.721 128.482L180.409 125.433L185.779 119.349C186.238 118.83 184.212 117.52 183.637 118.178L178.862 123.587L176.483 126.296C175.93 126.922 174.65 128.94 173.835 129.118L175.172 129.549C175.487 129.807 174.901 127.98 174.888 127.93C174.666 127.082 174.444 126.233 174.222 125.385C174.039 124.684 171.822 123.842 172.094 124.881H172.083Z" fill="#EE6F57"/>
<path d="M216.166 143.324L196.674 142.865L196.584 146.658L216.076 147.116L216.166 143.324Z" fill="#708CD5"/>
<path d="M245.658 152.29L196.484 151.135L196.395 154.928C215.419 155.373 239.643 156.262 244.586 155.506C245.337 154.649 245.741 153.604 245.658 152.29Z" fill="#D3DFFF"/>
<path d="M181.341 142.729L169.699 142.455L169.425 154.072L181.066 154.346L181.341 142.729Z" fill="white" stroke="#708CD5" stroke-width="6" stroke-miterlimit="10"/>
<path d="M171.595 145.678C171.962 147.052 172.619 152.803 175.506 151.194C176.171 150.828 176.735 149.843 177.232 149.28L179.921 146.231L185.298 140.147C185.756 139.626 183.731 138.318 183.154 138.975L178.381 144.383L175.995 147.088C175.442 147.714 174.161 149.731 173.346 149.91L174.683 150.34C174.997 150.599 174.413 148.771 174.4 148.722C174.177 147.874 173.955 147.025 173.734 146.177C173.55 145.476 171.334 144.633 171.605 145.672L171.595 145.678Z" fill="#EE6F57"/>
<path d="M233.918 18.3793V29.9788H187.236V18.3793C187.235 17.4989 187.408 16.6269 187.745 15.8133C188.083 14.9998 188.577 14.2606 189.201 13.6381C189.351 13.4877 189.509 13.346 189.675 13.2137C190.877 12.217 192.39 11.6732 193.953 11.6772C195.141 11.6777 196.314 11.4109 197.384 10.8968C197.837 10.6782 198.269 10.4186 198.674 10.1212C200.038 9.11458 201.041 7.69676 201.534 6.07746C202.029 4.45467 203.034 3.03357 204.4 2.02362C205.766 1.01368 207.42 0.468334 209.12 0.467957H212.034C213.734 0.468334 215.388 1.01368 216.754 2.02362C218.12 3.03357 219.125 4.45467 219.62 6.07746C220.113 7.701 221.117 9.12255 222.484 10.1309C222.89 10.4283 223.322 10.6879 223.775 10.9065C224.845 11.4207 226.018 11.6875 227.206 11.687C228.985 11.6895 230.69 12.3953 231.947 13.6497C233.205 14.904 233.914 16.6048 233.918 18.3793Z" fill="#EE6F57"/>
<path d="M237.706 24.2814V32.9006H183.448V24.2814H187.237V29.9739H233.918V24.2814H237.706Z" fill="#E4E4E4"/>
<path d="M210.578 11.3393C212.864 11.3393 214.718 9.58131 214.718 7.41268C214.718 5.24405 212.864 3.48602 210.578 3.48602C208.291 3.48602 206.438 5.24405 206.438 7.41268C206.438 9.58131 208.291 11.3393 210.578 11.3393Z" fill="white"/>
<path d="M121.116 61.6956C119.46 61.3835 117.913 58.6226 117.375 57.5641C117.242 57.3052 117.199 57.0098 117.253 56.7239L117.913 53.2387C117.913 53.2387 119.433 53.496 119.316 55.5166C119.307 55.727 119.343 55.9368 119.421 56.1325L120.004 57.6519L121.724 56.3227L120.781 53.6631C120.781 53.6631 119.517 54.0094 118.865 53.8021C117.52 53.3753 119.281 52.3387 119.842 52.2168C120.403 52.0948 121.619 51.6632 122.174 52.6046C122.729 53.546 123.062 54.1008 123.062 54.1008C123.062 54.1008 123.673 51.9948 123.257 47.2865C123.238 47.0743 123.77 47.0792 123.919 47.2316C124.366 47.6853 125.079 49.0669 125.116 53.2692C125.116 53.2692 125.191 48.3718 126.032 47.8682C126.726 47.4524 127.077 49.8498 126.588 53.9143C126.588 53.9143 127.493 50.3949 128.142 50.3888C129.236 50.3778 128.156 59.7884 125.406 62.5932L121.116 61.6956Z" fill="#F9B384"/>
<path d="M126.306 60.2554C126.258 60.7237 126.204 61.1773 126.145 61.6163C125.978 63.0102 125.736 64.3942 125.422 65.7625C125.407 65.821 125.397 65.8747 125.383 65.9283C124.547 69.3428 124.395 71.0208 121.541 70.572L118.608 67.2356L118.578 67.2015L118.363 66.9576L118.96 65.2016L119.038 64.9723L119.478 63.6943L119.532 63.5285L120.284 61.3334L120.587 60.4408L126.306 60.2554Z" fill="#F9B384"/>
<path d="M71.7295 181.745L70.9817 184.078C65.8491 185.758 62.8637 187.684 62.6719 189.931H77.4987L78.6877 182.127C75.6852 182.854 73.2778 182.345 71.7295 181.745Z" fill="#1F3C88"/>
<path d="M73.5882 175.948L71.7295 181.745C73.2778 182.345 75.6852 182.854 78.6877 182.122L79.4539 177.086L73.5882 175.948Z" fill="#F9B384"/>
<path d="M98.9379 181.487L99.3729 175.582L92.4074 175.948L92.0273 181.392C94.9736 182.329 97.4177 181.962 98.9379 181.487Z" fill="#F9B384"/>
<path d="M107.316 189.931C107.124 187.684 104.505 184.606 98.7618 183.874L98.9378 181.487C97.4139 181.962 94.976 182.329 92.0273 181.391L91.4297 189.928L107.316 189.931Z" fill="#1F3C88"/>
<path d="M93.2923 63.2114L84.8896 63.2699V50.5876H93.0381L93.043 51.3632L93.0821 55.3825L93.1408 61.8359L93.2923 63.2114Z" fill="#F9B384"/>
<path d="M93.0819 55.9922C91.5715 57.5775 87.6317 55.7874 85.9697 54.0411L93.0428 51.968L93.0819 55.9922Z" fill="#E28B6D"/>
<path d="M95.0321 47.6609C95.0342 48.6163 94.9607 49.5705 94.8121 50.5144C94.4015 53.0753 93.3164 55.28 90.8137 55.3483C84.8991 55.519 83.2127 52.1436 82.0982 49.3827C80.9837 46.6219 82.7923 39.9685 82.7923 39.9685L90.4471 39.2125L94.6508 42.6513C94.9123 44.3083 95.0398 45.9835 95.0321 47.6609Z" fill="#F9B384"/>
<path d="M82.3364 47.8011C82.3364 47.8011 84.0241 47.7243 84.3124 43.3781C87.3296 44.3854 89.5354 43.4672 91.278 41.4612C92.7689 43.4257 96.9421 44.0415 98.3511 40.0185C99.3727 37.1126 96.562 32.7835 92.4682 35.4053C88.4563 33.3822 82.3706 33.5213 80.6146 38.4832C80.6146 38.4832 74.5277 41.288 80.9739 47.4511C81.1071 47.5743 82.3364 47.8011 82.3364 47.8011Z" fill="#102048"/>
<path d="M105.605 108.792L100.961 178.875H90.0449L92.7737 110.869L94.4442 110.097L105.605 108.792Z" fill="#102048"/>
<path d="M77.1728 99.2037L69.5156 178.874H81.4096L92.7341 112.698L105.606 108.796L106.176 94.6502L77.4991 94.0002L77.1728 99.2037Z" fill="#1F3C88"/>
<path opacity="0.6" d="M78.8808 99.3768C85.3771 101.705 100.619 99.0451 103.784 95.8026L101.536 91.3174L76.4648 94.6417L78.8808 99.3768Z" fill="#102048"/>
<path d="M103.2 94.7222C102.99 94.81 102.775 94.9027 102.555 94.9856C99.925 96.0516 97.1979 96.8618 94.4117 97.405C92.6106 97.7613 90.7856 97.9846 88.9517 98.0732C86.0755 98.2341 83.1907 98.001 80.3779 97.3806L84.0196 63.4992L84.4644 59.3677C84.4644 59.3677 89.2303 65.2211 94.485 58.7579L103.2 94.7222Z" fill="white"/>
<path opacity="0.3" d="M88.9517 98.0732C86.0755 98.2341 83.1907 98.001 80.3779 97.3806L84.0196 63.4992L85.3198 61.6237C88.5313 69.4184 91.821 86.6835 88.9517 98.0732Z" fill="#1F3C88"/>
<path d="M84.8922 58.0263C88.513 73.3671 90.0027 89.153 84.6685 106.683C80.7128 108.184 76.4052 108.167 71.7969 106.845L72.9371 74.9768L46.0928 93.3906L44.4639 83.3508C54.7827 73.5049 72.6242 58.636 84.8922 58.0263Z" fill="#708CD5"/>
<path opacity="0.3" d="M102.551 94.9856C99.9206 96.0516 97.1934 96.8618 94.4072 97.405C92.7942 88.1469 92.4373 72.9378 93.7522 66.0747L102.551 94.9856Z" fill="#1F3C88"/>
<path opacity="0.6" d="M125.421 65.7723C125.407 65.8308 125.397 65.8844 125.382 65.9381C124.546 69.3526 124.395 71.0306 121.54 70.5818L118.607 67.2454L118.578 67.2112L118.959 65.2113L119.038 64.982L119.478 63.7041L119.531 63.5382L125.421 65.7723Z" fill="#E28B6D"/>
<path d="M124.913 68.8795C124.913 68.8795 117.703 84.1227 113.426 84.4885C109.28 84.8434 107.316 80.8302 107.316 80.8302L110.249 103.107C106.803 104.717 103.039 105.502 98.6787 104.732C94.8024 92.1711 93.3372 75.9304 93.0488 57.8434C96.187 58.0385 102.402 58.3056 104.628 59.7335C108.62 62.2944 113.548 71.4403 113.548 71.4403L119.292 63.6358L124.913 68.8795Z" fill="#708CD5"/>
<path d="M37.0176 47.4012C37.0176 47.4012 37.4538 40.11 38.1981 40.4503C38.9423 40.7905 40.4331 47.1353 40.4331 47.1353L38.8384 49.7035L37.0176 47.4012Z" fill="#6F3428"/>
<path d="M58.9604 179.078L59.1767 181.478C59.3596 183.513 58.7252 185.536 57.413 187.104C56.1008 188.672 54.2182 189.656 52.1794 189.839L51.5611 189.893C50.5516 189.984 49.5342 189.875 48.5669 189.573C47.5996 189.272 46.7014 188.782 45.9235 188.134C45.1456 187.486 44.5033 186.691 44.0333 185.795C43.5633 184.899 43.2747 183.919 43.1841 182.912L42.9678 180.512L58.9604 179.078Z" fill="#EE6F57"/>
<path d="M48.4911 62.8749L32.498 64.3077L42.9528 180.518L58.946 179.085L48.4911 62.8749Z" fill="#FBC343"/>
<path opacity="0.3" d="M43.1247 61.0055L37.4443 61.5143L46.6084 163.377L52.2887 162.868L43.1247 61.0055Z" stroke="#6F3428" stroke-width="8" stroke-miterlimit="10"/>
<path d="M58.9585 179.079L42.9695 180.513L42.5491 175.831L42.2559 172.577L41.3516 162.578L57.3454 161.144L58.2448 171.143L58.5381 174.397L58.9585 179.079Z" fill="#102048"/>
<path d="M58.2577 171.136L42.2686 172.572L42.5619 175.825L58.551 174.39L58.2577 171.136Z" fill="#FBC343"/>
<path d="M32.5029 64.3028L36.9462 46.5354C36.9462 46.5354 38.4786 47.2146 40.3386 46.0683L48.498 62.8688L32.5029 64.3028Z" fill="#EE6F57"/>
<path d="M83.222 47.0658C83.1511 46.8036 81.9572 46.4439 81.6945 46.3719C81.2876 46.2597 80.8391 46.2036 80.448 46.3829C79.0048 47.0341 79.1979 49.0962 79.9458 50.1803C80.3667 50.8016 80.9902 51.2583 81.7104 51.4729C81.9731 51.5473 84.455 51.5778 84.3463 51.179L83.222 47.0658Z" fill="#F9B384"/>
<path d="M37.7827 88.5127C37.699 88.234 37.5598 87.9749 37.3736 87.7509C37.1874 87.5269 36.9579 87.3427 36.6989 87.2091C36.4398 87.0755 36.1564 86.9953 35.8656 86.9733C35.5748 86.9513 35.2826 86.988 35.0063 87.0811C33.1867 87.7079 31.6017 88.7712 31.3561 90.5809C31.1324 92.2284 31.9585 97.4904 35.6466 98.1672L35.346 95.4636C35.346 95.4636 37.6043 94.938 38.0552 93.9613C38.3717 93.2771 38.3937 90.4224 37.7827 88.5127Z" fill="#F9B384"/>
<path d="M106.189 70.4135C106.384 71.5647 106.549 72.7195 106.706 73.8755C106.864 75.0316 107.001 76.1925 107.15 77.3473L107.529 80.8252C107.639 81.9874 107.747 83.1422 107.818 84.3153L107.629 84.3373C107.429 83.1861 107.262 82.0313 107.105 80.8752L106.668 77.4034C106.546 76.2425 106.404 75.0865 106.302 73.9231C106.199 72.7597 106.082 71.6 106.005 70.4355L106.189 70.4135Z" fill="#1F3C88"/>
<path d="M73.3169 70.2209C73.3169 71.5135 73.2827 72.8061 73.2448 74.0975C73.2069 75.3889 73.1458 76.684 73.0994 77.9754L72.888 81.846C72.8012 83.1362 72.712 84.4251 72.5861 85.7129L72.3955 85.7031C72.3955 84.4093 72.4261 83.1179 72.4615 81.8265L72.6106 77.9535C72.6851 76.6633 72.7401 75.3719 72.8305 74.0829C72.921 72.7939 73.0041 71.5038 73.1238 70.216L73.3169 70.2209Z" fill="#1F3C88"/>
<path d="M82.1892 48.6365C81.9085 48.4245 81.6142 48.231 81.3082 48.0572C81.1895 47.9907 81.0556 47.9563 80.9196 47.9572C80.77 47.9825 80.6297 48.0464 80.5126 48.1426L80.3525 48.0402C80.3856 47.9266 80.4448 47.8224 80.5254 47.7358C80.606 47.6492 80.7059 47.5826 80.8169 47.5414C80.9341 47.5066 81.0571 47.4959 81.1785 47.51C81.2999 47.524 81.4172 47.5625 81.5232 47.6231C81.8908 47.8209 82.1796 48.1379 82.342 48.5218L82.1892 48.6365Z" fill="#E28B6D"/>
<path opacity="0.6" d="M38.0557 93.96L35.7876 100.839L35.3184 95.4636C36.7286 95.1575 37.4984 94.5941 38.0557 93.96Z" fill="#6F3428"/>
<path d="M0.5625 189.975H316.563" stroke="#E1E1E1" stroke-width="3" stroke-miterlimit="10"/>
</g>
<defs>
<clipPath id="clip0_664_3494">
<rect width="316" height="190" fill="white" transform="translate(0.5625 0.463013)"/>
</clipPath>
</defs>
</svg>
