<svg width="101" height="121" viewBox="0 0 101 121" fill="none" xmlns="http://www.w3.org/2000/svg">
<path d="M99.2739 60.94L85.3439 56.45C76.4339 53.51 71.2139 46.3 68.7639 37.24L62.6339 7.38C62.4739 6.79 62.0839 6 60.8839 6C59.8739 6 59.2939 6.79 59.1339 7.38L53.0039 37.25C50.5439 46.31 45.3339 53.52 36.4239 56.46L22.4939 60.95C20.5239 61.59 20.4939 64.37 22.4539 65.04L36.4839 69.87C45.3639 72.82 50.5439 80.02 53.0039 89.04L59.1439 118.57C59.3039 119.16 59.6339 120.22 60.8939 120.22C62.2239 120.22 62.4839 119.16 62.6439 118.57L68.7839 89.04C71.2439 80.01 76.4239 72.81 85.3039 69.87L99.3339 65.04C101.274 64.36 101.244 61.58 99.2739 60.94V60.94Z" fill="#FDD835"/>
<path d="M100.594 62.1897C100.374 61.6397 99.9438 61.1597 99.2738 60.9397L85.3438 56.4497C76.4338 53.5097 71.2138 46.2997 68.7638 37.2397L62.6338 7.37975C62.5438 7.03975 62.2238 6.41975 61.8538 6.23975L63.8338 36.2097C65.3038 49.8897 66.5638 56.3297 77.4838 58.2097C86.8638 59.8297 97.7138 61.6897 100.594 62.1897V62.1897Z" fill="#FFEE58"/>
<path d="M100.624 63.75L76.4638 69.29C67.9538 71.45 63.2638 76.38 63.2638 89.28L60.8938 120.22C61.7038 120.14 62.3638 119.7 62.6438 118.57L68.7838 89.04C71.2438 80.01 76.4238 72.81 85.3038 69.87L99.3338 65.04C99.9938 64.8 100.414 64.31 100.624 63.75V63.75Z" fill="#F4B400"/>
<path d="M30.6794 20.5363C31.2394 20.3463 31.2194 19.5463 30.6494 19.3863L22.9294 17.3063C22.1354 17.0909 21.4105 16.6739 20.8253 16.0957C20.24 15.5174 19.8143 14.7977 19.5894 14.0063L16.5494 1.45626C16.3994 0.846258 15.5294 0.846257 15.3794 1.46626L12.5194 13.9663C12.3033 14.7795 11.8744 15.5204 11.2768 16.1127C10.6792 16.705 9.9345 17.1274 9.11942 17.3363L1.44942 19.3263C0.879422 19.4763 0.839421 20.2763 1.39942 20.4763L9.48942 23.2763C10.9394 23.7763 12.0594 24.9563 12.4994 26.4263L15.3894 38.0163C15.5394 38.6163 16.3994 38.6263 16.5494 38.0163L19.5394 26.3863C19.7608 25.6604 20.1521 24.9979 20.6808 24.4535C21.2095 23.9092 21.8604 23.4988 22.5794 23.2563L30.6794 20.5363V20.5363Z" fill="#F4B400" stroke="#F4B400" stroke-miterlimit="10"/>
</svg>
