<svg width="342" height="276" viewBox="0 0 342 276" fill="none" xmlns="http://www.w3.org/2000/svg">
<path fill-rule="evenodd" clip-rule="evenodd" d="M263.638 8.5014C281.818 25.4625 273.439 54.3372 270.412 78.9521C267.671 101.23 263.326 122.711 247.622 138.708C226.126 160.604 201.163 184.923 170.718 180.505C136.302 175.511 107.642 148.865 94.7917 116.531C81.9305 84.1694 83.0774 43.9942 106.16 18.0651C126.499 -4.78198 162.16 8.35188 192.748 6.49424C217.565 4.98712 245.422 -8.49321 263.638 8.5014Z" fill="#E7EEFE"/>
<path d="M223.089 93.0303H129.089V61.1247C129.089 59.4278 129.96 57.8471 131.394 56.9417L172.126 31.2154C174.548 29.6867 177.63 29.6867 180.052 31.2154L220.783 56.9417C222.218 57.8496 223.089 59.4278 223.089 61.1247V93.0303Z" fill="url(#paint0_linear_3133_74)"/>
<path d="M210.72 99.333H141.457V54.8067C141.457 53.4412 142.565 52.333 143.931 52.333H208.247C209.612 52.333 210.72 53.4412 210.72 54.8067V99.333Z" fill="url(#paint1_linear_3133_74)"/>
<path d="M223.089 62.228V114.809C223.089 117.191 221.125 119.123 218.701 119.123H140.369L152.25 103.472L223.089 62.228Z" fill="url(#paint2_linear_3133_74)"/>
<path d="M129.089 62.228V114.809C129.089 117.191 131.053 119.123 133.477 119.123H218.703C220.088 119.123 221.308 118.48 222.112 117.495L129.089 62.228Z" fill="url(#paint3_linear_3133_74)"/>
<path fill-rule="evenodd" clip-rule="evenodd" d="M325.407 138.758C325.364 139.23 325.317 139.7 325.263 140.169L324.35 140.065C324.402 139.604 324.449 139.141 324.491 138.676L325.407 138.758ZM324.876 142.961C324.725 143.884 324.552 144.801 324.358 145.71L323.459 145.518C323.65 144.623 323.82 143.721 323.969 142.812L324.876 142.961ZM323.704 148.453C323.465 149.36 323.205 150.26 322.924 151.152L322.047 150.876C322.323 149.997 322.58 149.111 322.815 148.218L323.704 148.453ZM322.02 153.81C321.698 154.69 321.356 155.563 320.995 156.427L320.146 156.073C320.502 155.221 320.839 154.361 321.156 153.494L322.02 153.81ZM14.3405 201.359C13.4194 201.443 12.5298 201.555 11.6732 201.698L11.5221 200.791C12.4032 200.644 13.3158 200.529 14.2578 200.444L14.3405 201.359ZM9.04957 202.259C8.15692 202.497 7.31041 202.776 6.51233 203.097L6.16884 202.244C7.00489 201.907 7.88734 201.617 8.81284 201.37L9.04957 202.259ZM19.7276 201.187C18.8054 201.17 17.9054 201.174 17.0289 201.2L17.0012 200.281C17.8937 200.254 18.8088 200.25 19.7448 200.268L19.7276 201.187ZM25.1394 201.503C24.2201 201.417 23.3172 201.347 22.4317 201.294L22.4863 200.377C23.3829 200.43 24.2963 200.501 25.2254 200.588L25.1394 201.503ZM4.13244 204.27C3.75231 204.497 3.38752 204.737 3.03842 204.992L2.49701 204.249C2.86939 203.977 3.25745 203.721 3.66058 203.48L4.13244 204.27ZM30.527 202.165C29.622 202.03 28.7293 201.908 27.8497 201.799L27.9624 200.886C28.8501 200.996 29.7504 201.119 30.6626 201.255L30.527 202.165ZM35.8858 203.082C34.9822 202.909 34.0882 202.746 33.2045 202.595L33.36 201.689C34.2498 201.841 35.1497 202.005 36.0588 202.179L35.8858 203.082ZM319.855 158.998C319.458 159.843 319.043 160.681 318.61 161.51L317.795 161.085C318.222 160.267 318.631 159.441 319.023 158.607L319.855 158.998ZM41.2022 204.194C40.3114 203.993 39.4279 203.801 38.5525 203.617L38.7409 202.717C39.6212 202.902 40.5092 203.095 41.4044 203.297L41.2022 204.194ZM46.4993 205.463C45.6129 205.239 44.7322 205.022 43.8578 204.812L44.0723 203.918C44.9505 204.128 45.8349 204.346 46.7248 204.571L46.4993 205.463ZM317.26 163.976C316.795 164.786 316.313 165.588 315.816 166.382L315.036 165.894C315.528 165.109 316.004 164.318 316.462 163.519L317.26 163.976ZM51.7645 206.857C50.8815 206.613 50.0029 206.375 49.1292 206.144L49.3646 205.255C50.2415 205.487 51.1231 205.726 52.0089 205.97L51.7645 206.857ZM56.9946 208.351C56.1196 208.092 55.2477 207.839 54.3795 207.591L54.6322 206.707C55.503 206.956 56.3773 207.21 57.2548 207.469L56.9946 208.351ZM314.282 168.73C313.756 169.505 313.214 170.272 312.657 171.031L311.915 170.488C312.466 169.737 313.001 168.979 313.522 168.213L314.282 168.73ZM62.2057 209.931C61.3373 209.661 60.4709 209.394 59.6071 209.132L59.8741 208.252C60.74 208.515 61.6085 208.782 62.4789 209.053L62.2057 209.931ZM310.967 173.256C310.389 173.99 309.798 174.717 309.194 175.436L308.49 174.844C309.088 174.133 309.673 173.414 310.244 172.688L310.967 173.256ZM67.3977 211.583C66.5329 211.302 65.6693 211.025 64.8074 210.75L65.0863 209.874C65.9501 210.149 66.8154 210.427 67.6819 210.709L67.3977 211.583ZM72.5712 213.296C71.7093 213.006 70.8476 212.718 69.9867 212.433L70.2757 211.56C71.1381 211.845 72.0013 212.134 72.8646 212.424L72.5712 213.296ZM220.213 189.12C221.124 188.976 222.037 188.845 222.948 188.728L223.065 189.64C222.163 189.756 221.259 189.885 220.357 190.028L220.213 189.12ZM214.787 190.137C215.684 189.942 216.586 189.76 217.493 189.59L217.662 190.494C216.764 190.662 215.87 190.843 214.982 191.036L214.787 190.137ZM225.688 188.417C226.611 188.326 227.53 188.251 228.444 188.19L228.504 189.108C227.601 189.168 226.691 189.242 225.778 189.332L225.688 188.417ZM209.424 191.467C210.304 191.221 211.194 190.986 212.094 190.763L212.315 191.655C211.424 191.876 210.543 192.109 209.672 192.352L209.424 191.467ZM231.209 188.055C232.14 188.026 233.063 188.013 233.973 188.019L233.967 188.939C233.069 188.933 232.158 188.945 231.238 188.974L231.209 188.055ZM307.356 177.555C306.735 178.248 306.103 178.934 305.458 179.613L304.792 178.98C305.43 178.307 306.056 177.628 306.67 176.942L307.356 177.555ZM204.155 193.131C205.015 192.826 205.893 192.533 206.786 192.251L207.062 193.128C206.179 193.407 205.311 193.697 204.462 193.998L204.155 193.131ZM236.729 188.094C237.669 188.14 238.592 188.207 239.494 188.296L239.404 189.211C238.517 189.124 237.609 189.058 236.684 189.013L236.729 188.094ZM199.013 195.189C199.836 194.816 200.686 194.455 201.561 194.106L201.901 194.96C201.039 195.304 200.201 195.66 199.392 196.026L199.013 195.189ZM77.7273 215.058C76.8688 214.76 76.0098 214.465 75.1506 214.171L75.4481 213.301C76.3085 213.595 77.1688 213.891 78.0284 214.189L77.7273 215.058ZM242.255 188.649C243.196 188.798 244.109 188.975 244.988 189.18L244.779 190.076C243.923 189.876 243.032 189.703 242.111 189.557L242.255 188.649ZM194.106 197.749C194.87 197.285 195.678 196.833 196.523 196.394L196.946 197.21C196.118 197.64 195.329 198.082 194.583 198.535L194.106 197.749ZM303.491 181.626C302.833 182.281 302.164 182.929 301.485 183.569L300.854 182.9C301.527 182.265 302.19 181.623 302.843 180.974L303.491 181.626ZM82.87 216.862C82.0147 216.559 81.1579 216.256 80.3002 215.955L80.6046 215.088C81.4634 215.389 82.3212 215.692 83.1775 215.995L82.87 216.862ZM247.675 189.935C248.592 190.242 249.462 190.587 250.276 190.975L249.88 191.805C249.104 191.435 248.27 191.103 247.384 190.808L247.675 189.935ZM189.625 201.085C190.273 200.471 190.998 199.873 191.789 199.292L192.333 200.033C191.568 200.595 190.874 201.169 190.257 201.753L189.625 201.085ZM88.0023 218.7C87.1491 218.392 86.2937 218.084 85.4363 217.777L85.7464 216.911C86.6046 217.219 87.4609 217.527 88.3148 217.836L88.0023 218.7ZM299.42 185.466C298.724 186.088 298.019 186.704 297.304 187.312L296.708 186.612C297.417 186.008 298.116 185.398 298.806 184.78L299.42 185.466ZM252.716 192.384C253.516 192.945 254.231 193.568 254.848 194.256L254.163 194.87C253.599 194.24 252.937 193.663 252.187 193.137L252.716 192.384ZM186.99 204.402C187.207 203.999 187.458 203.601 187.741 203.209L188.487 203.747C188.226 204.109 187.996 204.473 187.799 204.839C187.559 205.283 187.342 205.717 187.146 206.142L186.311 205.756C186.515 205.313 186.742 204.862 186.99 204.402ZM93.125 220.566C92.273 220.253 91.4178 219.941 90.5598 219.628L90.8744 218.764C91.7331 219.077 92.5889 219.39 93.4414 219.702L93.125 220.566ZM295.155 189.098C294.43 189.686 293.696 190.267 292.955 190.84L292.392 190.113C293.128 189.544 293.856 188.967 294.575 188.384L295.155 189.098ZM98.2385 222.45C97.3902 222.136 96.5377 221.821 95.6813 221.505L95.9992 220.642C96.8561 220.958 97.7091 221.273 98.5577 221.587L98.2385 222.45ZM256.444 196.633C256.847 197.478 257.129 198.389 257.279 199.367L256.37 199.507C256.233 198.616 255.978 197.791 255.614 197.029L256.444 196.633ZM290.722 192.529C289.973 193.083 289.217 193.63 288.454 194.169L287.923 193.418C288.681 192.882 289.432 192.34 290.175 191.79L290.722 192.529ZM184.834 211.214C184.877 210.314 185.039 209.368 185.324 208.375L186.207 208.628C185.94 209.562 185.792 210.438 185.753 211.258L184.834 211.214ZM103.344 224.345C102.5 224.031 101.652 223.715 100.798 223.398L101.118 222.536C101.972 222.853 102.821 223.169 103.664 223.483L103.344 224.345ZM286.146 195.765C285.375 196.287 284.598 196.802 283.815 197.31L283.315 196.538C284.093 196.034 284.865 195.522 285.631 195.004L286.146 195.765ZM106 225.333L105.908 225.299L106.229 224.438C107.087 224.757 107.939 225.074 108.784 225.388L108.463 226.25C107.648 225.947 106.827 225.641 106 225.333ZM281.452 198.81C280.659 199.303 279.861 199.788 279.058 200.267L278.588 199.477C279.385 199.002 280.178 198.519 280.966 198.029L281.452 198.81ZM257.352 202.203C257.272 203.084 257.102 204.008 256.837 204.974L255.95 204.731C256.202 203.812 256.362 202.942 256.436 202.12L257.352 202.203ZM186.478 216.766C185.88 215.969 185.434 215.091 185.157 214.132L186.04 213.876C186.285 214.724 186.679 215.503 187.214 216.214L186.478 216.766ZM276.642 201.678C275.832 202.141 275.018 202.597 274.2 203.046L273.758 202.239C274.571 201.793 275.38 201.34 276.185 200.88L276.642 201.678ZM113.579 228.149C112.732 227.836 111.876 227.519 111.012 227.198L111.332 226.336C112.196 226.656 113.051 226.974 113.898 227.287L113.579 228.149ZM271.733 204.371C270.907 204.806 270.077 205.234 269.245 205.655L268.83 204.834C269.658 204.416 270.483 203.99 271.305 203.558L271.733 204.371ZM118.687 230.027C117.847 229.721 116.996 229.409 116.135 229.092L116.452 228.229C117.313 228.546 118.163 228.857 119.002 229.164L118.687 230.027ZM255.908 207.635C255.566 208.45 255.164 209.292 254.699 210.162L253.888 209.728C254.341 208.881 254.73 208.066 255.06 207.28L255.908 207.635ZM266.74 206.894C265.898 207.302 265.053 207.703 264.207 208.096L263.819 207.262C264.661 206.871 265.501 206.472 266.339 206.066L266.74 206.894ZM191.053 220.255C190.135 219.828 189.304 219.345 188.569 218.805L189.115 218.064C189.793 218.564 190.57 219.016 191.44 219.421L191.053 220.255ZM261.659 209.254C260.807 209.633 259.954 210.005 259.101 210.369L258.74 209.523C259.59 209.161 260.438 208.791 261.285 208.414L261.659 209.254ZM122.53 231.418C122.111 231.268 121.689 231.116 121.264 230.963L121.576 230.098C122.001 230.251 122.422 230.403 122.84 230.553C123.279 230.71 123.716 230.867 124.152 231.023L123.842 231.888C123.406 231.732 122.969 231.576 122.53 231.418ZM256.507 211.45C255.642 211.802 254.777 212.146 253.913 212.483L253.579 211.626C254.439 211.291 255.3 210.949 256.16 210.598L256.507 211.45ZM196.422 221.952C195.46 221.755 194.547 221.523 193.687 221.257L193.959 220.379C194.787 220.635 195.671 220.859 196.607 221.052L196.422 221.952ZM253.327 212.517C252.853 213.272 252.334 214.046 251.77 214.841L251.02 214.309C251.575 213.527 252.084 212.767 252.549 212.028L253.327 212.517ZM251.297 213.478C250.416 213.805 249.536 214.123 248.658 214.433L248.352 213.566C249.226 213.258 250.101 212.941 250.977 212.616L251.297 213.478ZM129.054 233.741C128.189 233.436 127.319 233.128 126.445 232.817L126.753 231.95C127.627 232.261 128.496 232.569 129.36 232.874L129.054 233.741ZM246.028 215.339C245.134 215.639 244.241 215.931 243.351 216.213L243.073 215.337C243.958 215.056 244.846 214.766 245.736 214.467L246.028 215.339ZM202.028 222.689C201.068 222.623 200.14 222.532 199.245 222.417L199.362 221.505C200.238 221.618 201.148 221.706 202.091 221.772L202.028 222.689ZM240.68 217.038C239.783 217.306 238.89 217.566 238 217.817L237.751 216.932C238.635 216.683 239.524 216.424 240.416 216.157L240.68 217.038ZM207.668 222.818C206.7 222.836 205.755 222.835 204.834 222.815L204.854 221.896C205.762 221.916 206.695 221.917 207.65 221.899L207.668 222.818ZM235.283 218.557C234.383 218.794 233.487 219.021 232.596 219.239L232.378 218.345C233.263 218.129 234.154 217.903 235.05 217.667L235.283 218.557ZM213.277 222.52C212.317 222.601 211.373 222.667 210.447 222.716L210.397 221.798C211.314 221.749 212.248 221.684 213.199 221.603L213.277 222.52ZM229.843 219.884C228.928 220.09 228.019 220.286 227.117 220.47L226.933 219.569C227.828 219.386 228.732 219.192 229.642 218.987L229.843 219.884ZM134.277 235.565C133.409 235.265 132.536 234.961 131.657 234.655L131.961 233.787C132.838 234.093 133.71 234.396 134.577 234.695L134.277 235.565ZM218.842 221.896C217.895 222.026 216.96 222.144 216.039 222.247L215.936 221.333C216.85 221.231 217.777 221.115 218.716 220.985L218.842 221.896ZM224.363 221.005C223.432 221.176 222.509 221.336 221.597 221.483L221.45 220.575C222.356 220.429 223.272 220.271 224.197 220.101L224.363 221.005ZM250.125 217.048C249.58 217.747 249.001 218.461 248.389 219.189L247.685 218.597C248.291 217.877 248.862 217.172 249.399 216.483L250.125 217.048ZM139.514 237.347C138.642 237.055 137.764 236.758 136.881 236.458L137.178 235.587C138.059 235.887 138.935 236.184 139.806 236.475L139.514 237.347ZM246.575 221.275C246.258 221.629 245.933 221.987 245.6 222.348C245.279 222.695 244.959 223.038 244.639 223.377L243.97 222.746C244.288 222.409 244.606 222.069 244.924 221.724C245.254 221.367 245.576 221.012 245.891 220.661L246.575 221.275ZM144.769 239.074C143.895 238.793 143.016 238.507 142.132 238.216L142.419 237.343C143.302 237.633 144.179 237.919 145.051 238.199L144.769 239.074ZM242.716 225.364C242.054 226.032 241.391 226.684 240.728 227.319L240.092 226.655C240.749 226.026 241.406 225.38 242.063 224.717L242.716 225.364ZM150.045 240.729C149.17 240.462 148.291 240.19 147.406 239.912L147.681 239.035C148.564 239.312 149.441 239.583 150.313 239.849L150.045 240.729ZM155.355 242.294C154.476 242.044 153.593 241.789 152.704 241.526L152.964 240.644C153.85 240.906 154.731 241.161 155.606 241.409L155.355 242.294ZM238.708 229.203C238.012 229.834 237.315 230.448 236.618 231.044L236.02 230.345C236.711 229.755 237.401 229.147 238.09 228.522L238.708 229.203ZM160.707 243.747C159.82 243.517 158.927 243.281 158.028 243.037L158.269 242.149C159.164 242.392 160.053 242.628 160.937 242.856L160.707 243.747ZM234.476 232.817C233.749 233.401 233.021 233.965 232.292 234.512L231.74 233.776C232.461 233.236 233.181 232.677 233.901 232.1L234.476 232.817ZM166.091 245.056C165.193 244.852 164.291 244.639 163.383 244.418L163.601 243.525C164.504 243.745 165.402 243.957 166.295 244.16L166.091 245.056ZM230.03 236.146C229.261 236.681 228.49 237.197 227.718 237.693L227.221 236.919C227.983 236.429 228.745 235.92 229.505 235.391L230.03 236.146ZM171.506 246.191C170.609 246.019 169.706 245.839 168.798 245.648L168.987 244.748C169.889 244.937 170.787 245.117 171.678 245.287L171.506 246.191ZM176.985 247.119C176.077 246.985 175.164 246.84 174.245 246.684L174.399 245.778C175.311 245.932 176.218 246.076 177.119 246.209L176.985 247.119ZM225.356 239.147C224.55 239.623 223.741 240.077 222.931 240.512L222.496 239.701C223.296 239.273 224.093 238.824 224.889 238.355L225.356 239.147ZM182.491 247.792C181.575 247.704 180.655 247.602 179.729 247.489L179.841 246.576C180.759 246.689 181.672 246.789 182.579 246.876L182.491 247.792ZM220.448 241.777C219.607 242.184 218.764 242.569 217.918 242.934L217.554 242.09C218.388 241.73 219.219 241.35 220.047 240.95L220.448 241.777ZM188.033 248.165C187.114 248.131 186.19 248.082 185.261 248.019L185.324 247.102C186.243 247.164 187.158 247.213 188.067 247.247L188.033 248.165ZM215.343 243.98C214.472 244.312 213.597 244.623 212.719 244.913L212.43 244.04C213.295 243.754 214.157 243.448 215.016 243.121L215.343 243.98ZM193.59 248.19C192.666 248.217 191.739 248.229 190.806 248.224L190.81 247.305C191.733 247.309 192.65 247.298 193.562 247.271L193.59 248.19ZM210.056 245.729C209.162 245.982 208.264 246.214 207.363 246.426L207.152 245.531C208.04 245.322 208.925 245.093 209.807 244.844L210.056 245.729ZM199.137 247.817C198.219 247.914 197.296 247.994 196.368 248.056L196.306 247.138C197.222 247.077 198.134 246.998 199.04 246.902L199.137 247.817ZM204.641 247.005C203.73 247.179 202.815 247.333 201.896 247.468L201.762 246.558C202.669 246.425 203.571 246.273 204.469 246.102L204.641 247.005Z" fill="#CACACA"/>
<path d="M330.416 119.702C330.276 119.665 330.129 119.669 329.992 119.715C329.855 119.76 329.734 119.845 329.645 119.959L316.541 136.611C316.446 136.732 316.392 136.879 316.384 137.033C316.377 137.186 316.418 137.338 316.501 137.467C316.584 137.596 316.706 137.696 316.849 137.753C316.991 137.81 317.148 137.82 317.297 137.784L326.154 135.606L332.736 141.921C332.847 142.027 332.988 142.097 333.14 142.119C333.292 142.141 333.448 142.116 333.585 142.045L333.616 142.027C333.743 141.954 333.846 141.843 333.91 141.711C333.975 141.578 333.998 141.429 333.977 141.283L330.955 120.31C330.934 120.167 330.872 120.033 330.776 119.925C330.68 119.817 330.555 119.74 330.416 119.702V119.702ZM332.211 139.374L327.198 134.563L327.944 131.785C327.969 131.691 327.975 131.593 327.962 131.497C327.95 131.401 327.918 131.308 327.87 131.224C327.821 131.14 327.757 131.066 327.68 131.007C327.603 130.948 327.515 130.905 327.421 130.88C327.327 130.855 327.229 130.848 327.133 130.861C327.037 130.873 326.944 130.905 326.86 130.954C326.776 131.002 326.702 131.067 326.643 131.144C326.584 131.221 326.541 131.309 326.516 131.402L325.771 134.182L319.025 135.84L329.74 122.224L332.211 139.374Z" fill="#8D8D8D"/>
<path d="M328.433 129.117C328.475 129.093 328.514 129.065 328.549 129.033C328.585 129.001 328.618 128.966 328.649 128.929C328.677 128.89 328.702 128.849 328.725 128.806C328.745 128.762 328.763 128.716 328.777 128.669C328.827 128.48 328.8 128.279 328.703 128.109C328.605 127.94 328.444 127.816 328.255 127.766C328.207 127.754 328.159 127.746 328.11 127.742C328.062 127.739 328.015 127.741 327.967 127.749C327.919 127.754 327.872 127.765 327.826 127.78C327.712 127.819 327.609 127.886 327.526 127.974C327.443 128.063 327.384 128.17 327.352 128.287C327.341 128.335 327.332 128.383 327.328 128.432C327.326 128.528 327.339 128.624 327.367 128.716C327.382 128.761 327.401 128.805 327.425 128.847C327.523 129.016 327.684 129.14 327.873 129.19C328.062 129.241 328.264 129.215 328.433 129.117V129.117Z" fill="#8D8D8D"/>
<defs>
<linearGradient id="paint0_linear_3133_74" x1="163.525" y1="34.3125" x2="178.916" y2="86.2598" gradientUnits="userSpaceOnUse">
<stop stop-color="#78A4FF"/>
<stop offset="1" stop-color="#1647AD"/>
</linearGradient>
<linearGradient id="paint1_linear_3133_74" x1="176.089" y1="53.3621" x2="176.089" y2="87.541" gradientUnits="userSpaceOnUse">
<stop stop-color="white"/>
<stop offset="0.24" stop-color="#F8F8F7"/>
<stop offset="1" stop-color="#E3E3E1"/>
</linearGradient>
<linearGradient id="paint2_linear_3133_74" x1="180.754" y1="89.2802" x2="210.713" y2="132.157" gradientUnits="userSpaceOnUse">
<stop stop-color="#86ADFF"/>
<stop offset="1" stop-color="#3063CC"/>
</linearGradient>
<linearGradient id="paint3_linear_3133_74" x1="124.325" y1="87.5487" x2="215.574" y2="131.8" gradientUnits="userSpaceOnUse">
<stop stop-color="#6F9EFF"/>
<stop offset="1" stop-color="#3063CC"/>
</linearGradient>
</defs>
</svg>
