<svg width="39" height="18" viewBox="0 0 39 18" fill="none" xmlns="http://www.w3.org/2000/svg">
<path d="M20.8047 0.506348V16.863" stroke="#D3D3D3" stroke-linecap="round" stroke-linejoin="round"/>
<g clip-path="url(#clip0_892_4757)">
<path d="M7.08838 1.19971C3.22316 1.19971 0.0883789 4.5584 0.0883789 8.69971C0.0883789 12.841 3.22316 16.1997 7.08838 16.1997C10.9536 16.1997 14.0884 12.841 14.0884 8.69971C14.0884 4.5584 10.9536 1.19971 7.08838 1.19971ZM7.65142 14.8628C7.62099 14.8628 7.59055 14.8628 7.5449 14.8791V11.341C8.3362 11.3247 9.05142 11.3084 9.70577 11.2595C9.12751 13.1671 8.04707 14.4388 7.65142 14.8628ZM6.52534 14.8628C6.11447 14.4225 5.04925 13.1508 4.47099 11.2595C5.11012 11.3084 5.84055 11.341 6.63186 11.341V14.8791C6.60142 14.8791 6.57099 14.8628 6.52534 14.8628ZM1.30577 8.69971C1.30577 8.2921 1.35142 7.88449 1.41229 7.49319C1.74707 7.42797 2.3862 7.33014 3.28403 7.23232C3.20794 7.70514 3.16229 8.19427 3.16229 8.71601C3.16229 9.23775 3.20794 9.72688 3.26881 10.1834C2.3862 10.0856 1.73186 9.98775 1.39707 9.92253C1.35142 9.51492 1.30577 9.10732 1.30577 8.69971ZM4.09055 8.69971C4.09055 8.14536 4.15142 7.62362 4.24273 7.13449C4.94273 7.08558 5.73403 7.03666 6.63186 7.03666V10.3628C5.74925 10.3464 4.94273 10.3138 4.22751 10.2486C4.15142 9.77579 4.09055 9.25406 4.09055 8.69971ZM7.6362 2.53666C8.04707 2.97688 9.09707 4.28123 9.69055 6.13992C9.05142 6.09101 8.3362 6.0584 7.5449 6.0584V2.52036C7.57534 2.52036 7.60577 2.53666 7.6362 2.53666ZM6.63186 2.52036V6.0584C5.84055 6.07471 5.12534 6.09101 4.4862 6.13992C5.06447 4.28123 6.12968 2.97688 6.52534 2.53666C6.57099 2.53666 6.60142 2.52036 6.63186 2.52036ZM7.5449 10.3628V7.03666C8.42751 7.05297 9.23403 7.08558 9.93403 7.13449C10.0253 7.62362 10.0862 8.14536 10.0862 8.69971C10.0862 9.25406 10.0406 9.77579 9.94925 10.2649C9.24925 10.3138 8.44273 10.3464 7.5449 10.3628ZM10.8775 7.23232C11.7753 7.33014 12.4145 7.42797 12.7492 7.49319C12.8253 7.88449 12.871 8.2921 12.871 8.69971C12.871 9.10732 12.8253 9.51492 12.7645 9.90623C12.4297 9.97145 11.7906 10.0693 10.8927 10.1671C10.9688 9.69427 10.9992 9.20514 10.9992 8.6834C10.9992 8.19427 10.9536 7.68884 10.8775 7.23232ZM12.4753 6.44971C12.0492 6.38449 11.4406 6.30297 10.6645 6.22145C10.2992 4.81927 9.66012 3.69427 9.12751 2.89536C10.6645 3.51492 11.8819 4.81927 12.4753 6.44971ZM5.04925 2.89536C4.50142 3.67797 3.87751 4.80297 3.51229 6.20514C2.75142 6.27036 2.14273 6.36819 1.70142 6.4334C2.2949 4.81927 3.52751 3.51492 5.04925 2.89536ZM1.70142 10.9497C2.12751 11.0149 2.7362 11.0964 3.49707 11.178C3.86229 12.5801 4.47099 13.7051 5.01881 14.4878C3.49707 13.8519 2.2949 12.5638 1.70142 10.9497ZM9.15794 14.4878C9.70577 13.7051 10.3145 12.5964 10.6797 11.1943C11.4406 11.1291 12.0492 11.0312 12.4753 10.966C11.8819 12.5638 10.6797 13.8519 9.15794 14.4878Z" fill="#838383"/>
</g>
<path d="M36.6284 0.938721H30.4134C30.0025 0.938721 29.6085 1.10193 29.318 1.39245C29.0275 1.68296 28.8643 2.07698 28.8643 2.48783V14.911C28.8643 15.767 29.5581 16.4609 30.4134 16.4609H36.6277C37.0386 16.4609 37.4327 16.2977 37.7233 16.0072C38.014 15.7167 38.1774 15.3227 38.1776 14.9118V2.48783C38.1776 2.07698 38.0143 1.68296 37.7238 1.39245C37.4333 1.10193 37.0393 0.938721 36.6284 0.938721V0.938721ZM33.5209 15.6848C32.9854 15.6848 32.5508 15.3379 32.5508 14.9087C32.5508 14.4795 32.9854 14.1326 33.5209 14.1326C34.0564 14.1326 34.491 14.4795 34.491 14.9087C34.491 15.3379 34.0564 15.6848 33.5209 15.6848ZM36.6253 13.3565H30.4165V2.49094H36.6253V13.3565Z" fill="#838383"/>
<defs>
<clipPath id="clip0_892_4757">
<rect width="14" height="15" fill="white" transform="translate(0.0883789 1.19971)"/>
</clipPath>
</defs>
</svg>
