<svg width="39" height="19" viewBox="0 0 39 19" fill="none" xmlns="http://www.w3.org/2000/svg">
<path d="M21.9717 1.42725V17.7839" stroke="white" stroke-linecap="round" stroke-linejoin="round"/>
<path d="M7.45898 2.06665C3.59377 2.06665 0.458984 5.42535 0.458984 9.56665C0.458984 13.708 3.59377 17.0667 7.45898 17.0667C11.3242 17.0667 14.459 13.708 14.459 9.56665C14.459 5.42535 11.3242 2.06665 7.45898 2.06665ZM8.02203 15.7297C7.99159 15.7297 7.96116 15.7297 7.91551 15.746V12.208C8.70681 12.1917 9.42203 12.1753 10.0764 12.1264C9.49811 14.034 8.41768 15.3058 8.02203 15.7297ZM6.89594 15.7297C6.48507 15.2895 5.41985 14.0177 4.84159 12.1264C5.48072 12.1753 6.21116 12.208 7.00246 12.208V15.746C6.97203 15.746 6.94159 15.7297 6.89594 15.7297ZM1.67638 9.56665C1.67638 9.15904 1.72203 8.75143 1.7829 8.36013C2.11768 8.29491 2.75681 8.19709 3.65464 8.09926C3.57855 8.57209 3.5329 9.06122 3.5329 9.58295C3.5329 10.1047 3.57855 10.5938 3.63942 11.0503C2.75681 10.9525 2.10246 10.8547 1.76768 10.7895C1.72203 10.3819 1.67638 9.97426 1.67638 9.56665ZM4.46116 9.56665C4.46116 9.0123 4.52203 8.49056 4.61333 8.00143C5.31333 7.95252 6.10464 7.90361 7.00246 7.90361V11.2297C6.11985 11.2134 5.31333 11.1808 4.59811 11.1156C4.52203 10.6427 4.46116 10.121 4.46116 9.56665ZM8.00681 3.40361C8.41768 3.84382 9.46768 5.14817 10.0612 7.00687C9.42203 6.95795 8.70681 6.92535 7.91551 6.92535V3.3873C7.94594 3.3873 7.97638 3.40361 8.00681 3.40361ZM7.00246 3.3873V6.92535C6.21116 6.94165 5.49594 6.95795 4.85681 7.00687C5.43507 5.14817 6.50029 3.84382 6.89594 3.40361C6.94159 3.40361 6.97203 3.3873 7.00246 3.3873ZM7.91551 11.2297V7.90361C8.79811 7.91991 9.60464 7.95252 10.3046 8.00143C10.3959 8.49056 10.4568 9.0123 10.4568 9.56665C10.4568 10.121 10.4112 10.6427 10.3199 11.1319C9.61985 11.1808 8.81333 11.2134 7.91551 11.2297ZM11.2481 8.09926C12.1459 8.19709 12.7851 8.29491 13.1199 8.36013C13.1959 8.75143 13.2416 9.15904 13.2416 9.56665C13.2416 9.97426 13.1959 10.3819 13.1351 10.7732C12.8003 10.8384 12.1612 10.9362 11.2633 11.034C11.3394 10.5612 11.3699 10.0721 11.3699 9.55035C11.3699 9.06122 11.3242 8.55578 11.2481 8.09926ZM12.8459 7.31665C12.4199 7.25143 11.8112 7.16991 11.0351 7.08839C10.6699 5.68622 10.0307 4.56122 9.49811 3.7623C11.0351 4.38187 12.2525 5.68622 12.8459 7.31665ZM5.41985 3.7623C4.87203 4.54491 4.24811 5.66991 3.8829 7.07209C3.12203 7.1373 2.51333 7.23513 2.07203 7.30035C2.66551 5.68622 3.89811 4.38187 5.41985 3.7623ZM2.07203 11.8167C2.49811 11.8819 3.10681 11.9634 3.86768 12.0449C4.2329 13.4471 4.84159 14.5721 5.38942 15.3547C3.86768 14.7188 2.66551 13.4308 2.07203 11.8167ZM9.52855 15.3547C10.0764 14.5721 10.6851 13.4634 11.0503 12.0612C11.8112 11.996 12.4199 11.8982 12.8459 11.833C12.2525 13.4308 11.0503 14.7188 9.52855 15.3547Z" fill="white"/>
<path d="M36.9991 1.80566H30.784C30.3731 1.80566 29.9791 1.96887 29.6886 2.25939C29.3981 2.5499 29.2349 2.94393 29.2349 3.35478V15.7779C29.2349 16.634 29.9287 17.3278 30.784 17.3278H36.9983C37.4092 17.3278 37.8033 17.1646 38.0939 16.8742C38.3846 16.5837 38.548 16.1896 38.5482 15.7787V3.35478C38.5482 2.94393 38.385 2.5499 38.0944 2.25939C37.8039 1.96887 37.4099 1.80566 36.9991 1.80566V1.80566ZM33.8915 16.5517C33.356 16.5517 32.9214 16.2048 32.9214 15.7756C32.9214 15.3464 33.356 14.9995 33.8915 14.9995C34.427 14.9995 34.8616 15.3464 34.8616 15.7756C34.8616 16.2048 34.427 16.5517 33.8915 16.5517ZM36.9959 14.2234H30.7871V3.35788H36.9959V14.2234Z" fill="white"/>
</svg>
