<svg width="15" height="16" viewBox="0 0 15 16" fill="none" xmlns="http://www.w3.org/2000/svg">
<path d="M7.08838 0.199707C3.22316 0.199707 0.0883789 3.5584 0.0883789 7.69971C0.0883789 11.841 3.22316 15.1997 7.08838 15.1997C10.9536 15.1997 14.0884 11.841 14.0884 7.69971C14.0884 3.5584 10.9536 0.199707 7.08838 0.199707ZM7.65142 13.8628C7.62099 13.8628 7.59055 13.8628 7.5449 13.8791V10.341C8.3362 10.3247 9.05142 10.3084 9.70577 10.2595C9.12751 12.1671 8.04707 13.4388 7.65142 13.8628ZM6.52533 13.8628C6.11447 13.4225 5.04925 12.1508 4.47099 10.2595C5.11012 10.3084 5.84055 10.341 6.63186 10.341V13.8791C6.60142 13.8791 6.57099 13.8628 6.52533 13.8628ZM1.30577 7.69971C1.30577 7.2921 1.35142 6.88449 1.41229 6.49319C1.74707 6.42797 2.3862 6.33014 3.28403 6.23232C3.20794 6.70514 3.16229 7.19427 3.16229 7.71601C3.16229 8.23775 3.20794 8.72688 3.26881 9.1834C2.3862 9.08558 1.73186 8.98775 1.39707 8.92253C1.35142 8.51493 1.30577 8.10732 1.30577 7.69971ZM4.09055 7.69971C4.09055 7.14536 4.15142 6.62362 4.24273 6.13449C4.94273 6.08558 5.73403 6.03666 6.63186 6.03666V9.36275C5.74925 9.34645 4.94273 9.31384 4.22751 9.24862C4.15142 8.77579 4.09055 8.25406 4.09055 7.69971ZM7.6362 1.53666C8.04707 1.97688 9.09707 3.28123 9.69055 5.13992C9.05142 5.09101 8.3362 5.0584 7.5449 5.0584V1.52036C7.57534 1.52036 7.60577 1.53666 7.6362 1.53666ZM6.63186 1.52036V5.0584C5.84055 5.07471 5.12534 5.09101 4.4862 5.13992C5.06447 3.28123 6.12968 1.97688 6.52533 1.53666C6.57099 1.53666 6.60142 1.52036 6.63186 1.52036ZM7.5449 9.36275V6.03666C8.42751 6.05297 9.23403 6.08558 9.93403 6.13449C10.0253 6.62362 10.0862 7.14536 10.0862 7.69971C10.0862 8.25406 10.0406 8.77579 9.94925 9.26492C9.24925 9.31384 8.44273 9.34645 7.5449 9.36275ZM10.8775 6.23232C11.7753 6.33014 12.4145 6.42797 12.7492 6.49319C12.8253 6.88449 12.871 7.2921 12.871 7.69971C12.871 8.10732 12.8253 8.51493 12.7645 8.90623C12.4297 8.97145 11.7906 9.06927 10.8927 9.1671C10.9688 8.69427 10.9992 8.20514 10.9992 7.6834C10.9992 7.19427 10.9536 6.68884 10.8775 6.23232ZM12.4753 5.44971C12.0492 5.38449 11.4406 5.30297 10.6645 5.22145C10.2992 3.81927 9.66012 2.69427 9.12751 1.89536C10.6645 2.51492 11.8819 3.81927 12.4753 5.44971ZM5.04925 1.89536C4.50142 2.67797 3.87751 3.80297 3.51229 5.20514C2.75142 5.27036 2.14273 5.36819 1.70142 5.4334C2.2949 3.81927 3.52751 2.51492 5.04925 1.89536ZM1.70142 9.94971C2.12751 10.0149 2.7362 10.0964 3.49707 10.178C3.86229 11.5801 4.47099 12.7051 5.01881 13.4878C3.49707 12.8519 2.2949 11.5638 1.70142 9.94971ZM9.15794 13.4878C9.70577 12.7051 10.3145 11.5964 10.6797 10.1943C11.4406 10.1291 12.0492 10.0312 12.4753 9.96601C11.8819 11.5638 10.6797 12.8519 9.15794 13.4878Z" fill="#838383"/>
</svg>
