<svg xmlns="http://www.w3.org/2000/svg" viewBox="0 0 342.76 275.68"><defs><style>.cls-1{fill:#9f9f9f;}</style></defs><g id="Layer_2" data-name="Layer 2"><g id="Layer_1-2" data-name="Layer 1"><path class="cls-1" d="M340.05,242.53l-38.86-38a9.42,9.42,0,0,0-6.62-2.67h-6.35a77.7,77.7,0,0,0,17.14-48.74c0-43.75-36.28-79.21-81.06-79.21s-81.06,35.46-81.06,79.21,36.28,79.21,81.06,79.21a81.91,81.91,0,0,0,49.89-16.76v6.21a9,9,0,0,0,2.72,6.47l38.86,38a9.47,9.47,0,0,0,13.21,0l11-10.78A9,9,0,0,0,340.05,242.53ZM224.3,201.9c-27.55,0-49.88-21.78-49.88-48.74s22.29-48.74,49.88-48.74,49.89,21.78,49.89,48.74S251.89,201.9,224.3,201.9ZM13.54,6,68,28.85V275.68l-62.11-26A9.5,9.5,0,0,1,0,240.94V14.77A9.7,9.7,0,0,1,13.54,6ZM175,67.92V0l68,28.48V57.24a96.12,96.12,0,0,0-68,10.68Zm-19,151.8v27.11L88,275.31V28.48L156,0V82.31a95.89,95.89,0,0,0,0,137.41Zm87,25.08v29l-68-27V234.11a95.35,95.35,0,0,0,47.89,12.81A96.49,96.49,0,0,0,243,244.8Z"/></g></g></svg>