<svg width="28" height="27" viewBox="0 0 28 27" fill="none" xmlns="http://www.w3.org/2000/svg">
<rect y="0.0258789" width="28" height="26" rx="3" fill="#BFD4FF"/>
<path d="M23.3021 9.03999L15.0074 20.1709H14.3873L5.35144 9.15612L8.09763 5.26575H20.8305L23.3021 9.03999Z" fill="#3063CC"/>
<path d="M23.4292 9.03741L17.5795 9.89829L14.8924 20.1733H15.1434L23.4292 9.03741Z" fill="#7CA7FF"/>
<path d="M5.55829 9.03741L11.408 9.89829L14.3756 20.1733H14.1276L5.55829 9.03741Z" fill="#7CA7FF"/>
<path d="M17.6796 10.1256L14.4108 5.25067L20.7418 5.33146L17.4729 10.1256H17.6796Z" fill="#7CA7FF"/>
<path d="M11.5054 10.1256L8.23651 5.25067L14.5675 5.33146L11.2987 10.1256H11.5054Z" fill="#7CA7FF"/>
<path d="M13.7288 20.0471L5 9.17881L7.93222 5.02588H21.0017L23.6357 9.0652L15.4769 20.0219C15.3837 20.1467 15.2559 20.2499 15.1048 20.3221C14.9536 20.3944 14.7839 20.4335 14.6107 20.436C14.4376 20.4385 14.2664 20.4043 14.1125 20.3365C13.9586 20.2686 13.8268 20.1692 13.7288 20.0471ZM5.70278 9.16114L14.216 19.7644C14.2613 19.8148 14.3199 19.8554 14.3869 19.883C14.454 19.9106 14.5277 19.9243 14.6021 19.9231C14.6765 19.9218 14.7495 19.9057 14.8153 19.8759C14.8811 19.8462 14.9377 19.8036 14.9808 19.7517L22.9536 9.04501L20.6562 5.53079H8.25409L5.70278 9.16114Z" fill="#0C1F70"/>
<path d="M14.2034 5.12231L10.9348 9.99792L11.4471 10.249L14.7158 5.37339L14.2034 5.12231Z" fill="#0C1F70"/>
<path d="M14.7176 5.1288L14.2052 5.37988L17.4739 10.2555L17.9863 10.0044L14.7176 5.1288Z" fill="#0C1F70"/>
<path d="M20.5369 5.19893L17.2681 9.99286L17.7783 10.2471L21.0471 5.45322L20.5369 5.19893Z" fill="#0C1F70"/>
<path d="M8.38711 5.19975L7.87689 5.45404L11.1471 10.2502L11.6573 9.99587L8.38711 5.19975Z" fill="#0C1F70"/>
<path d="M11.5725 9.98021L11.0022 10.1116L14.1935 20.2375L14.7638 20.1062L11.5725 9.98021Z" fill="#0C1F70"/>
<path d="M17.3011 9.99558L14.4817 20.1215L15.0562 20.2384L17.8757 10.1125L17.3011 9.99558Z" fill="#0C1F70"/>
<path d="M11.3692 10.0749L5.30984 9.33268L5.39253 8.82776C12.8102 9.73661 10.067 9.56746 17.4256 9.56746L23.2487 8.70911L23.3491 9.21402C16.1322 10.2718 18.8666 10.0749 11.3692 10.0749Z" fill="#0C1F70"/>
</svg>
